G04*
G04 #@! TF.GenerationSoftware,Altium Limited,Altium Designer,23.4.1 (23)*
G04*
G04 Layer_Physical_Order=3*
G04 Layer_Color=16440176*
%FSLAX44Y44*%
%MOMM*%
G71*
G04*
G04 #@! TF.SameCoordinates,69872263-788E-4E38-85BF-5BAD4D7AD8B8*
G04*
G04*
G04 #@! TF.FilePolarity,Positive*
G04*
G01*
G75*
%ADD12C,0.2540*%
%ADD57C,3.4000*%
%ADD63C,1.6000*%
%ADD64C,1.2690*%
%ADD65C,1.3000*%
%ADD66R,1.3000X1.3000*%
%ADD67R,1.3000X1.3000*%
%ADD68C,1.5000*%
%ADD69R,1.5000X1.5000*%
%ADD70R,1.5000X1.5000*%
%ADD71C,0.4000*%
%ADD72C,0.5000*%
D12*
X445546Y313250D02*
G03*
X445415Y313247I0J-2540D01*
G01*
X444599Y290207D02*
X444599Y290208D01*
X445190Y313235D02*
G03*
X444045Y290762I580J-11295D01*
G01*
X446394Y313240D02*
G03*
X446165Y313250I-228J-2530D01*
G01*
X457072Y302376D02*
G03*
X446788Y313204I-11302J-436D01*
G01*
X457072Y302376D02*
G03*
X457625Y300909I2537J119D01*
G01*
X459011Y299179D02*
G03*
X457625Y300909I-126540J-99953D01*
G01*
X457053Y313117D02*
G03*
X456426Y313717I-11283J-11177D01*
G01*
X457384Y312785D02*
G03*
X457053Y313117I-105052J-104283D01*
G01*
X653510Y216654D02*
Y258350D01*
X723360Y328200D01*
X648970Y212114D02*
X653510Y216654D01*
X400663Y243371D02*
X404534Y239500D01*
X405103D02*
X407718Y236884D01*
X398050Y233140D02*
X404997D01*
X400268Y243371D02*
X400663D01*
X405824Y232312D02*
X408807D01*
X391700Y239490D02*
X398050Y233140D01*
X404997D02*
X405824Y232312D01*
X404534Y239500D02*
X405103D01*
X407718Y236884D02*
X410700D01*
X408807Y232312D02*
X412210Y228909D01*
X410700Y236884D02*
X441844Y205740D01*
X445343Y283637D02*
Y289464D01*
Y283637D02*
X451320Y277660D01*
X444599Y290207D02*
X445343Y289464D01*
X445546Y313250D02*
X446165D01*
X444045Y290762D02*
X444599Y290208D01*
X445190Y313235D02*
X445415Y313247D01*
X446394Y313240D02*
X446788Y313204D01*
X459011Y299179D02*
X459115Y299074D01*
X539750Y218440D01*
X451793Y317909D02*
X456426Y313717D01*
X447040Y321310D02*
X451793Y317909D01*
X457053Y313117D02*
X457053Y313117D01*
X544509Y225017D02*
X545560Y222790D01*
X457384Y312785D02*
X544509Y225017D01*
X412210Y224963D02*
X442323Y194850D01*
X473721D01*
X441844Y205740D02*
X458470D01*
X444462Y212128D02*
X497406D01*
X405130Y251460D02*
Y264160D01*
Y251460D02*
X444462Y212128D01*
X412210Y224963D02*
Y228909D01*
X423880Y241600D02*
X433642Y231838D01*
X434340D02*
X442658Y223520D01*
X497384D01*
X433642Y231838D02*
X434340D01*
X423880Y241600D02*
Y261920D01*
X439420Y301940D02*
X442595Y298765D01*
X535810Y211900D02*
X539750D01*
X445770Y301940D02*
X535810Y211900D01*
X545560Y209493D02*
Y222790D01*
X239357Y321310D02*
X447040D01*
X497384Y223520D02*
X503820Y217085D01*
X391700Y239490D02*
Y247295D01*
X364490Y226060D02*
Y287034D01*
X440690Y149860D02*
X530860D01*
X364490Y226060D02*
X440690Y149860D01*
X436880Y165100D02*
X492760D01*
X369062Y232918D02*
X436880Y165100D01*
X369062Y232918D02*
Y288927D01*
X473721Y194850D02*
X474959Y196088D01*
X502412D01*
X506335Y200011D02*
X506706D01*
X502412Y196088D02*
X506335Y200011D01*
X458470Y205740D02*
X463550Y200660D01*
X414020Y271780D02*
X423880Y261920D01*
X382270Y256725D02*
X391700Y247295D01*
X242773Y195580D02*
X254332Y207139D01*
X361821D02*
X445770Y123190D01*
X254332Y207139D02*
X361821D01*
X550132Y207600D02*
Y228378D01*
X541084Y205017D02*
X545560Y209493D01*
X541084Y179679D02*
Y205017D01*
X550228Y190010D02*
Y201230D01*
X545656Y203124D02*
X550132Y207600D01*
X545656Y188116D02*
Y203124D01*
X559818Y210820D02*
X562438D01*
X550228Y201230D02*
X559818Y210820D01*
X452120Y326390D02*
X550132Y228378D01*
X545560Y158020D02*
X551752Y151828D01*
X541084Y179679D02*
X545560Y175203D01*
Y158020D02*
Y175203D01*
X515760Y217030D02*
X517030D01*
X506730Y226060D02*
X515760Y217030D01*
X525780Y198120D02*
Y208280D01*
X517030Y217030D02*
X525780Y208280D01*
X492760Y165100D02*
X525780Y198120D01*
X519377Y133970D02*
X519487Y134080D01*
X364490Y213360D02*
X443880Y133970D01*
X519377D01*
X519487Y134080D02*
X540174D01*
X530860Y149860D02*
X547973Y132747D01*
X540174Y134080D02*
X548524Y125730D01*
X492760Y294640D02*
X533400Y254000D01*
X492760Y294640D02*
Y297180D01*
X236220Y326390D02*
X452120D01*
X577120Y178340D02*
X588010Y189230D01*
X577120Y155969D02*
Y178340D01*
Y155969D02*
X579302Y153787D01*
X548524Y125730D02*
X565034D01*
X566522Y127218D02*
Y129438D01*
X565034Y125730D02*
X566522Y127218D01*
X566420Y129540D02*
X566522Y129438D01*
X579302Y131812D02*
Y153787D01*
X554170Y106680D02*
X579302Y131812D01*
X534035Y106680D02*
X554170D01*
X517525Y123190D02*
X534035Y106680D01*
X445770Y123190D02*
X517525D01*
X209550Y195580D02*
X242773D01*
X153250Y216850D02*
X188280D01*
X209550Y195580D01*
X554800Y196717D02*
X571339Y213256D01*
Y224951D01*
X562438Y210820D02*
X565529Y213912D01*
X554800Y191903D02*
Y196717D01*
X565529Y213912D02*
Y246001D01*
X560070Y251460D02*
X565529Y246001D01*
X541515Y253505D02*
X560957Y234063D01*
X559719Y223520D02*
X559999Y223799D01*
Y229274D02*
X560957Y230233D01*
X559999Y223799D02*
Y229274D01*
X560957Y230233D02*
Y234063D01*
X560610Y194310D02*
X572040Y205740D01*
X608330D01*
X548361Y180619D02*
Y185411D01*
X547973Y132747D02*
X554159D01*
X557562Y136151D02*
Y182676D01*
X550228Y190010D02*
X557562Y182676D01*
X554800Y191903D02*
X566420Y180283D01*
X545656Y188116D02*
X548361Y185411D01*
Y180619D02*
X548640Y180340D01*
X554159Y132747D02*
X557562Y136151D01*
X566420Y129540D02*
Y180283D01*
X200660Y213360D02*
X364490D01*
X177800Y236220D02*
X200660Y213360D01*
X102450Y216850D02*
X121820Y236220D01*
X177800D01*
X559844Y251460D02*
X560070D01*
X551752Y138557D02*
Y151828D01*
X355729Y302260D02*
X369062Y288927D01*
X294640Y302260D02*
X355729D01*
X353836Y297688D02*
X364490Y287034D01*
X292746Y297688D02*
X353836D01*
X267970Y307340D02*
X283094D01*
X292746Y297688D01*
X281160Y315740D02*
X294640Y302260D01*
X153670Y305430D02*
X209742D01*
X212322Y308010D01*
X267300D01*
X267970Y307340D01*
X503820Y216196D02*
X508382Y211634D01*
X503820Y216196D02*
Y217085D01*
X102870Y305430D02*
X126665D01*
X136975Y315740D01*
X281160D01*
X541515Y253505D02*
Y268745D01*
X520700Y289560D02*
X541515Y268745D01*
X618213Y193085D02*
X618492Y192806D01*
X622891D01*
X625533Y190163D01*
X642957D02*
X651510Y181610D01*
X768350D02*
X773430Y186690D01*
X651510Y181610D02*
X768350D01*
X656590Y195580D02*
X664210Y187960D01*
X628728Y195580D02*
X656590D01*
X664210Y187960D02*
X756920D01*
X625533Y190163D02*
X642957D01*
X626634Y197673D02*
X628728Y195580D01*
X668142Y194120D02*
X766890D01*
X660530Y201732D02*
X668142Y194120D01*
X626239Y197673D02*
X626634D01*
X632216Y201732D02*
X660530D01*
X662988Y205740D02*
X751167D01*
X766890Y194120D02*
X773430Y200660D01*
X751167Y205740D02*
X759517Y214090D01*
X662424Y206304D02*
X662988Y205740D01*
X646563Y206304D02*
X662424D01*
X608330Y205740D02*
X610132Y207542D01*
X663084Y212077D02*
X674067D01*
X610132Y207542D02*
X645325D01*
X674067Y212077D02*
X675268Y210876D01*
X685856D01*
X756920Y281940D01*
X645325Y207542D02*
X646563Y206304D01*
X765585Y214090D02*
X767005Y212670D01*
X759517Y214090D02*
X765585D01*
X767005Y212670D02*
X773392D01*
X396240Y271780D02*
X414020D01*
X497406Y212128D02*
X503710Y205824D01*
X458470Y331470D02*
X492760Y297180D01*
X874751Y333731D02*
X875030Y334010D01*
X757911Y333731D02*
X874751D01*
X752380Y328200D02*
X757911Y333731D01*
X944587Y340900D02*
X945317Y341630D01*
X899700Y340900D02*
X944587D01*
X945317Y341630D02*
X990600D01*
X886460Y327660D02*
X899700Y340900D01*
X764540Y327660D02*
X886460D01*
X756920Y281940D02*
Y320040D01*
X764540Y327660D01*
X718820Y334010D02*
X741680D01*
X618731Y233921D02*
X718820Y334010D01*
X723360Y328200D02*
X752380D01*
X618731Y215752D02*
Y233921D01*
X618452Y215473D02*
X618731Y215752D01*
X591820Y260350D02*
Y316717D01*
X603286Y328183D01*
X610123D02*
X617220Y335280D01*
X603286Y328183D02*
X610123D01*
X568960Y268344D02*
Y269746D01*
X496671Y342035D02*
X568960Y269746D01*
X233813Y320580D02*
X238627D01*
X239357Y321310D01*
X363220Y336550D02*
X368300Y331470D01*
X458470D01*
X109220Y325120D02*
X113030Y321310D01*
X233083D01*
X233813Y320580D01*
D57*
X717550Y285750D02*
D03*
X895350Y57150D02*
D03*
X920750Y304800D02*
D03*
X50800Y158750D02*
D03*
Y342900D02*
D03*
X349250Y57150D02*
D03*
D63*
X1135379Y304800D02*
D03*
X1085379D02*
D03*
X1111250Y51200D02*
D03*
Y101200D02*
D03*
X222250Y76600D02*
D03*
Y126600D02*
D03*
X114300Y51200D02*
D03*
Y101200D02*
D03*
X1002585Y51200D02*
D03*
Y101200D02*
D03*
X1085849Y419100D02*
D03*
X1135849D02*
D03*
D64*
X787400Y304800D02*
D03*
X812800D02*
D03*
X838200D02*
D03*
X355600Y152400D02*
D03*
X330200D02*
D03*
X304800D02*
D03*
D65*
X153250Y216850D02*
D03*
Y196850D02*
D03*
X102450Y216850D02*
D03*
Y196850D02*
D03*
X153670Y305430D02*
D03*
Y285430D02*
D03*
X102870Y305430D02*
D03*
Y285430D02*
D03*
X780100Y77050D02*
D03*
X800100D02*
D03*
X697550D02*
D03*
X717550D02*
D03*
X635000D02*
D03*
X615000D02*
D03*
X456250D02*
D03*
X476250D02*
D03*
X646779Y313288D02*
D03*
X626779D02*
D03*
D66*
X153250Y176850D02*
D03*
X102450D02*
D03*
X153670Y265430D02*
D03*
X102870D02*
D03*
D67*
X820100Y77050D02*
D03*
X737550D02*
D03*
X655000D02*
D03*
X496250D02*
D03*
X606779Y313288D02*
D03*
D68*
X445770Y301940D02*
D03*
Y261940D02*
D03*
Y281940D02*
D03*
X1007650Y165950D02*
D03*
X221400Y256700D02*
D03*
Y276700D02*
D03*
Y236700D02*
D03*
X934300Y200500D02*
D03*
Y180500D02*
D03*
Y220500D02*
D03*
X1113950Y165950D02*
D03*
X951650Y428150D02*
D03*
X824650D02*
D03*
X1113950Y216750D02*
D03*
X697650Y428150D02*
D03*
X570650D02*
D03*
X62650D02*
D03*
X189650D02*
D03*
X316650D02*
D03*
X443650D02*
D03*
D69*
X445770Y241940D02*
D03*
X221400Y296700D02*
D03*
X934300Y160500D02*
D03*
X951650Y448150D02*
D03*
X824650D02*
D03*
X697650D02*
D03*
X570650D02*
D03*
X62650D02*
D03*
X189650D02*
D03*
X316650D02*
D03*
X443650D02*
D03*
D70*
X1027650Y165950D02*
D03*
X1133950D02*
D03*
Y216750D02*
D03*
D71*
X649683Y167959D02*
D03*
X1164590Y189230D02*
D03*
X1149350D02*
D03*
X1134110D02*
D03*
X1118870D02*
D03*
X1111250Y234950D02*
D03*
Y204470D02*
D03*
X1103630Y189230D02*
D03*
Y158750D02*
D03*
X1088390Y433070D02*
D03*
Y402590D02*
D03*
X1096010Y387350D02*
D03*
X1088390Y372110D02*
D03*
X1096010Y356870D02*
D03*
X1088390Y341630D02*
D03*
X1096010Y326390D02*
D03*
Y295910D02*
D03*
X1088390Y280670D02*
D03*
X1096010Y265430D02*
D03*
X1088390Y250190D02*
D03*
X1096010Y234950D02*
D03*
X1088390Y219710D02*
D03*
X1096010Y204470D02*
D03*
X1088390Y189230D02*
D03*
X1096010Y173990D02*
D03*
X1088390Y158750D02*
D03*
X1096010Y143510D02*
D03*
Y52070D02*
D03*
X1073150Y433070D02*
D03*
Y402590D02*
D03*
X1080770Y387350D02*
D03*
X1073150Y372110D02*
D03*
X1080770Y356870D02*
D03*
X1073150Y341630D02*
D03*
X1080770Y326390D02*
D03*
X1073150Y311150D02*
D03*
Y280670D02*
D03*
X1080770Y265430D02*
D03*
X1073150Y250190D02*
D03*
X1080770Y234950D02*
D03*
X1073150Y219710D02*
D03*
X1080770Y204470D02*
D03*
X1073150Y189230D02*
D03*
X1080770Y173990D02*
D03*
X1073150Y158750D02*
D03*
X1080770Y143510D02*
D03*
Y52070D02*
D03*
X1057910Y433070D02*
D03*
X1065530Y417830D02*
D03*
X1057910Y402590D02*
D03*
X1065530Y387350D02*
D03*
X1057910Y372110D02*
D03*
X1065530Y356870D02*
D03*
X1057910Y341630D02*
D03*
X1065530Y326390D02*
D03*
X1057910Y311150D02*
D03*
X1065530Y295910D02*
D03*
X1057910Y280670D02*
D03*
X1065530Y265430D02*
D03*
X1057910Y250190D02*
D03*
X1065530Y234950D02*
D03*
X1057910Y219710D02*
D03*
X1065530Y204470D02*
D03*
X1057910Y189230D02*
D03*
X1065530Y173990D02*
D03*
X1057910Y158750D02*
D03*
X1065530Y143510D02*
D03*
Y52070D02*
D03*
X1042670Y433070D02*
D03*
X1050290Y417830D02*
D03*
X1042670Y402590D02*
D03*
X1050290Y387350D02*
D03*
X1042670Y372110D02*
D03*
X1050290Y356870D02*
D03*
X1042670Y341630D02*
D03*
X1050290Y326390D02*
D03*
Y295910D02*
D03*
X1042670Y280670D02*
D03*
X1050290Y265430D02*
D03*
Y204470D02*
D03*
X1042670Y189230D02*
D03*
X1050290Y173990D02*
D03*
X1042670Y158750D02*
D03*
X1050290Y143510D02*
D03*
Y52070D02*
D03*
X1035050Y387350D02*
D03*
X1027430Y341630D02*
D03*
X1035050Y326390D02*
D03*
Y295910D02*
D03*
Y265430D02*
D03*
Y143510D02*
D03*
Y52070D02*
D03*
X1019810Y387350D02*
D03*
X1012190Y372110D02*
D03*
X1019810Y326390D02*
D03*
Y234950D02*
D03*
Y143510D02*
D03*
Y52070D02*
D03*
X1004570Y387350D02*
D03*
Y326390D02*
D03*
Y295910D02*
D03*
X996950Y280670D02*
D03*
X1004570Y265430D02*
D03*
Y234950D02*
D03*
X996950Y189230D02*
D03*
Y158750D02*
D03*
X1004570Y143510D02*
D03*
X989330Y387350D02*
D03*
Y326390D02*
D03*
Y295910D02*
D03*
Y265430D02*
D03*
X981710Y250190D02*
D03*
X989330Y204470D02*
D03*
X981710Y189230D02*
D03*
X989330Y173990D02*
D03*
X981710Y158750D02*
D03*
X989330Y143510D02*
D03*
Y52070D02*
D03*
X966470Y402590D02*
D03*
X974090Y387350D02*
D03*
Y326390D02*
D03*
X966470Y219710D02*
D03*
X974090Y204470D02*
D03*
X966470Y189230D02*
D03*
X974090Y173990D02*
D03*
X966470Y158750D02*
D03*
X974090Y143510D02*
D03*
Y52070D02*
D03*
X951230Y402590D02*
D03*
X958850Y387350D02*
D03*
Y326390D02*
D03*
X951230Y280670D02*
D03*
X958850Y265430D02*
D03*
Y234950D02*
D03*
X951230Y219710D02*
D03*
X958850Y204470D02*
D03*
X951230Y189230D02*
D03*
X958850Y173990D02*
D03*
X951230Y158750D02*
D03*
X958850Y143510D02*
D03*
Y52070D02*
D03*
X935990Y372110D02*
D03*
X943610Y356870D02*
D03*
Y326390D02*
D03*
Y265430D02*
D03*
Y234950D02*
D03*
Y143510D02*
D03*
Y52070D02*
D03*
X920750Y433070D02*
D03*
X928370Y417830D02*
D03*
X920750Y402590D02*
D03*
X928370Y387350D02*
D03*
X920750Y372110D02*
D03*
X928370Y356870D02*
D03*
Y326390D02*
D03*
Y265430D02*
D03*
Y234950D02*
D03*
X920750Y67310D02*
D03*
X928370Y52070D02*
D03*
X913130Y387350D02*
D03*
Y356870D02*
D03*
Y326390D02*
D03*
Y234950D02*
D03*
Y173990D02*
D03*
Y82550D02*
D03*
X897890Y387350D02*
D03*
X890270Y341630D02*
D03*
X897890Y326390D02*
D03*
X890270Y311150D02*
D03*
X897890Y295910D02*
D03*
Y234950D02*
D03*
X890270Y97790D02*
D03*
X897890Y82550D02*
D03*
X882650Y387350D02*
D03*
Y356870D02*
D03*
X875030Y311150D02*
D03*
X882650Y234950D02*
D03*
X875030Y97790D02*
D03*
X882650Y82550D02*
D03*
X875030Y67310D02*
D03*
X867410Y387350D02*
D03*
X859790Y341630D02*
D03*
Y311150D02*
D03*
X867410Y295910D02*
D03*
Y265430D02*
D03*
Y234950D02*
D03*
X859790Y128270D02*
D03*
X867410Y113030D02*
D03*
X859790Y97790D02*
D03*
X867410Y82550D02*
D03*
X859790Y67310D02*
D03*
X867410Y52070D02*
D03*
X844550Y402590D02*
D03*
X852170Y387350D02*
D03*
X844550Y341630D02*
D03*
X852170Y295910D02*
D03*
Y265430D02*
D03*
Y113030D02*
D03*
Y82550D02*
D03*
Y52070D02*
D03*
X829310Y402590D02*
D03*
X836930Y387350D02*
D03*
X829310Y341630D02*
D03*
Y311150D02*
D03*
X836930Y265430D02*
D03*
X821690Y387350D02*
D03*
Y356870D02*
D03*
X814070Y341630D02*
D03*
X821690Y295910D02*
D03*
Y265430D02*
D03*
X814070Y219710D02*
D03*
Y158750D02*
D03*
X821690Y143510D02*
D03*
X814070Y128270D02*
D03*
X821690Y113030D02*
D03*
X814070Y97790D02*
D03*
X798830Y433070D02*
D03*
Y402590D02*
D03*
Y372110D02*
D03*
X806450Y356870D02*
D03*
X798830Y341630D02*
D03*
Y311150D02*
D03*
X806450Y265430D02*
D03*
X798830Y250190D02*
D03*
X806450Y234950D02*
D03*
X798830Y219710D02*
D03*
Y158750D02*
D03*
X806450Y143510D02*
D03*
X798830Y128270D02*
D03*
X806450Y113030D02*
D03*
X798830Y67310D02*
D03*
X791210Y417830D02*
D03*
Y387350D02*
D03*
Y356870D02*
D03*
X783590Y341630D02*
D03*
Y128270D02*
D03*
X791210Y82550D02*
D03*
X775970Y387350D02*
D03*
X768350Y341630D02*
D03*
Y311150D02*
D03*
X775970Y295910D02*
D03*
X768350Y280670D02*
D03*
Y158750D02*
D03*
X775970Y143510D02*
D03*
X768350Y97790D02*
D03*
Y67310D02*
D03*
X760730Y387350D02*
D03*
X753110Y372110D02*
D03*
X760730Y265430D02*
D03*
X753110Y250190D02*
D03*
X760730Y173990D02*
D03*
X753110Y158750D02*
D03*
X760730Y143510D02*
D03*
X753110Y128270D02*
D03*
X760730Y113030D02*
D03*
X753110Y97790D02*
D03*
X760730Y82550D02*
D03*
X753110Y67310D02*
D03*
X745490Y387350D02*
D03*
X737870Y311150D02*
D03*
X745490Y295910D02*
D03*
X737870Y250190D02*
D03*
X745490Y173990D02*
D03*
X737870Y128270D02*
D03*
X745490Y113030D02*
D03*
X737870Y97790D02*
D03*
X722630Y402590D02*
D03*
X730250Y387350D02*
D03*
X722630Y372110D02*
D03*
Y341630D02*
D03*
Y311150D02*
D03*
X730250Y265430D02*
D03*
Y173990D02*
D03*
Y143510D02*
D03*
X722630Y128270D02*
D03*
X730250Y113030D02*
D03*
X722630Y97790D02*
D03*
Y67310D02*
D03*
X707390Y402590D02*
D03*
X715010Y387350D02*
D03*
X707390Y341630D02*
D03*
Y250190D02*
D03*
X715010Y173990D02*
D03*
Y143510D02*
D03*
X707390Y128270D02*
D03*
Y97790D02*
D03*
Y67310D02*
D03*
X692150Y402590D02*
D03*
X699770Y387350D02*
D03*
X692150Y341630D02*
D03*
X699770Y326390D02*
D03*
X692150Y280670D02*
D03*
X699770Y265430D02*
D03*
X692150Y250190D02*
D03*
X699770Y173990D02*
D03*
Y143510D02*
D03*
X692150Y128270D02*
D03*
Y67310D02*
D03*
X676910Y372110D02*
D03*
X684530Y356870D02*
D03*
X676910Y341630D02*
D03*
X684530Y326390D02*
D03*
X676910Y311150D02*
D03*
X684530Y265430D02*
D03*
X676910Y250190D02*
D03*
X684530Y173990D02*
D03*
Y143510D02*
D03*
Y113030D02*
D03*
X676910Y97790D02*
D03*
X684530Y82550D02*
D03*
X676910Y67310D02*
D03*
X661670Y433070D02*
D03*
X669290Y417830D02*
D03*
X661670Y402590D02*
D03*
X669290Y387350D02*
D03*
X661670Y372110D02*
D03*
X669290Y356870D02*
D03*
X661670Y341630D02*
D03*
X669290Y326390D02*
D03*
X661670Y311150D02*
D03*
X669290Y295910D02*
D03*
Y265430D02*
D03*
X661670Y250190D02*
D03*
X669290Y173990D02*
D03*
X661670Y128270D02*
D03*
X669290Y113030D02*
D03*
X661670Y97790D02*
D03*
X669290Y82550D02*
D03*
X654050Y387350D02*
D03*
X646430Y341630D02*
D03*
X654050Y326390D02*
D03*
Y295910D02*
D03*
X646430Y280670D02*
D03*
Y250190D02*
D03*
X654050Y173990D02*
D03*
X646430Y128270D02*
D03*
X654050Y113030D02*
D03*
X638810Y387350D02*
D03*
X631190Y372110D02*
D03*
Y341630D02*
D03*
X638810Y295910D02*
D03*
X631190Y280670D02*
D03*
X638810Y265430D02*
D03*
Y113030D02*
D03*
X631190Y97790D02*
D03*
Y67310D02*
D03*
X623570Y387350D02*
D03*
Y295910D02*
D03*
X615950Y280670D02*
D03*
X623570Y265430D02*
D03*
X615950Y250190D02*
D03*
X608330Y387350D02*
D03*
X600710Y341630D02*
D03*
X608330Y295910D02*
D03*
X600710Y280670D02*
D03*
Y97790D02*
D03*
Y67310D02*
D03*
X585470Y402590D02*
D03*
X593090Y387350D02*
D03*
X585470Y341630D02*
D03*
X593090Y326390D02*
D03*
X585470Y280670D02*
D03*
X570230Y402590D02*
D03*
X577850Y387350D02*
D03*
X570230Y341630D02*
D03*
X577850Y326390D02*
D03*
X570230Y280670D02*
D03*
X554990Y372110D02*
D03*
X562610Y356870D02*
D03*
Y295910D02*
D03*
X539750Y433070D02*
D03*
X547370Y417830D02*
D03*
X539750Y402590D02*
D03*
X547370Y387350D02*
D03*
X539750Y372110D02*
D03*
X547370Y356870D02*
D03*
X539750Y311150D02*
D03*
Y97790D02*
D03*
X547370Y82550D02*
D03*
X539750Y67310D02*
D03*
X532130Y387350D02*
D03*
Y356870D02*
D03*
Y295910D02*
D03*
X524510Y158750D02*
D03*
Y97790D02*
D03*
X532130Y82550D02*
D03*
X524510Y67310D02*
D03*
X516890Y387350D02*
D03*
X509270Y341630D02*
D03*
X516890Y113030D02*
D03*
X509270Y97790D02*
D03*
X516890Y82550D02*
D03*
X509270Y67310D02*
D03*
X501650Y387350D02*
D03*
Y356870D02*
D03*
X494030Y311150D02*
D03*
X501650Y113030D02*
D03*
X494030Y97790D02*
D03*
X486410Y387350D02*
D03*
X478790Y250190D02*
D03*
X486410Y234950D02*
D03*
X478790Y158750D02*
D03*
X486410Y113030D02*
D03*
X478790Y97790D02*
D03*
Y67310D02*
D03*
X463550Y402590D02*
D03*
X471170Y387350D02*
D03*
X463550Y341630D02*
D03*
X471170Y173990D02*
D03*
X463550Y158750D02*
D03*
X471170Y113030D02*
D03*
X463550Y97790D02*
D03*
Y67310D02*
D03*
X448310Y402590D02*
D03*
X455930Y387350D02*
D03*
X448310Y341630D02*
D03*
Y97790D02*
D03*
X440690Y387350D02*
D03*
Y356870D02*
D03*
X433070Y341630D02*
D03*
Y280670D02*
D03*
Y250190D02*
D03*
Y189230D02*
D03*
Y97790D02*
D03*
X440690Y52070D02*
D03*
X417830Y433070D02*
D03*
Y402590D02*
D03*
Y372110D02*
D03*
X425450Y356870D02*
D03*
X417830Y341630D02*
D03*
Y311150D02*
D03*
X425450Y295910D02*
D03*
X417830Y280670D02*
D03*
Y128270D02*
D03*
X425450Y113030D02*
D03*
X417830Y67310D02*
D03*
X425450Y52070D02*
D03*
X410210Y417830D02*
D03*
Y387350D02*
D03*
Y356870D02*
D03*
X402590Y341630D02*
D03*
Y311150D02*
D03*
X410210Y295910D02*
D03*
X402590Y280670D02*
D03*
X410210Y143510D02*
D03*
Y82550D02*
D03*
X402590Y67310D02*
D03*
X410210Y52070D02*
D03*
X394970Y387350D02*
D03*
X387350Y311150D02*
D03*
X394970Y295910D02*
D03*
X387350Y158750D02*
D03*
Y97790D02*
D03*
X394970Y82550D02*
D03*
X387350Y67310D02*
D03*
X394970Y52070D02*
D03*
X379730Y387350D02*
D03*
X372110Y372110D02*
D03*
X379730Y173990D02*
D03*
X372110Y128270D02*
D03*
X379730Y113030D02*
D03*
X372110Y97790D02*
D03*
X379730Y82550D02*
D03*
X372110Y67310D02*
D03*
X379730Y52070D02*
D03*
X364490Y387350D02*
D03*
X356870Y311150D02*
D03*
Y219710D02*
D03*
Y189230D02*
D03*
X364490Y143510D02*
D03*
X356870Y128270D02*
D03*
X364490Y113030D02*
D03*
X356870Y97790D02*
D03*
X364490Y82550D02*
D03*
X341630Y402590D02*
D03*
X349250Y387350D02*
D03*
X341630Y372110D02*
D03*
Y341630D02*
D03*
Y311150D02*
D03*
X349250Y234950D02*
D03*
X341630Y219710D02*
D03*
Y158750D02*
D03*
Y128270D02*
D03*
X349250Y113030D02*
D03*
X341630Y97790D02*
D03*
X349250Y82550D02*
D03*
X326390Y402590D02*
D03*
X334010Y387350D02*
D03*
X326390Y341630D02*
D03*
Y128270D02*
D03*
X334010Y113030D02*
D03*
X326390Y97790D02*
D03*
X334010Y82550D02*
D03*
X326390Y67310D02*
D03*
X311150Y402590D02*
D03*
X318770Y387350D02*
D03*
X311150Y189230D02*
D03*
X318770Y173990D02*
D03*
Y143510D02*
D03*
X311150Y128270D02*
D03*
X318770Y113030D02*
D03*
X311150Y97790D02*
D03*
X318770Y82550D02*
D03*
X311150Y67310D02*
D03*
X318770Y52070D02*
D03*
X295910Y372110D02*
D03*
X303530Y356870D02*
D03*
X295910Y128270D02*
D03*
X303530Y113030D02*
D03*
X295910Y97790D02*
D03*
X303530Y82550D02*
D03*
X295910Y67310D02*
D03*
X303530Y52070D02*
D03*
X280670Y433070D02*
D03*
X288290Y417830D02*
D03*
X280670Y402590D02*
D03*
X288290Y387350D02*
D03*
X280670Y372110D02*
D03*
X288290Y356870D02*
D03*
Y143510D02*
D03*
X280670Y128270D02*
D03*
X288290Y113030D02*
D03*
X280670Y97790D02*
D03*
X288290Y82550D02*
D03*
X280670Y67310D02*
D03*
X288290Y52070D02*
D03*
X273050Y387350D02*
D03*
Y113030D02*
D03*
X265430Y97790D02*
D03*
X273050Y82550D02*
D03*
X265430Y67310D02*
D03*
X273050Y52070D02*
D03*
X257810Y387350D02*
D03*
X250190Y372110D02*
D03*
Y219710D02*
D03*
X257810Y113030D02*
D03*
X250190Y97790D02*
D03*
X257810Y82550D02*
D03*
X250190Y67310D02*
D03*
X257810Y52070D02*
D03*
X242570Y387350D02*
D03*
X234950Y280670D02*
D03*
Y250190D02*
D03*
Y219710D02*
D03*
X242570Y204470D02*
D03*
X234950Y189230D02*
D03*
X242570Y82550D02*
D03*
X234950Y67310D02*
D03*
X242570Y52070D02*
D03*
X227330Y387350D02*
D03*
X219710Y219710D02*
D03*
X227330Y204470D02*
D03*
X219710Y189230D02*
D03*
X227330Y52070D02*
D03*
X204470Y402590D02*
D03*
X212090Y387350D02*
D03*
X204470Y280670D02*
D03*
X212090Y265430D02*
D03*
X204470Y250190D02*
D03*
Y219710D02*
D03*
X212090Y204470D02*
D03*
X204470Y189230D02*
D03*
X212090Y173990D02*
D03*
Y82550D02*
D03*
X204470Y67310D02*
D03*
X212090Y52070D02*
D03*
X189230Y402590D02*
D03*
X196850Y387350D02*
D03*
Y295910D02*
D03*
X189230Y280670D02*
D03*
X196850Y265430D02*
D03*
X189230Y250190D02*
D03*
X196850Y234950D02*
D03*
X189230Y189230D02*
D03*
X196850Y173990D02*
D03*
Y82550D02*
D03*
X189230Y67310D02*
D03*
X196850Y52070D02*
D03*
X173990Y372110D02*
D03*
X181610Y356870D02*
D03*
Y295910D02*
D03*
X173990Y280670D02*
D03*
X181610Y265430D02*
D03*
X173990Y250190D02*
D03*
X181610Y204470D02*
D03*
X173990Y189230D02*
D03*
X181610Y173990D02*
D03*
Y82550D02*
D03*
X173990Y67310D02*
D03*
X181610Y52070D02*
D03*
X158750Y433070D02*
D03*
X166370Y417830D02*
D03*
X158750Y402590D02*
D03*
X166370Y387350D02*
D03*
X158750Y372110D02*
D03*
X166370Y356870D02*
D03*
Y295910D02*
D03*
Y265430D02*
D03*
X158750Y250190D02*
D03*
X166370Y204470D02*
D03*
Y173990D02*
D03*
Y82550D02*
D03*
X158750Y67310D02*
D03*
X166370Y52070D02*
D03*
X151130Y387350D02*
D03*
Y356870D02*
D03*
X143510Y280670D02*
D03*
Y250190D02*
D03*
Y189230D02*
D03*
X151130Y82550D02*
D03*
X143510Y67310D02*
D03*
X151130Y52070D02*
D03*
X135890Y387350D02*
D03*
Y295910D02*
D03*
X128270Y280670D02*
D03*
Y250190D02*
D03*
Y219710D02*
D03*
X135890Y204470D02*
D03*
X128270Y189230D02*
D03*
X135890Y82550D02*
D03*
X128270Y67310D02*
D03*
X135890Y52070D02*
D03*
X120650Y387350D02*
D03*
Y356870D02*
D03*
Y295910D02*
D03*
X113030Y280670D02*
D03*
Y250190D02*
D03*
X120650Y204470D02*
D03*
X113030Y189230D02*
D03*
X105410Y387350D02*
D03*
X97790Y250190D02*
D03*
X105410Y234950D02*
D03*
X97790Y158750D02*
D03*
X90170Y387350D02*
D03*
X82550Y341630D02*
D03*
X90170Y295910D02*
D03*
X82550Y280670D02*
D03*
Y250190D02*
D03*
X90170Y234950D02*
D03*
X82550Y219710D02*
D03*
X90170Y204470D02*
D03*
X82550Y158750D02*
D03*
X90170Y143510D02*
D03*
X67310Y372110D02*
D03*
X74930Y356870D02*
D03*
Y173990D02*
D03*
Y143510D02*
D03*
X67310Y128270D02*
D03*
X52070Y402590D02*
D03*
X59690Y387350D02*
D03*
X52070Y372110D02*
D03*
Y311150D02*
D03*
Y280670D02*
D03*
Y250190D02*
D03*
Y219710D02*
D03*
Y189230D02*
D03*
Y128270D02*
D03*
X59690Y113030D02*
D03*
X36830Y433070D02*
D03*
Y402590D02*
D03*
X44450Y387350D02*
D03*
X36830Y372110D02*
D03*
Y311150D02*
D03*
X44450Y295910D02*
D03*
X36830Y280670D02*
D03*
X44450Y265430D02*
D03*
X36830Y250190D02*
D03*
X44450Y234950D02*
D03*
X36830Y219710D02*
D03*
X44450Y204470D02*
D03*
X36830Y189230D02*
D03*
Y128270D02*
D03*
X44450Y113030D02*
D03*
X36830Y97790D02*
D03*
X29210Y478790D02*
D03*
X21590Y463550D02*
D03*
X29210Y448310D02*
D03*
X21590Y433070D02*
D03*
X29210Y417830D02*
D03*
X21590Y402590D02*
D03*
X29210Y387350D02*
D03*
X21590Y372110D02*
D03*
X29210Y356870D02*
D03*
X21590Y341630D02*
D03*
X29210Y326390D02*
D03*
X21590Y311150D02*
D03*
X29210Y295910D02*
D03*
X21590Y280670D02*
D03*
X29210Y265430D02*
D03*
X21590Y250190D02*
D03*
X29210Y234950D02*
D03*
X21590Y219710D02*
D03*
X29210Y204470D02*
D03*
X21590Y189230D02*
D03*
X29210Y173990D02*
D03*
X21590Y158750D02*
D03*
X29210Y143510D02*
D03*
X21590Y128270D02*
D03*
X29210Y113030D02*
D03*
X21590Y97790D02*
D03*
X29210Y82550D02*
D03*
X21590Y67310D02*
D03*
Y36830D02*
D03*
Y6350D02*
D03*
X13970Y478790D02*
D03*
X6350Y463550D02*
D03*
X13970Y448310D02*
D03*
X6350Y433070D02*
D03*
X13970Y417830D02*
D03*
X6350Y402590D02*
D03*
X13970Y387350D02*
D03*
X6350Y372110D02*
D03*
X13970Y356870D02*
D03*
X6350Y341630D02*
D03*
X13970Y326390D02*
D03*
X6350Y311150D02*
D03*
X13970Y295910D02*
D03*
X6350Y280670D02*
D03*
X13970Y265430D02*
D03*
X6350Y250190D02*
D03*
X13970Y234950D02*
D03*
X6350Y219710D02*
D03*
X13970Y204470D02*
D03*
X6350Y189230D02*
D03*
X13970Y173990D02*
D03*
X6350Y158750D02*
D03*
X13970Y143510D02*
D03*
X6350Y128270D02*
D03*
X13970Y113030D02*
D03*
X6350Y97790D02*
D03*
X13970Y82550D02*
D03*
X6350Y67310D02*
D03*
X13970Y52070D02*
D03*
X6350Y36830D02*
D03*
X13970Y21590D02*
D03*
X6350Y6350D02*
D03*
X295910Y287620D02*
D03*
X636359Y240482D02*
D03*
X636810Y228600D02*
D03*
X637547Y217227D02*
D03*
X772160Y233680D02*
D03*
X966470Y377190D02*
D03*
X391700Y226060D02*
D03*
X402590Y227330D02*
D03*
X463550Y200660D02*
D03*
X468630Y205821D02*
D03*
X400268Y243371D02*
D03*
X289560Y287620D02*
D03*
X284621Y201329D02*
D03*
X539750Y218440D02*
D03*
Y211900D02*
D03*
X506730Y226060D02*
D03*
X516970Y139780D02*
D03*
X528320Y128270D02*
D03*
X588010Y189230D02*
D03*
X571339Y224951D02*
D03*
X559719Y223520D02*
D03*
X560610Y194310D02*
D03*
X548224Y259066D02*
D03*
X559844Y251460D02*
D03*
X551752Y138557D02*
D03*
X514350Y161290D02*
D03*
X508382Y211634D02*
D03*
X381000Y289560D02*
D03*
X58420Y398780D02*
D03*
X209550Y375920D02*
D03*
X336550Y374650D02*
D03*
X464820D02*
D03*
X589280Y373380D02*
D03*
X713740Y374650D02*
D03*
X842010D02*
D03*
X765585Y259305D02*
D03*
X858520Y231140D02*
D03*
X850900Y234950D02*
D03*
X772160Y148590D02*
D03*
X773430Y161290D02*
D03*
Y167640D02*
D03*
X628650Y114300D02*
D03*
X711200Y113030D02*
D03*
X535971Y174028D02*
D03*
X591820Y214630D02*
D03*
X576413Y254605D02*
D03*
X397510Y249301D02*
D03*
X392430Y280670D02*
D03*
X381000Y283210D02*
D03*
Y295910D02*
D03*
Y309880D02*
D03*
X501650Y317500D02*
D03*
X508000Y308610D02*
D03*
X520700Y289560D02*
D03*
X566420Y331470D02*
D03*
X571500Y292100D02*
D03*
X929640Y114300D02*
D03*
X896620Y113030D02*
D03*
X885190D02*
D03*
X892810Y290830D02*
D03*
X881380D02*
D03*
X975360Y269240D02*
D03*
X999490Y256540D02*
D03*
X304800Y196850D02*
D03*
X298450Y229870D02*
D03*
X304800Y223520D02*
D03*
X358140Y196850D02*
D03*
X495300Y189230D02*
D03*
X600874Y135497D02*
D03*
X573492Y134219D02*
D03*
X614680Y139700D02*
D03*
X604520Y116840D02*
D03*
X582160Y116674D02*
D03*
X556260Y60960D02*
D03*
X582930Y88900D02*
D03*
X534670Y116840D02*
D03*
X543560Y114300D02*
D03*
X582930Y172720D02*
D03*
X629920Y127000D02*
D03*
X605790Y132080D02*
D03*
X618213Y193085D02*
D03*
X767080Y175260D02*
D03*
X774700Y173990D02*
D03*
X773430Y186690D02*
D03*
X636515Y184353D02*
D03*
X756920Y187960D02*
D03*
X626239Y197673D02*
D03*
X632216Y201732D02*
D03*
X750570Y199930D02*
D03*
X663084Y212077D02*
D03*
X648970Y212114D02*
D03*
X773392Y212670D02*
D03*
X762000Y208280D02*
D03*
X773430Y200660D02*
D03*
X396240Y271780D02*
D03*
X405130Y264160D02*
D03*
X382270Y256725D02*
D03*
X548640Y180340D02*
D03*
X503710Y205824D02*
D03*
X506706Y200011D02*
D03*
X488968Y206318D02*
D03*
X441960Y114300D02*
D03*
X482600Y172720D02*
D03*
X246380Y179070D02*
D03*
X257810D02*
D03*
X121920Y347980D02*
D03*
X143510D02*
D03*
X132080D02*
D03*
X143510Y374650D02*
D03*
X132080D02*
D03*
X215900Y348170D02*
D03*
X270510Y347980D02*
D03*
X259080D02*
D03*
X270510Y374650D02*
D03*
X259080D02*
D03*
X375920Y341630D02*
D03*
X386080Y346710D02*
D03*
Y374650D02*
D03*
X397510Y346710D02*
D03*
Y374650D02*
D03*
X521970Y347980D02*
D03*
X477520Y340360D02*
D03*
X513080Y347980D02*
D03*
Y374650D02*
D03*
X524510D02*
D03*
X755650Y339090D02*
D03*
X767080Y347980D02*
D03*
Y374650D02*
D03*
X778510Y347980D02*
D03*
Y374650D02*
D03*
X882650Y335280D02*
D03*
X894080Y346710D02*
D03*
Y374650D02*
D03*
X905510Y346710D02*
D03*
Y374650D02*
D03*
X1012190Y340360D02*
D03*
X1021080Y346710D02*
D03*
Y374650D02*
D03*
X1032510Y346710D02*
D03*
Y374650D02*
D03*
X741680Y334010D02*
D03*
X990600Y341630D02*
D03*
X875030Y334010D02*
D03*
X618452Y215473D02*
D03*
X651510Y347980D02*
D03*
Y373380D02*
D03*
X640080D02*
D03*
Y347980D02*
D03*
X624840Y335280D02*
D03*
X591820Y260350D02*
D03*
X617220Y335280D02*
D03*
X607060Y267970D02*
D03*
X568806Y268344D02*
D03*
X496671Y342035D02*
D03*
X533400Y254000D02*
D03*
X363220Y336550D02*
D03*
X236220Y326390D02*
D03*
X109220Y325120D02*
D03*
X958850Y311150D02*
D03*
X929640Y133350D02*
D03*
X873760Y168910D02*
D03*
X862010Y214310D02*
D03*
X294625Y242630D02*
D03*
X494030Y331470D02*
D03*
X499110Y161290D02*
D03*
X508000Y44450D02*
D03*
X673100D02*
D03*
X755650D02*
D03*
X838200D02*
D03*
X755650Y222250D02*
D03*
X995125Y235665D02*
D03*
D72*
X801800Y212500D02*
D03*
X812800D02*
D03*
X823800D02*
D03*
X801800Y201500D02*
D03*
X812800D02*
D03*
X823800D02*
D03*
X801800Y190500D02*
D03*
X812800D02*
D03*
X823800D02*
D03*
X801800Y179500D02*
D03*
X812800D02*
D03*
X823800D02*
D03*
X801800Y168500D02*
D03*
X812800D02*
D03*
X823800D02*
D03*
X331900Y288700D02*
D03*
X342900D02*
D03*
X353900D02*
D03*
X331900Y277700D02*
D03*
X342900D02*
D03*
X353900D02*
D03*
X331900Y266700D02*
D03*
X342900D02*
D03*
X353900D02*
D03*
X331900Y255700D02*
D03*
X342900D02*
D03*
X353900D02*
D03*
X331900Y244700D02*
D03*
X342900D02*
D03*
X353900D02*
D03*
M02*
