G04*
G04 #@! TF.GenerationSoftware,Altium Limited,Altium Designer,23.4.1 (23)*
G04*
G04 Layer_Physical_Order=1*
G04 Layer_Color=255*
%FSLAX44Y44*%
%MOMM*%
G71*
G04*
G04 #@! TF.SameCoordinates,69872263-788E-4E38-85BF-5BAD4D7AD8B8*
G04*
G04*
G04 #@! TF.FilePolarity,Positive*
G04*
G01*
G75*
%ADD12C,0.2540*%
G04:AMPARAMS|DCode=17|XSize=3.1mm|YSize=5.18mm|CornerRadius=0.0465mm|HoleSize=0mm|Usage=FLASHONLY|Rotation=180.000|XOffset=0mm|YOffset=0mm|HoleType=Round|Shape=RoundedRectangle|*
%AMROUNDEDRECTD17*
21,1,3.1000,5.0870,0,0,180.0*
21,1,3.0070,5.1800,0,0,180.0*
1,1,0.0930,-1.5035,2.5435*
1,1,0.0930,1.5035,2.5435*
1,1,0.0930,1.5035,-2.5435*
1,1,0.0930,-1.5035,-2.5435*
%
%ADD17ROUNDEDRECTD17*%
G04:AMPARAMS|DCode=18|XSize=0.35mm|YSize=1.25mm|CornerRadius=0.0508mm|HoleSize=0mm|Usage=FLASHONLY|Rotation=270.000|XOffset=0mm|YOffset=0mm|HoleType=Round|Shape=RoundedRectangle|*
%AMROUNDEDRECTD18*
21,1,0.3500,1.1485,0,0,270.0*
21,1,0.2485,1.2500,0,0,270.0*
1,1,0.1015,-0.5743,-0.1243*
1,1,0.1015,-0.5743,0.1243*
1,1,0.1015,0.5743,0.1243*
1,1,0.1015,0.5743,-0.1243*
%
%ADD18ROUNDEDRECTD18*%
%ADD19O,0.3000X1.8000*%
%ADD20O,1.8000X0.3000*%
%ADD21R,0.5200X0.5200*%
%ADD22R,5.6500X6.8000*%
%ADD23R,0.8500X2.0500*%
%ADD24R,0.4500X0.5000*%
%ADD25R,0.5000X0.4500*%
%ADD26R,0.5200X0.5200*%
%ADD27R,0.8500X0.9000*%
%ADD28R,1.2000X1.4000*%
%ADD29R,0.8721X1.0043*%
G04:AMPARAMS|DCode=30|XSize=1.0043mm|YSize=0.8721mm|CornerRadius=0.4361mm|HoleSize=0mm|Usage=FLASHONLY|Rotation=90.000|XOffset=0mm|YOffset=0mm|HoleType=Round|Shape=RoundedRectangle|*
%AMROUNDEDRECTD30*
21,1,1.0043,0.0000,0,0,90.0*
21,1,0.1322,0.8721,0,0,90.0*
1,1,0.8721,0.0000,0.0661*
1,1,0.8721,0.0000,-0.0661*
1,1,0.8721,0.0000,-0.0661*
1,1,0.8721,0.0000,0.0661*
%
%ADD30ROUNDEDRECTD30*%
G04:AMPARAMS|DCode=31|XSize=1.0043mm|YSize=3.1821mm|CornerRadius=0.4369mm|HoleSize=0mm|Usage=FLASHONLY|Rotation=90.000|XOffset=0mm|YOffset=0mm|HoleType=Round|Shape=RoundedRectangle|*
%AMROUNDEDRECTD31*
21,1,1.0043,2.3084,0,0,90.0*
21,1,0.1306,3.1821,0,0,90.0*
1,1,0.8737,1.1542,0.0653*
1,1,0.8737,1.1542,-0.0653*
1,1,0.8737,-1.1542,-0.0653*
1,1,0.8737,-1.1542,0.0653*
%
%ADD31ROUNDEDRECTD31*%
%ADD32R,1.3000X1.7000*%
%ADD33R,1.7000X1.3000*%
%ADD34R,3.3000X1.2500*%
%ADD35R,0.6500X1.5250*%
%ADD57C,3.4000*%
%ADD59C,0.5080*%
%ADD60C,1.2700*%
%ADD61C,0.7620*%
%ADD62C,0.3556*%
%ADD63C,1.6000*%
%ADD64C,1.2690*%
%ADD65C,1.3000*%
%ADD66R,1.3000X1.3000*%
%ADD67R,1.3000X1.3000*%
%ADD68C,1.5000*%
%ADD69R,1.5000X1.5000*%
%ADD70R,1.5000X1.5000*%
%ADD71C,0.4000*%
%ADD72C,0.5000*%
D12*
X644870Y168890D02*
X645180D01*
X649404Y168238D02*
X649683Y167959D01*
X643890Y169870D02*
Y170120D01*
X645832Y168238D02*
X649404D01*
X643890Y169870D02*
X644870Y168890D01*
X645180D02*
X645832Y168238D01*
X995270Y227480D02*
Y235521D01*
X995125Y235665D02*
X995270Y235521D01*
X655000Y77050D02*
Y87950D01*
X628650Y114300D02*
X655000Y87950D01*
X628650Y236600D02*
X629980Y237930D01*
X633411D01*
X635964Y240482D01*
X636359D01*
X631392Y216272D02*
X632067Y216948D01*
X637267D01*
X637547Y217227D01*
X771780Y233680D02*
X772160D01*
X768350Y230250D02*
X771780Y233680D01*
X965200Y368300D02*
X966191Y369291D01*
Y376911D01*
X966470Y377190D01*
X391421Y226339D02*
X391700Y226060D01*
X387961Y226339D02*
X391421D01*
X387350Y226950D02*
X387961Y226339D01*
X445770Y241940D02*
X499953D01*
X391176Y241566D02*
X400268D01*
X469558Y194652D02*
X476003D01*
X463550Y200660D02*
X469558Y194652D01*
X468630Y205821D02*
X469025D01*
X470864Y203982D01*
X401859Y242796D02*
X402109D01*
X403089Y241566D02*
Y241816D01*
X402109Y242796D02*
X403089Y241816D01*
X400547Y243092D02*
X401562D01*
X400268Y243371D02*
X400547Y243092D01*
X401562D02*
X401859Y242796D01*
X289560Y287620D02*
X289814Y287874D01*
X284550Y196921D02*
Y201258D01*
X284621Y201329D01*
X598953Y323850D02*
X636217D01*
X646779Y313288D01*
X577850Y317500D02*
X592603D01*
X598953Y323850D01*
X546100Y327545D02*
Y331920D01*
Y327545D02*
X556145Y317500D01*
X577850D01*
X788050Y114282D02*
X788300D01*
X789280Y113302D01*
Y113052D02*
Y113302D01*
Y113052D02*
X814870Y87462D01*
Y82280D02*
Y87462D01*
Y82280D02*
X820100Y77050D01*
X560260Y211900D02*
X574040Y198120D01*
X539750Y211900D02*
X560260D01*
X499953Y241940D02*
X517543Y224350D01*
X524650D01*
X547562Y237262D02*
X547650Y237350D01*
X547562Y226252D02*
Y237262D01*
X539750Y218440D02*
X547562Y226252D01*
X515989Y219438D02*
X524562D01*
X524650Y219350D01*
X509647Y225781D02*
X515989Y219438D01*
X507009Y225781D02*
X509647D01*
X506730Y226060D02*
X507009Y225781D01*
X567650Y156350D02*
Y177217D01*
X574040Y183607D01*
Y198120D01*
X516835Y133485D02*
Y139645D01*
X516970Y139780D01*
X516700Y133350D02*
X516835Y133485D01*
X605590Y189290D02*
X605650Y189350D01*
X588070Y189290D02*
X605590D01*
X588010Y189230D02*
X588070Y189290D01*
X572562Y237262D02*
X572650Y237350D01*
X572562Y226569D02*
Y237262D01*
X571339Y225346D02*
X572562Y226569D01*
X571339Y224951D02*
Y225346D01*
X560767Y223799D02*
X562650Y225682D01*
X559719Y223520D02*
X559999Y223799D01*
X560767D01*
X562650Y225682D02*
Y237350D01*
X524670Y194330D02*
X560590D01*
X560610Y194310D01*
X548482Y254215D02*
X548740Y253957D01*
X554034Y250550D02*
Y265371D01*
X548482Y254215D02*
Y258808D01*
X548224Y259066D02*
X548482Y258808D01*
X552650Y249166D02*
X554034Y250550D01*
X559565Y248415D02*
Y251181D01*
X557738Y246588D02*
X559565Y248415D01*
X557738Y237438D02*
Y246588D01*
X559565Y251181D02*
X559844Y251460D01*
X557650Y237350D02*
X557738Y237438D01*
X568806Y257180D02*
Y268344D01*
X546100Y273305D02*
X554034Y265371D01*
X565654Y250681D02*
Y253867D01*
X568806Y257180D02*
X570226Y255760D01*
Y252575D02*
X573657Y249144D01*
X565654Y250681D02*
X567562Y248773D01*
X559022Y260499D02*
X565654Y253867D01*
X570226Y252575D02*
Y255760D01*
X559022Y260499D02*
Y264785D01*
X547186Y138557D02*
X551752D01*
X508000Y161100D02*
X514160D01*
X514350Y161290D01*
X497900Y214553D02*
X502980D01*
X508382Y211634D02*
X508661Y211355D01*
X496570Y213219D02*
Y213223D01*
X511278Y217444D02*
X514284Y214438D01*
X496570Y213223D02*
X497900Y214553D01*
X505871Y217444D02*
X511278D01*
X502980Y214553D02*
X505871Y217444D01*
X508661Y211355D02*
X510901D01*
X514284Y214438D02*
X524562D01*
X371650Y289450D02*
X380890D01*
X381000Y289560D01*
X58443Y398757D02*
X66488D01*
X58420Y398780D02*
X58443Y398757D01*
X202774Y368558D02*
X209550Y375334D01*
Y375920D01*
X329768Y367697D02*
X336550Y374479D01*
Y374650D01*
X457200Y368300D02*
X463550Y374650D01*
X464820D01*
X584430Y367809D02*
X589280Y372659D01*
Y373380D01*
X711200Y368300D02*
X712530Y369630D01*
Y373440D01*
X713740Y374650D01*
X838200Y368300D02*
X842010Y372110D01*
Y374650D01*
X812800Y240030D02*
X826580Y226250D01*
X841550D01*
X812800Y240030D02*
Y304800D01*
X771065Y250524D02*
Y250774D01*
X765864Y255974D02*
X771065Y250774D01*
X765864Y255974D02*
Y259026D01*
X765585Y259305D02*
X765864Y259026D01*
X784050Y250509D02*
X784065Y250524D01*
X784050Y232750D02*
Y250509D01*
X787400Y254109D02*
Y304800D01*
X784065Y250774D02*
X787400Y254109D01*
X784065Y250524D02*
Y250774D01*
X841550Y219750D02*
Y226250D01*
X857250Y222250D02*
Y229870D01*
X858520Y231140D01*
X841550Y232750D02*
X842030Y233230D01*
X849180D01*
X850900Y234950D01*
X772500Y148250D02*
X784050D01*
X772160Y148590D02*
X772500Y148250D01*
X773470Y161250D02*
X784050D01*
X773430Y161290D02*
X773470Y161250D01*
X773540Y167750D02*
X784050D01*
X773430Y167640D02*
X773540Y167750D01*
X622457Y114282D02*
X628632D01*
X628650Y114300D01*
X704624Y113483D02*
X710747D01*
X711200Y113030D01*
X532985Y180061D02*
X548361D01*
X548640Y180340D01*
X532275Y179350D02*
X532985Y180061D01*
X524650Y174350D02*
X524738Y174262D01*
X535737D01*
X524650Y179350D02*
X532275D01*
X535737Y174262D02*
X535971Y174028D01*
X508539Y178791D02*
X513315D01*
X512321Y184262D02*
X524562D01*
X513315Y178791D02*
X513787Y179262D01*
X498820Y174010D02*
X503759D01*
X508539Y178791D01*
X497840Y180280D02*
X503563D01*
X511836Y183778D02*
X512321Y184262D01*
X503563Y180280D02*
X507061Y183778D01*
X511836D01*
X605562Y219262D02*
X605650Y219350D01*
X596452Y219262D02*
X605562D01*
X591820Y214630D02*
X596452Y219262D01*
X575370Y258863D02*
Y259080D01*
X573657Y249144D02*
X574429D01*
X576133Y254884D02*
Y258100D01*
Y254884D02*
X576413Y254605D01*
X575370Y258863D02*
X576133Y258100D01*
X574429Y249144D02*
X577562Y246011D01*
Y237438D02*
Y246011D01*
X567562Y237438D02*
Y248773D01*
X582570Y252090D02*
X582870Y252390D01*
Y259080D01*
X587650Y237350D02*
Y249488D01*
X592053Y253891D01*
X582870Y259080D02*
Y267970D01*
X582570Y237350D02*
Y252090D01*
X294269Y300930D02*
X299071Y296128D01*
X287020Y300930D02*
X294269D01*
X314061Y296039D02*
X314150Y295950D01*
X299160Y296039D02*
X314061D01*
X299071Y296128D02*
X299160Y296039D01*
X387350Y249000D02*
X396814D01*
X397115Y249301D02*
X397510D01*
X396814Y249000D02*
X397115Y249301D01*
X371650Y243950D02*
X383699D01*
X384357Y243292D01*
X389450D01*
X391176Y241566D01*
X403089Y234066D02*
Y234316D01*
X404069Y235296D01*
X405520D01*
X412750Y242526D01*
Y251460D01*
X397397Y256341D02*
X407869D01*
X412750Y251460D01*
X387350Y277300D02*
Y277550D01*
X390470Y280670D01*
X392430D01*
X371650Y282950D02*
X380740D01*
X381000Y283210D01*
X371650Y295950D02*
X380960D01*
X381000Y295910D01*
X371650Y308950D02*
X372130Y309430D01*
X380550D01*
X381000Y309880D01*
X501650Y317500D02*
Y323850D01*
X508000Y302200D02*
Y308610D01*
X531420Y279660D02*
X533400Y277680D01*
X523107Y295370D02*
X531420Y287057D01*
X515691Y295370D02*
X523107D01*
X515577Y295256D02*
X515691Y295370D01*
X531420Y279660D02*
Y287057D01*
X507181Y295256D02*
X515577D01*
X520700Y277680D02*
Y289560D01*
X546100Y273305D02*
Y277680D01*
X558800Y265007D02*
X559022Y264785D01*
X552650Y237350D02*
Y249166D01*
X558800Y265007D02*
Y277680D01*
X533400D02*
X546100D01*
X567562Y237438D02*
X567650Y237350D01*
X558800Y331920D02*
X559250Y331470D01*
X566420D01*
X571500Y292100D02*
X577850D01*
X550945Y310000D02*
X577850D01*
X533400Y327545D02*
X550945Y310000D01*
X533400Y327545D02*
Y331920D01*
X577850Y310000D02*
X603491D01*
X606779Y313288D01*
X577850Y299600D02*
Y310000D01*
X546100Y331920D02*
Y345630D01*
X547180Y346710D01*
X547430D01*
X856803Y159002D02*
X867788D01*
X870129Y161342D01*
Y161592D01*
X841550Y161250D02*
X854554D01*
X856803Y159002D01*
X850624Y142050D02*
X857250D01*
X846530Y146144D02*
X850624Y142050D01*
X841550Y148250D02*
X846050D01*
X846530Y147770D01*
Y146144D02*
Y147770D01*
X841550Y154750D02*
X851610D01*
X854980Y151380D01*
X855920D01*
X857250Y150050D01*
X929640Y114300D02*
Y119190D01*
X896620Y113030D02*
Y124940D01*
X886460Y114300D02*
Y119960D01*
X885190Y113030D02*
X886460Y114300D01*
X891440Y124940D02*
X896620D01*
X886460Y119960D02*
X891440Y124940D01*
X892810Y276380D02*
X896620Y272570D01*
X892810Y276380D02*
Y290830D01*
X886370Y272570D02*
X896620D01*
X881390Y277550D02*
X886370Y272570D01*
X881390Y277550D02*
Y290820D01*
X881380Y290830D02*
X881390Y290820D01*
X975769Y269649D02*
Y281131D01*
X975360Y269240D02*
X975769Y269649D01*
X1000500Y222250D02*
X1002500D01*
X995270Y227480D02*
X1000500Y222250D01*
X999450Y246450D02*
Y256500D01*
X999490Y256540D01*
X304693Y302450D02*
X314150D01*
X299073Y308070D02*
X304693Y302450D01*
X299073Y316070D02*
X305483D01*
X309170Y312383D01*
Y309430D02*
Y312383D01*
Y309430D02*
X309650Y308950D01*
X314150D01*
Y230950D02*
X333792D01*
X330200Y152400D02*
Y189764D01*
X335280Y194844D01*
Y229462D01*
X333792Y230950D02*
X335280Y229462D01*
X314150Y230950D02*
Y237450D01*
X298450Y196850D02*
X304800D01*
X298347Y229973D02*
Y235631D01*
Y229973D02*
X298450Y229870D01*
X313670Y223970D02*
X314150Y224450D01*
X305250Y223970D02*
X313670D01*
X304800Y223520D02*
X305250Y223970D01*
X355600Y152400D02*
X371122Y167922D01*
Y204999D01*
Y223970D01*
X371602Y224450D01*
X371650D01*
X358122Y204999D02*
X358140Y204980D01*
Y196850D02*
Y204980D01*
X474673Y203982D02*
X476003Y202652D01*
X470864Y203982D02*
X474673D01*
X495300Y189230D02*
X495504Y189026D01*
X500475D02*
X500679Y188822D01*
X495504Y189026D02*
X500475D01*
X600788Y135412D02*
X600874Y135497D01*
X594605Y135412D02*
X600788D01*
X593813Y134620D02*
X594605Y135412D01*
X586990Y134620D02*
X593813D01*
X586722Y142240D02*
X588978Y139984D01*
X603847Y142240D02*
X612197Y133890D01*
X590871Y144556D02*
X594429D01*
X587738Y147689D02*
X590871Y144556D01*
X584200Y142240D02*
X586722D01*
X597573Y147700D02*
X622300D01*
X596322Y139984D02*
X598578Y142240D01*
X588978Y139984D02*
X596322D01*
X594429Y144556D02*
X597573Y147700D01*
X598578Y142240D02*
X603847D01*
X567650Y130850D02*
X572397Y126103D01*
X567650Y130850D02*
Y156350D01*
X572397Y126103D02*
X596014D01*
X569487Y109964D02*
Y117975D01*
X562356Y125106D02*
X569487Y117975D01*
X562356Y125106D02*
Y143222D01*
X582650Y156350D02*
X582738Y156262D01*
Y143702D02*
Y156262D01*
Y143702D02*
X584200Y142240D01*
X587738Y147689D02*
Y156262D01*
X596014Y126103D02*
X596254Y125863D01*
X612197Y133890D02*
X613552D01*
X615040Y132402D01*
Y126369D02*
Y132402D01*
X614680Y139700D02*
X622300D01*
X614957Y114282D02*
X614998Y114324D01*
Y126328D01*
X615040Y126369D01*
X614978Y77071D02*
X615000Y77050D01*
X614978Y77071D02*
Y114261D01*
X614957Y114282D02*
X614978Y114261D01*
X603994Y112510D02*
X604257Y112773D01*
Y116577D01*
X604520Y116840D01*
X577486Y117975D02*
X578508Y116954D01*
X581880D01*
X582160Y116674D01*
X596254Y112750D02*
X596494Y112510D01*
X596254Y112750D02*
Y125863D01*
X468536Y47461D02*
X470536D01*
X475766Y52691D01*
Y76566D02*
X476250Y77050D01*
X547003Y138741D02*
X547186Y138557D01*
X573650Y71550D02*
X582090D01*
X590550Y80010D01*
Y100330D01*
X574040Y105410D02*
X585470D01*
X590550Y100330D01*
X569487Y109964D02*
X574040Y105410D01*
X562650Y143516D02*
Y156350D01*
X562356Y143222D02*
X562650Y143516D01*
X557040Y93940D02*
Y117768D01*
X556650Y93550D02*
X557040Y93940D01*
X557562Y156262D02*
X557650Y156350D01*
X557562Y118290D02*
Y156262D01*
X557040Y117768D02*
X557562Y118290D01*
X556650Y61350D02*
Y71550D01*
X556260Y60960D02*
X556650Y61350D01*
X573650Y93550D02*
X578300Y88900D01*
X582930D01*
X542562Y156262D02*
X542650Y156350D01*
X540066Y144801D02*
X542562Y147296D01*
Y156262D01*
X539386Y138624D02*
X540066Y139305D01*
X547003Y138741D02*
X547650Y139388D01*
Y156350D01*
X540066Y139305D02*
Y144801D01*
X539270Y130086D02*
X539386Y130202D01*
Y138624D01*
X539270Y122336D02*
Y122586D01*
X534670Y117736D02*
X539270Y122336D01*
X534670Y116840D02*
Y117736D01*
X545572Y114300D02*
X549040Y117768D01*
X543560Y114300D02*
X545572D01*
X572650Y156350D02*
X572738Y156438D01*
Y165011D01*
X580447Y172720D01*
X582930D01*
X623040Y126369D02*
X623670Y127000D01*
X629920D01*
X604014Y126103D02*
X605344Y127433D01*
Y131239D01*
X605790Y131685D01*
Y132080D01*
X697124Y113483D02*
X697337Y113270D01*
Y77263D02*
Y113270D01*
Y77263D02*
X697550Y77050D01*
X622300Y147700D02*
X662657D01*
X696874Y113483D01*
X697124D01*
X587650Y156350D02*
X587738Y156262D01*
X780325Y114057D02*
X780550Y114282D01*
X780325Y77275D02*
Y114057D01*
X780100Y77050D02*
X780325Y77275D01*
X738372Y156210D02*
X780300Y114282D01*
X626110Y156210D02*
X738372D01*
X592650Y156350D02*
X625970D01*
X626110Y156210D01*
X617094Y198895D02*
X620620D01*
X605650Y199350D02*
X616639D01*
X617094Y198895D01*
X620620D02*
X621562Y197953D01*
X618988Y203467D02*
X625803D01*
X618105Y204350D02*
X618988Y203467D01*
X616641Y194262D02*
X617818Y193085D01*
X618213D01*
X621562Y197953D02*
X625960D01*
X605738Y194262D02*
X616641D01*
X767080Y175260D02*
Y179692D01*
X767288Y179900D01*
X783920Y174120D02*
X784050Y174250D01*
X774830Y174120D02*
X783920D01*
X774700Y173990D02*
X774830Y174120D01*
X767288Y187400D02*
X767719Y186969D01*
X773151D01*
X773430Y186690D01*
X783570Y186770D02*
X784050Y187250D01*
X778110Y186770D02*
X783570D01*
X778030Y186690D02*
X778110Y186770D01*
X773430Y186690D02*
X778030D01*
X630847Y186115D02*
Y186365D01*
Y186115D02*
X631827Y185135D01*
X635338D01*
X636120Y184353D01*
X636515D01*
X625960Y197953D02*
X626239Y197673D01*
X625819Y203483D02*
X627980D01*
X625803Y203467D02*
X625819Y203483D01*
X605650Y194350D02*
X605738Y194262D01*
X605650Y204350D02*
X618105D01*
X622890Y187512D02*
X624315D01*
X625803Y189000D01*
Y190022D02*
X627440Y191659D01*
X625803Y189000D02*
Y190022D01*
X627440Y191659D02*
X632349D01*
X621910Y186532D02*
X622890Y187512D01*
X757226Y194458D02*
X778842D01*
X779550Y193750D01*
X784050D01*
X757073Y194305D02*
X757226Y194458D01*
X757073Y188113D02*
Y194305D01*
X756920Y187960D02*
X757073Y188113D01*
X630075Y203478D02*
X631821Y201732D01*
X632216D01*
X627985Y203478D02*
X630075D01*
X627980Y203483D02*
X627985Y203478D01*
X662940Y202257D02*
Y211933D01*
X663084Y212077D01*
X524650Y194350D02*
X524670Y194330D01*
X524562Y194262D02*
X524650Y194350D01*
X632349Y191659D02*
X645881Y205191D01*
X648970Y211719D02*
Y212114D01*
X645881Y205191D02*
Y208630D01*
X648970Y211719D01*
X783749Y212949D02*
X784050Y213250D01*
X773672Y212949D02*
X783749D01*
X773392Y212670D02*
X773672Y212949D01*
X762000Y208280D02*
X766779D01*
X767288Y207771D01*
X783845Y200455D02*
X784050Y200250D01*
X773635Y200455D02*
X783845D01*
X773430Y200660D02*
X773635Y200455D01*
X767288Y200271D02*
X767483Y200465D01*
X773235D01*
X773430Y200660D01*
X630951Y170268D02*
X662940Y202257D01*
X621910Y170268D02*
X630951D01*
X621952Y162726D02*
X643890D01*
X617641Y174350D02*
X620492Y171498D01*
X605650Y174350D02*
X617641D01*
X387350Y269800D02*
Y270050D01*
X388330Y271030D01*
X388580D01*
X389330Y271780D01*
X396240D01*
X371650Y269950D02*
X371725Y269875D01*
X387275D01*
X387350Y269800D01*
X397397Y263841D02*
X397557Y264001D01*
X404971D01*
X405130Y264160D01*
X371650Y263450D02*
X371846Y263646D01*
X397202D01*
X397397Y263841D01*
X382270Y256725D02*
X387125D01*
X371875D02*
X382270D01*
X371650Y256950D02*
X371875Y256725D01*
X387125D02*
X387350Y256500D01*
X513787Y179262D02*
X524562D01*
X524650Y179350D01*
X510901Y211355D02*
X512906Y209350D01*
X524562Y214438D02*
X524650Y214350D01*
X512906Y209350D02*
X524650D01*
X465038Y213219D02*
X496570D01*
X503710Y205824D02*
X509966D01*
X511440Y204350D01*
X524650D01*
X507762Y199350D02*
X524650D01*
X507101Y200011D02*
X507762Y199350D01*
X506706Y200011D02*
X507101D01*
X489965Y194652D02*
X492163Y196850D01*
X501650D02*
X504299Y194201D01*
X492163Y196850D02*
X501650D01*
X504299Y194201D02*
X514897D01*
X476003Y194652D02*
X489965D01*
X514958Y194262D02*
X524562D01*
X514897Y194201D02*
X514958Y194262D01*
X489248Y206039D02*
X496081D01*
X488968Y206318D02*
X489248Y206039D01*
X496081D02*
X496570Y205550D01*
X442504Y113756D02*
X448672D01*
X441960Y114300D02*
X442504Y113756D01*
X456172D02*
X456211Y113717D01*
Y77089D02*
Y113717D01*
Y77089D02*
X456250Y77050D01*
X456172Y113756D02*
Y204354D01*
X465038Y213219D01*
X488408Y172720D02*
X488472Y172784D01*
X482600Y172720D02*
X488408D01*
X508179Y188822D02*
X508619Y189262D01*
X524562D01*
X524650Y189350D01*
X524562Y184262D02*
X524650Y184350D01*
X488472Y180284D02*
X488474Y180282D01*
X497838D01*
X497840Y180280D01*
X251370Y189710D02*
X261620D01*
X246390Y184730D02*
X251370Y189710D01*
X246390Y179080D02*
Y184730D01*
X246380Y179070D02*
X246390Y179080D01*
X257810Y179070D02*
Y185900D01*
X261620Y189710D01*
X121920Y343123D02*
Y347980D01*
X116974Y338426D02*
X117224D01*
X121920Y343123D01*
X143450Y348040D02*
Y360800D01*
Y348040D02*
X143510Y347980D01*
X132050Y348010D02*
Y360800D01*
Y348010D02*
X132080Y347980D01*
X143450Y360800D02*
Y374590D01*
X143510Y374650D01*
X132050Y360800D02*
Y374620D01*
X132080Y374650D01*
X215900Y347980D02*
X222312Y341568D01*
X215900Y347980D02*
Y348170D01*
X222312Y341568D02*
X228783D01*
X261620Y336070D02*
X265530D01*
X270510Y341050D01*
Y347980D01*
X261620Y336070D02*
Y345440D01*
X259080Y347980D02*
X261620Y345440D01*
X270450Y348040D02*
Y360800D01*
Y348040D02*
X270510Y347980D01*
X259050Y360800D02*
X259080Y360770D01*
Y347980D02*
Y360770D01*
X270450Y360800D02*
X270510Y360860D01*
Y374650D01*
X259050Y360800D02*
X259080Y360830D01*
Y374650D01*
X370312Y341176D02*
X370766Y341630D01*
X375920D01*
X386080Y346710D02*
Y360770D01*
X386050Y360800D02*
X386080Y360770D01*
X386050Y360800D02*
X386080Y360830D01*
Y374650D01*
X397450Y360800D02*
X397510Y360740D01*
Y346710D02*
Y360740D01*
X397450Y360800D02*
Y374590D01*
X397510Y374650D01*
X521970Y347980D02*
Y358320D01*
X524510Y360860D01*
X481807Y340360D02*
X482595Y341148D01*
X477520Y340360D02*
X481807D01*
X513050Y348010D02*
Y360800D01*
Y348010D02*
X513080Y347980D01*
X513050Y360800D02*
X513080Y360830D01*
Y374650D01*
X524510Y360860D02*
Y374650D01*
X748940Y339564D02*
X749177Y339327D01*
X755413D01*
X755650Y339090D01*
X767050Y348010D02*
Y360800D01*
Y348010D02*
X767080Y347980D01*
X767050Y360800D02*
X767080Y360830D01*
Y374650D01*
X778450Y360800D02*
X778510Y360740D01*
Y347980D02*
Y360740D01*
X778450Y360800D02*
Y374590D01*
X778510Y374650D01*
X882764Y335393D02*
Y340805D01*
X882650Y335280D02*
X882764Y335393D01*
X894050Y360800D02*
X894080Y360770D01*
Y346710D02*
Y360770D01*
X894050Y360800D02*
X894080Y360830D01*
Y374650D01*
X905450Y360800D02*
X905510Y360740D01*
Y346710D02*
Y360740D01*
X905450Y360800D02*
Y374590D01*
X905510Y374650D01*
X1005895Y341181D02*
X1006436Y340639D01*
X1011911D01*
X1012190Y340360D01*
X1021050Y346740D02*
Y360800D01*
Y346740D02*
X1021080Y346710D01*
X1021050Y360800D02*
Y374620D01*
X1021080Y374650D01*
X1032450Y360800D02*
X1032510Y360740D01*
Y346710D02*
Y360740D01*
X1032450Y360800D02*
Y374590D01*
X1032510Y374650D01*
X621910Y162768D02*
X621952Y162726D01*
X605650Y169350D02*
X613026D01*
X613238Y169137D01*
Y165381D02*
Y169137D01*
Y165381D02*
X615850Y162768D01*
X621910D01*
X741440Y334250D02*
Y339564D01*
Y334250D02*
X741680Y334010D01*
X991049Y341181D02*
X998395D01*
X990600Y341630D02*
X991049Y341181D01*
X998250Y360800D02*
X998395Y360655D01*
Y341181D02*
Y360655D01*
X621910Y178782D02*
X621952Y178823D01*
X630805D01*
X630847Y178865D01*
X605650Y179350D02*
X605738Y179262D01*
X621430D01*
X621910Y178782D01*
X620930Y185182D02*
X621910Y186162D01*
X605650Y184350D02*
X617120D01*
X617952Y185182D01*
X620930D01*
X621910Y186162D02*
Y186532D01*
X875264Y334244D02*
Y340805D01*
X875030Y334010D02*
X875264Y334244D01*
X871250Y344568D02*
Y360800D01*
Y344568D02*
X875014Y340805D01*
X875264D01*
X537650Y237350D02*
Y244305D01*
X537438Y244517D02*
X537650Y244305D01*
X534888Y244517D02*
X537438D01*
X533400Y246005D02*
X534888Y244517D01*
X533400Y246005D02*
Y254000D01*
X541252Y248070D02*
Y262544D01*
Y248070D02*
X542562Y246760D01*
Y237438D02*
Y246760D01*
Y237438D02*
X542650Y237350D01*
X577562Y237438D02*
X577650Y237350D01*
X621806Y209350D02*
X622396Y208761D01*
X605650Y209350D02*
X621806D01*
X622396Y208761D02*
X622401Y208767D01*
X631386D01*
X631392Y208772D01*
X605650Y214350D02*
X605738Y214438D01*
X617022D02*
X618056Y215473D01*
X618452D01*
X605738Y214438D02*
X617022D01*
X618791Y214629D02*
X620764D01*
X622396Y216011D02*
Y216261D01*
X621415Y215031D02*
X622396Y216011D01*
X621166Y215031D02*
X621415D01*
X620764Y214629D02*
X621166Y215031D01*
X744250Y346740D02*
Y360800D01*
X742670Y345160D02*
X744250Y346740D01*
X742670Y340544D02*
Y345160D01*
X651450Y348040D02*
Y360800D01*
Y348040D02*
X651510Y347980D01*
X651450Y360800D02*
X651510Y360860D01*
Y373380D01*
X640050Y360800D02*
X640080Y360830D01*
Y373380D01*
Y351820D02*
X643030D01*
X640080Y347980D02*
Y351820D01*
X640050Y354800D02*
X643030Y351820D01*
X640050Y354800D02*
Y360800D01*
X624996Y341355D02*
X625152Y341511D01*
X624996Y335436D02*
Y341355D01*
X624840Y335280D02*
X624996Y335436D01*
X592053Y253891D02*
Y260117D01*
X591820Y260350D02*
X592053Y260117D01*
X617652Y335712D02*
Y341511D01*
X617220Y335280D02*
X617652Y335712D01*
X617250Y360800D02*
X617652Y360398D01*
Y341511D02*
Y360398D01*
X607136Y262816D02*
X607212Y262740D01*
X607136Y262816D02*
Y267894D01*
X607060Y267970D02*
X607136Y267894D01*
X599787Y244187D02*
Y253875D01*
X594360Y238760D02*
X599787Y244187D01*
X599712Y262740D02*
X599749Y262703D01*
Y253912D02*
Y262703D01*
Y253912D02*
X599787Y253875D01*
X575183Y268157D02*
X575370Y267970D01*
X568993Y268157D02*
X575183D01*
X568806Y268344D02*
X568993Y268157D01*
X490095Y341148D02*
X490702Y341755D01*
X496392D01*
X496671Y342035D01*
X490095Y341148D02*
Y360645D01*
X490250Y360800D01*
X533576Y262367D02*
X533752Y262544D01*
X533576Y254176D02*
Y262367D01*
X533400Y254000D02*
X533576Y254176D01*
X363220Y336550D02*
Y340768D01*
X362812Y341176D02*
X363220Y340768D01*
X362812Y360362D02*
X363250Y360800D01*
X362812Y341176D02*
Y360362D01*
X236283Y326453D02*
Y360767D01*
X236220Y326390D02*
X236283Y326453D01*
X497840Y172780D02*
Y173030D01*
X498820Y174010D01*
X516776Y169100D02*
X517025Y169350D01*
X508000Y169100D02*
X516776D01*
X236250Y360800D02*
X236283Y360767D01*
X109474Y325374D02*
Y338426D01*
X109220Y325120D02*
X109474Y325374D01*
Y338426D02*
Y360576D01*
X109250Y360800D02*
X109474Y360576D01*
X577562Y156262D02*
X577650Y156350D01*
X577562Y137971D02*
Y156262D01*
X577153Y137561D02*
X577562Y137971D01*
X499110Y161361D02*
X505519Y167770D01*
X506670D02*
X508000Y169100D01*
X505519Y167770D02*
X506670D01*
X517025Y169350D02*
X524650D01*
X537650Y148850D02*
Y156350D01*
X531796Y142996D02*
X537650Y148850D01*
X531796Y140446D02*
Y142996D01*
X524700Y133350D02*
X531796Y140446D01*
X624400Y224350D02*
X628650Y228600D01*
X605650Y224350D02*
X624400D01*
D17*
X812800Y190500D02*
D03*
X342900Y266700D02*
D03*
D18*
X784050Y232750D02*
D03*
Y226250D02*
D03*
Y219750D02*
D03*
Y213250D02*
D03*
Y206750D02*
D03*
Y200250D02*
D03*
Y193750D02*
D03*
Y187250D02*
D03*
Y180750D02*
D03*
Y174250D02*
D03*
Y167750D02*
D03*
Y161250D02*
D03*
Y154750D02*
D03*
Y148250D02*
D03*
X841550Y232750D02*
D03*
Y226250D02*
D03*
Y219750D02*
D03*
Y213250D02*
D03*
Y206750D02*
D03*
Y200250D02*
D03*
Y193750D02*
D03*
Y187250D02*
D03*
Y180750D02*
D03*
Y174250D02*
D03*
Y167750D02*
D03*
Y161250D02*
D03*
Y154750D02*
D03*
Y148250D02*
D03*
X314150Y308950D02*
D03*
Y302450D02*
D03*
Y295950D02*
D03*
Y289450D02*
D03*
Y282950D02*
D03*
Y276450D02*
D03*
Y269950D02*
D03*
Y263450D02*
D03*
Y256950D02*
D03*
Y250450D02*
D03*
Y243950D02*
D03*
Y237450D02*
D03*
Y230950D02*
D03*
Y224450D02*
D03*
X371650Y308950D02*
D03*
Y302450D02*
D03*
Y295950D02*
D03*
Y289450D02*
D03*
Y282950D02*
D03*
Y276450D02*
D03*
Y269950D02*
D03*
Y263450D02*
D03*
Y256950D02*
D03*
Y250450D02*
D03*
Y243950D02*
D03*
Y237450D02*
D03*
Y230950D02*
D03*
Y224450D02*
D03*
D19*
X537650Y156350D02*
D03*
X542650D02*
D03*
X547650D02*
D03*
X552650D02*
D03*
X557650D02*
D03*
X562650D02*
D03*
X567650D02*
D03*
X572650D02*
D03*
X577650D02*
D03*
X582650D02*
D03*
X587650D02*
D03*
X592650D02*
D03*
Y237350D02*
D03*
X587650D02*
D03*
X582650D02*
D03*
X577650D02*
D03*
X572650D02*
D03*
X567650D02*
D03*
X562650D02*
D03*
X557650D02*
D03*
X552650D02*
D03*
X547650D02*
D03*
X542650D02*
D03*
X537650D02*
D03*
D20*
X605650Y169350D02*
D03*
Y174350D02*
D03*
Y179350D02*
D03*
Y184350D02*
D03*
Y189350D02*
D03*
Y194350D02*
D03*
Y199350D02*
D03*
Y204350D02*
D03*
Y209350D02*
D03*
Y214350D02*
D03*
Y219350D02*
D03*
Y224350D02*
D03*
X524650D02*
D03*
Y219350D02*
D03*
Y214350D02*
D03*
Y209350D02*
D03*
Y204350D02*
D03*
Y199350D02*
D03*
Y194350D02*
D03*
Y189350D02*
D03*
Y184350D02*
D03*
Y179350D02*
D03*
Y174350D02*
D03*
Y169350D02*
D03*
D21*
X929640Y127190D02*
D03*
Y119190D02*
D03*
X299071Y288128D02*
D03*
Y296128D02*
D03*
X476003Y194652D02*
D03*
Y202652D02*
D03*
X857250Y150050D02*
D03*
Y142050D02*
D03*
X856803Y167001D02*
D03*
Y159002D02*
D03*
X496570Y213550D02*
D03*
Y205550D02*
D03*
X622300Y147700D02*
D03*
Y139700D02*
D03*
X299073Y308070D02*
D03*
Y316070D02*
D03*
X508000Y161100D02*
D03*
Y169100D02*
D03*
X628650Y236600D02*
D03*
Y228600D02*
D03*
X298347Y235631D02*
D03*
Y243631D02*
D03*
X857250Y222250D02*
D03*
Y214250D02*
D03*
X768350Y222250D02*
D03*
Y230250D02*
D03*
X387350Y234950D02*
D03*
Y226950D02*
D03*
X501650Y331850D02*
D03*
Y323850D02*
D03*
X329768Y359697D02*
D03*
Y367697D02*
D03*
X202774Y368558D02*
D03*
Y360558D02*
D03*
X965200Y368300D02*
D03*
Y360300D02*
D03*
X838200Y368300D02*
D03*
Y360300D02*
D03*
X711200Y368300D02*
D03*
Y360300D02*
D03*
X584430Y367809D02*
D03*
Y359809D02*
D03*
X457200Y368300D02*
D03*
Y360300D02*
D03*
D22*
X247650Y431800D02*
D03*
X755650D02*
D03*
X628650D02*
D03*
X1009650D02*
D03*
X882650D02*
D03*
X120650D02*
D03*
X501650D02*
D03*
X374650D02*
D03*
D23*
X270450Y360800D02*
D03*
X259050D02*
D03*
X236250D02*
D03*
X224850D02*
D03*
X778450D02*
D03*
X767050D02*
D03*
X744250D02*
D03*
X732850D02*
D03*
X651450D02*
D03*
X640050D02*
D03*
X617250D02*
D03*
X605850D02*
D03*
X1032450D02*
D03*
X1021050D02*
D03*
X998250D02*
D03*
X986850D02*
D03*
X859850D02*
D03*
X871250D02*
D03*
X894050D02*
D03*
X905450D02*
D03*
X97850D02*
D03*
X109250D02*
D03*
X132050D02*
D03*
X143450D02*
D03*
X478850D02*
D03*
X490250D02*
D03*
X513050D02*
D03*
X524450D02*
D03*
X351850D02*
D03*
X363250D02*
D03*
X386050D02*
D03*
X397450D02*
D03*
D24*
X577850Y299600D02*
D03*
Y292100D02*
D03*
Y317500D02*
D03*
Y310000D02*
D03*
X508000Y302200D02*
D03*
Y294700D02*
D03*
X757226Y194458D02*
D03*
Y201958D02*
D03*
X767288Y187400D02*
D03*
Y179900D02*
D03*
Y200271D02*
D03*
Y207771D02*
D03*
X403089Y241566D02*
D03*
Y234066D02*
D03*
X631392Y216272D02*
D03*
Y208772D02*
D03*
X630847Y186365D02*
D03*
Y178865D02*
D03*
X643890Y170120D02*
D03*
Y162620D02*
D03*
X622396Y208761D02*
D03*
Y216261D02*
D03*
X397397Y263841D02*
D03*
Y256341D02*
D03*
X387350Y269800D02*
D03*
Y277300D02*
D03*
Y256500D02*
D03*
Y249000D02*
D03*
X497840Y180280D02*
D03*
Y172780D02*
D03*
X539270Y122586D02*
D03*
Y130086D02*
D03*
X488472Y172784D02*
D03*
Y180284D02*
D03*
X870129Y161592D02*
D03*
Y169092D02*
D03*
X287020Y300930D02*
D03*
Y293430D02*
D03*
X621910Y186282D02*
D03*
Y178782D02*
D03*
Y170268D02*
D03*
Y162768D02*
D03*
D25*
X748940Y339564D02*
D03*
X741440D02*
D03*
X625152Y341511D02*
D03*
X617652D02*
D03*
X882764Y340805D02*
D03*
X875264D02*
D03*
X1005895Y341181D02*
D03*
X998395D02*
D03*
X539930Y346710D02*
D03*
X547430D02*
D03*
X780550Y114282D02*
D03*
X788050D02*
D03*
X482595Y341148D02*
D03*
X490095D02*
D03*
X607212Y262740D02*
D03*
X599712D02*
D03*
X448672Y113756D02*
D03*
X456172D02*
D03*
X599787Y253875D02*
D03*
X592287D02*
D03*
X116974Y338426D02*
D03*
X109474D02*
D03*
X582870Y267970D02*
D03*
X575370D02*
D03*
X704624Y113483D02*
D03*
X697124D02*
D03*
X547003Y138741D02*
D03*
X539503D02*
D03*
X500679Y188822D02*
D03*
X508179D02*
D03*
X533752Y262544D02*
D03*
X541252D02*
D03*
X603994Y112510D02*
D03*
X596494D02*
D03*
X548740Y253957D02*
D03*
X541240D02*
D03*
X575370Y259080D02*
D03*
X582870D02*
D03*
X370312Y341176D02*
D03*
X362812D02*
D03*
X228783Y341568D02*
D03*
X236283D02*
D03*
X622457Y114282D02*
D03*
X614957D02*
D03*
D26*
X596014Y126103D02*
D03*
X604014D02*
D03*
X615040Y126369D02*
D03*
X623040D02*
D03*
X569487Y117975D02*
D03*
X577486D02*
D03*
X549040Y117768D02*
D03*
X557040D02*
D03*
X516700Y133350D02*
D03*
X524700D02*
D03*
X585660Y134620D02*
D03*
X577660D02*
D03*
X298450Y196850D02*
D03*
X290450D02*
D03*
X66488Y398757D02*
D03*
X74488D02*
D03*
D27*
X358122Y204999D02*
D03*
X371122D02*
D03*
X771065Y250524D02*
D03*
X784065D02*
D03*
D28*
X556650Y71550D02*
D03*
Y93550D02*
D03*
X573650D02*
D03*
Y71550D02*
D03*
D29*
X999450Y246450D02*
D03*
D30*
X1022350D02*
D03*
X1045250D02*
D03*
D31*
X1022350Y312350D02*
D03*
D32*
X975769Y281131D02*
D03*
Y308131D02*
D03*
D33*
X1002500Y222250D02*
D03*
X1029500D02*
D03*
X792892Y46424D02*
D03*
X819892D02*
D03*
X628096Y46645D02*
D03*
X655096D02*
D03*
X711110Y46438D02*
D03*
X738110D02*
D03*
X468536Y47461D02*
D03*
X495536D02*
D03*
D34*
X261620Y336070D02*
D03*
Y276070D02*
D03*
Y189710D02*
D03*
Y249710D02*
D03*
X896620Y272570D02*
D03*
Y212570D02*
D03*
Y124940D02*
D03*
Y184940D02*
D03*
D35*
X520700Y331920D02*
D03*
X533400D02*
D03*
X546100D02*
D03*
X558800D02*
D03*
Y277680D02*
D03*
X546100D02*
D03*
X533400D02*
D03*
X520700D02*
D03*
D57*
X717550Y285750D02*
D03*
X895350Y57150D02*
D03*
X920750Y304800D02*
D03*
X50800Y158750D02*
D03*
Y342900D02*
D03*
X349250Y57150D02*
D03*
D59*
X295910Y287620D02*
X296358Y288068D01*
X299011D02*
X300393Y289450D01*
X296358Y288068D02*
X299011D01*
X628650Y228600D02*
X636810D01*
X403089Y227829D02*
Y234066D01*
X402590Y227330D02*
X403089Y227829D01*
X284621Y196850D02*
X290450D01*
X287020Y290160D02*
Y293430D01*
Y290160D02*
X289560Y287620D01*
X528320Y128270D02*
Y129730D01*
X524700Y133350D02*
X528320Y129730D01*
X573492Y134219D02*
X573833Y134560D01*
X577600D01*
X577660Y134620D01*
X750570Y199930D02*
X752598Y201958D01*
X757226D01*
X929640Y127190D02*
Y133350D01*
X870129Y169092D02*
X870311Y168910D01*
X873760D01*
X298347Y243631D02*
X298407Y243571D01*
X300015D01*
X300322Y243264D01*
X310440D01*
X295566Y243571D02*
X298287D01*
X298347Y243631D01*
X294625Y242630D02*
X295566Y243571D01*
X841550Y167750D02*
X856054D01*
X856803Y167001D01*
X863623Y169092D02*
X870129D01*
X856803Y167001D02*
X856863Y167062D01*
X861593D01*
X863623Y169092D01*
X857310Y214310D02*
X862010D01*
X841550Y213250D02*
X842236Y213936D01*
X849500Y214250D02*
X857250D01*
X842236Y213936D02*
X849186D01*
X849500Y214250D01*
X387350Y234890D02*
X389018D01*
X520700Y331920D02*
Y336295D01*
X531115Y346710D01*
X539930D01*
X784050Y219750D02*
Y226250D01*
X768530Y222190D02*
X770970Y219750D01*
X784050D01*
X755650Y222250D02*
X768350D01*
X371650Y230950D02*
Y237450D01*
X397625Y234835D02*
X398394Y234066D01*
X371650Y237450D02*
X384735D01*
X387175Y235010D01*
X389073Y234835D02*
X397625D01*
X389018Y234890D02*
X389073Y234835D01*
X398394Y234066D02*
X403089D01*
X300393Y289450D02*
X314150D01*
X857250Y214250D02*
X857310Y214310D01*
D60*
X1027650Y165950D02*
Y222100D01*
X1027800Y222250D01*
X1029500D01*
X968165Y311165D02*
X969049Y310281D01*
X958850Y311150D02*
X962642D01*
X969049Y310281D02*
X975619D01*
X975769Y310131D01*
Y308131D02*
Y310131D01*
X951650Y428150D02*
X1006000D01*
X1009650Y431800D01*
X824650Y428150D02*
X879000D01*
X882650Y431800D01*
X697650Y428150D02*
X752000D01*
X755650Y431800D01*
X570650Y428150D02*
X625000D01*
X628650Y431800D01*
X443650Y428150D02*
X498000D01*
X501650Y431800D01*
X316650Y428150D02*
X371000D01*
X374650Y431800D01*
X189650Y428150D02*
X244000D01*
X247650Y431800D01*
X62650Y428150D02*
X117000D01*
X120650Y431800D01*
X975769Y308131D02*
X1009899D01*
X1014118Y312350D01*
X1022350D01*
Y246450D02*
Y312350D01*
X1031500Y222250D02*
X1045250Y236000D01*
Y246450D01*
D61*
X628096Y46645D02*
Y68690D01*
X635000Y75594D01*
Y77050D01*
X792892Y46424D02*
Y68386D01*
X800100Y75594D01*
Y77050D01*
X711110Y46438D02*
Y69154D01*
X717550Y75594D01*
Y77050D01*
X475766Y52691D02*
Y76566D01*
X494480Y331920D02*
X520700D01*
X494030Y331470D02*
X494480Y331920D01*
X819892Y46424D02*
X836226D01*
X838200Y44450D01*
X819996Y76946D02*
X820100Y77050D01*
X819996Y46528D02*
Y76946D01*
X819892Y46424D02*
X819996Y46528D01*
X738110Y46438D02*
X753662D01*
X755650Y44450D01*
X737550Y77050D02*
X737830Y76770D01*
Y46718D02*
Y76770D01*
Y46718D02*
X738110Y46438D01*
X655096Y46645D02*
X670905D01*
X673100Y44450D01*
X655000Y77050D02*
X655048Y77002D01*
Y46693D02*
Y77002D01*
Y46693D02*
X655096Y46645D01*
X495536Y47461D02*
X495893Y47818D01*
Y76693D01*
X496250Y77050D01*
X495536Y47461D02*
X498226Y44771D01*
X507679D01*
X508000Y44450D01*
X48800Y422413D02*
X58223Y412990D01*
X64999D01*
X74422Y403567D01*
X48800Y434300D02*
X62650Y448150D01*
X74422Y398823D02*
Y403567D01*
X48800Y422413D02*
Y434300D01*
X74422Y398823D02*
X74488Y398757D01*
X97850Y360800D02*
Y366800D01*
X74488Y390162D02*
X97850Y366800D01*
X74488Y390162D02*
Y398757D01*
X175800Y382789D02*
Y434300D01*
Y382789D02*
X198031Y360558D01*
X175800Y434300D02*
X189650Y448150D01*
X198031Y360558D02*
X202774D01*
X209170Y360800D02*
X224850D01*
X208928Y360558D02*
X209170Y360800D01*
X202774Y360558D02*
X208928D01*
X302800Y381921D02*
Y434300D01*
X316650Y448150D01*
X324958Y359763D02*
X329702D01*
X329768Y359697D01*
X302800Y381921D02*
X324958Y359763D01*
X336170Y360800D02*
X351850D01*
X335067Y359697D02*
X336170Y360800D01*
X329768Y359697D02*
X335067D01*
X429800Y434300D02*
X443650Y448150D01*
X429800Y382957D02*
Y434300D01*
Y382957D02*
X452391Y360366D01*
X457134D01*
X457200Y360300D01*
X463170Y360800D02*
X478850D01*
X462670Y360300D02*
X463170Y360800D01*
X457200Y360300D02*
X462670D01*
X556800Y382695D02*
Y434300D01*
Y382695D02*
X579686Y359809D01*
X556800Y434300D02*
X570650Y448150D01*
X579686Y359809D02*
X584430D01*
X590170Y360800D02*
X605850D01*
X589179Y359809D02*
X590170Y360800D01*
X584430Y359809D02*
X589179D01*
X683800Y382957D02*
X706457Y360300D01*
X711200D01*
X683800Y382957D02*
Y434300D01*
X697650Y448150D01*
X717170Y360800D02*
X732850D01*
X716670Y360300D02*
X717170Y360800D01*
X711200Y360300D02*
X716670D01*
X810800Y383000D02*
Y434300D01*
Y383000D02*
X830266Y363534D01*
Y363491D02*
Y363534D01*
Y363491D02*
X833457Y360300D01*
X843670D01*
X937800Y382957D02*
Y434300D01*
X951650Y448150D01*
X937800Y382957D02*
X960391Y360366D01*
X965134D01*
X965200Y360300D01*
X971170Y360800D02*
X986850D01*
X970670Y360300D02*
X971170Y360800D01*
X965200Y360300D02*
X970670D01*
X810800Y434300D02*
X824650Y448150D01*
X844170Y360800D02*
X859850D01*
X843670Y360300D02*
X844170Y360800D01*
D62*
X293085Y250790D02*
X308610D01*
X221400Y236700D02*
X278995D01*
X293085Y250790D01*
X841550Y174654D02*
X855105D01*
X856401Y175950D01*
X851351Y188142D02*
X872402D01*
X841550Y187250D02*
X841578Y187278D01*
X850487D02*
X851351Y188142D01*
X846245Y200278D02*
X846301Y200334D01*
X866354D02*
X874118Y208098D01*
X872402Y188142D02*
X879840Y195580D01*
X841550Y180750D02*
X852580D01*
X846301Y200334D02*
X866354D01*
X878190Y175950D02*
X878752Y175388D01*
X853876Y182046D02*
X893164D01*
X844634Y206430D02*
X863829D01*
X856401Y175950D02*
X878190D01*
X869877Y194238D02*
X877315Y201676D01*
X852580Y180750D02*
X853876Y182046D01*
X841578Y187278D02*
X850487D01*
X846022Y200278D02*
X846245D01*
X844550Y206346D02*
X844634Y206430D01*
X848826Y194238D02*
X869877D01*
X863829Y206430D02*
X872490Y215091D01*
X841578Y193778D02*
X848366D01*
X848826Y194238D01*
X841550Y200250D02*
X845994D01*
X846022Y200278D01*
X841550Y193750D02*
X841578Y193778D01*
X878752Y175388D02*
X879154D01*
X894042Y160500D01*
X934300D01*
X918894Y195580D02*
X933974Y180500D01*
X879840Y195580D02*
X918894D01*
X933124Y201676D02*
X934300Y200500D01*
X877315Y201676D02*
X933124D01*
X874118Y208098D02*
X892148D01*
X896620Y212570D01*
X872490Y215091D02*
Y218440D01*
X916110Y220500D02*
X934300D01*
X914488Y222122D02*
X916110Y220500D01*
X876172Y222122D02*
X914488D01*
X872490Y218440D02*
X876172Y222122D01*
X933974Y180500D02*
X934300D01*
X241190Y256700D02*
X244840Y260350D01*
X281941D02*
X284572Y262982D01*
X244840Y260350D02*
X281941D01*
X279416Y266446D02*
X282047Y269078D01*
X221400Y276700D02*
X231654Y266446D01*
X279416D01*
X283450Y253238D02*
X287097Y256886D01*
X221400Y256700D02*
X241190D01*
X261620Y249710D02*
X265148Y253238D01*
X283450D01*
X304437Y275174D02*
X305393Y276130D01*
X284357Y275174D02*
X304437D01*
X314122Y269922D02*
X314150Y269950D01*
X286882Y281270D02*
X301912D01*
X309902Y256886D02*
X309939Y256922D01*
X306962Y269078D02*
X307806Y269922D01*
X305393Y276130D02*
X305564D01*
X287097Y256886D02*
X309902D01*
X309238Y262982D02*
X309678Y263422D01*
X283460Y276070D02*
X284357Y275174D01*
X302868Y282226D02*
X303039D01*
X314122Y256922D02*
X314150Y256950D01*
X261620Y276070D02*
X283460D01*
X284572Y262982D02*
X309238D01*
X271451Y296700D02*
X286882Y281270D01*
X303405Y282592D02*
X307340D01*
X305856Y276422D02*
X309678D01*
X309939Y256922D02*
X314122D01*
X305564Y276130D02*
X305856Y276422D01*
X282047Y269078D02*
X306962D01*
X307806Y269922D02*
X314122D01*
X221400Y296700D02*
X271451D01*
X301912Y281270D02*
X302868Y282226D01*
X303039D02*
X303405Y282592D01*
D63*
X1135379Y304800D02*
D03*
X1085379D02*
D03*
X1111250Y51200D02*
D03*
Y101200D02*
D03*
X222250Y76600D02*
D03*
Y126600D02*
D03*
X114300Y51200D02*
D03*
Y101200D02*
D03*
X1002585Y51200D02*
D03*
Y101200D02*
D03*
X1085849Y419100D02*
D03*
X1135849D02*
D03*
D64*
X787400Y304800D02*
D03*
X812800D02*
D03*
X838200D02*
D03*
X355600Y152400D02*
D03*
X330200D02*
D03*
X304800D02*
D03*
D65*
X153250Y216850D02*
D03*
Y196850D02*
D03*
X102450Y216850D02*
D03*
Y196850D02*
D03*
X153670Y305430D02*
D03*
Y285430D02*
D03*
X102870Y305430D02*
D03*
Y285430D02*
D03*
X780100Y77050D02*
D03*
X800100D02*
D03*
X697550D02*
D03*
X717550D02*
D03*
X635000D02*
D03*
X615000D02*
D03*
X456250D02*
D03*
X476250D02*
D03*
X646779Y313288D02*
D03*
X626779D02*
D03*
D66*
X153250Y176850D02*
D03*
X102450D02*
D03*
X153670Y265430D02*
D03*
X102870D02*
D03*
D67*
X820100Y77050D02*
D03*
X737550D02*
D03*
X655000D02*
D03*
X496250D02*
D03*
X606779Y313288D02*
D03*
D68*
X445770Y301940D02*
D03*
Y261940D02*
D03*
Y281940D02*
D03*
X1007650Y165950D02*
D03*
X221400Y256700D02*
D03*
Y276700D02*
D03*
Y236700D02*
D03*
X934300Y200500D02*
D03*
Y180500D02*
D03*
Y220500D02*
D03*
X1113950Y165950D02*
D03*
X951650Y428150D02*
D03*
X824650D02*
D03*
X1113950Y216750D02*
D03*
X697650Y428150D02*
D03*
X570650D02*
D03*
X62650D02*
D03*
X189650D02*
D03*
X316650D02*
D03*
X443650D02*
D03*
D69*
X445770Y241940D02*
D03*
X221400Y296700D02*
D03*
X934300Y160500D02*
D03*
X951650Y448150D02*
D03*
X824650D02*
D03*
X697650D02*
D03*
X570650D02*
D03*
X62650D02*
D03*
X189650D02*
D03*
X316650D02*
D03*
X443650D02*
D03*
D70*
X1027650Y165950D02*
D03*
X1133950D02*
D03*
Y216750D02*
D03*
D71*
X649683Y167959D02*
D03*
X1164590Y189230D02*
D03*
X1149350D02*
D03*
X1134110D02*
D03*
X1118870D02*
D03*
X1111250Y234950D02*
D03*
Y204470D02*
D03*
X1103630Y189230D02*
D03*
Y158750D02*
D03*
X1088390Y433070D02*
D03*
Y402590D02*
D03*
X1096010Y387350D02*
D03*
X1088390Y372110D02*
D03*
X1096010Y356870D02*
D03*
X1088390Y341630D02*
D03*
X1096010Y326390D02*
D03*
Y295910D02*
D03*
X1088390Y280670D02*
D03*
X1096010Y265430D02*
D03*
X1088390Y250190D02*
D03*
X1096010Y234950D02*
D03*
X1088390Y219710D02*
D03*
X1096010Y204470D02*
D03*
X1088390Y189230D02*
D03*
X1096010Y173990D02*
D03*
X1088390Y158750D02*
D03*
X1096010Y143510D02*
D03*
Y52070D02*
D03*
X1073150Y433070D02*
D03*
Y402590D02*
D03*
X1080770Y387350D02*
D03*
X1073150Y372110D02*
D03*
X1080770Y356870D02*
D03*
X1073150Y341630D02*
D03*
X1080770Y326390D02*
D03*
X1073150Y311150D02*
D03*
Y280670D02*
D03*
X1080770Y265430D02*
D03*
X1073150Y250190D02*
D03*
X1080770Y234950D02*
D03*
X1073150Y219710D02*
D03*
X1080770Y204470D02*
D03*
X1073150Y189230D02*
D03*
X1080770Y173990D02*
D03*
X1073150Y158750D02*
D03*
X1080770Y143510D02*
D03*
Y52070D02*
D03*
X1057910Y433070D02*
D03*
X1065530Y417830D02*
D03*
X1057910Y402590D02*
D03*
X1065530Y387350D02*
D03*
X1057910Y372110D02*
D03*
X1065530Y356870D02*
D03*
X1057910Y341630D02*
D03*
X1065530Y326390D02*
D03*
X1057910Y311150D02*
D03*
X1065530Y295910D02*
D03*
X1057910Y280670D02*
D03*
X1065530Y265430D02*
D03*
X1057910Y250190D02*
D03*
X1065530Y234950D02*
D03*
X1057910Y219710D02*
D03*
X1065530Y204470D02*
D03*
X1057910Y189230D02*
D03*
X1065530Y173990D02*
D03*
X1057910Y158750D02*
D03*
X1065530Y143510D02*
D03*
Y52070D02*
D03*
X1042670Y433070D02*
D03*
X1050290Y417830D02*
D03*
X1042670Y402590D02*
D03*
X1050290Y387350D02*
D03*
X1042670Y372110D02*
D03*
X1050290Y356870D02*
D03*
X1042670Y341630D02*
D03*
X1050290Y326390D02*
D03*
Y295910D02*
D03*
X1042670Y280670D02*
D03*
X1050290Y265430D02*
D03*
Y204470D02*
D03*
X1042670Y189230D02*
D03*
X1050290Y173990D02*
D03*
X1042670Y158750D02*
D03*
X1050290Y143510D02*
D03*
Y52070D02*
D03*
X1035050Y387350D02*
D03*
X1027430Y341630D02*
D03*
X1035050Y326390D02*
D03*
Y295910D02*
D03*
Y265430D02*
D03*
Y143510D02*
D03*
Y52070D02*
D03*
X1019810Y387350D02*
D03*
X1012190Y372110D02*
D03*
X1019810Y326390D02*
D03*
Y234950D02*
D03*
Y143510D02*
D03*
Y52070D02*
D03*
X1004570Y387350D02*
D03*
Y326390D02*
D03*
Y295910D02*
D03*
X996950Y280670D02*
D03*
X1004570Y265430D02*
D03*
Y234950D02*
D03*
X996950Y189230D02*
D03*
Y158750D02*
D03*
X1004570Y143510D02*
D03*
X989330Y387350D02*
D03*
Y326390D02*
D03*
Y295910D02*
D03*
Y265430D02*
D03*
X981710Y250190D02*
D03*
X989330Y204470D02*
D03*
X981710Y189230D02*
D03*
X989330Y173990D02*
D03*
X981710Y158750D02*
D03*
X989330Y143510D02*
D03*
Y52070D02*
D03*
X966470Y402590D02*
D03*
X974090Y387350D02*
D03*
Y326390D02*
D03*
X966470Y219710D02*
D03*
X974090Y204470D02*
D03*
X966470Y189230D02*
D03*
X974090Y173990D02*
D03*
X966470Y158750D02*
D03*
X974090Y143510D02*
D03*
Y52070D02*
D03*
X951230Y402590D02*
D03*
X958850Y387350D02*
D03*
Y326390D02*
D03*
X951230Y280670D02*
D03*
X958850Y265430D02*
D03*
Y234950D02*
D03*
X951230Y219710D02*
D03*
X958850Y204470D02*
D03*
X951230Y189230D02*
D03*
X958850Y173990D02*
D03*
X951230Y158750D02*
D03*
X958850Y143510D02*
D03*
Y52070D02*
D03*
X935990Y372110D02*
D03*
X943610Y356870D02*
D03*
Y326390D02*
D03*
Y265430D02*
D03*
Y234950D02*
D03*
Y143510D02*
D03*
Y52070D02*
D03*
X920750Y433070D02*
D03*
X928370Y417830D02*
D03*
X920750Y402590D02*
D03*
X928370Y387350D02*
D03*
X920750Y372110D02*
D03*
X928370Y356870D02*
D03*
Y326390D02*
D03*
Y265430D02*
D03*
Y234950D02*
D03*
X920750Y67310D02*
D03*
X928370Y52070D02*
D03*
X913130Y387350D02*
D03*
Y356870D02*
D03*
Y326390D02*
D03*
Y234950D02*
D03*
Y173990D02*
D03*
Y82550D02*
D03*
X897890Y387350D02*
D03*
X890270Y341630D02*
D03*
X897890Y326390D02*
D03*
X890270Y311150D02*
D03*
X897890Y295910D02*
D03*
Y234950D02*
D03*
X890270Y97790D02*
D03*
X897890Y82550D02*
D03*
X882650Y387350D02*
D03*
Y356870D02*
D03*
X875030Y311150D02*
D03*
X882650Y234950D02*
D03*
X875030Y97790D02*
D03*
X882650Y82550D02*
D03*
X875030Y67310D02*
D03*
X867410Y387350D02*
D03*
X859790Y341630D02*
D03*
Y311150D02*
D03*
X867410Y295910D02*
D03*
Y265430D02*
D03*
Y234950D02*
D03*
X859790Y128270D02*
D03*
X867410Y113030D02*
D03*
X859790Y97790D02*
D03*
X867410Y82550D02*
D03*
X859790Y67310D02*
D03*
X867410Y52070D02*
D03*
X844550Y402590D02*
D03*
X852170Y387350D02*
D03*
X844550Y341630D02*
D03*
X852170Y295910D02*
D03*
Y265430D02*
D03*
Y113030D02*
D03*
Y82550D02*
D03*
Y52070D02*
D03*
X829310Y402590D02*
D03*
X836930Y387350D02*
D03*
X829310Y341630D02*
D03*
Y311150D02*
D03*
X836930Y265430D02*
D03*
X821690Y387350D02*
D03*
Y356870D02*
D03*
X814070Y341630D02*
D03*
X821690Y295910D02*
D03*
Y265430D02*
D03*
X814070Y219710D02*
D03*
Y158750D02*
D03*
X821690Y143510D02*
D03*
X814070Y128270D02*
D03*
X821690Y113030D02*
D03*
X814070Y97790D02*
D03*
X798830Y433070D02*
D03*
Y402590D02*
D03*
Y372110D02*
D03*
X806450Y356870D02*
D03*
X798830Y341630D02*
D03*
Y311150D02*
D03*
X806450Y265430D02*
D03*
X798830Y250190D02*
D03*
X806450Y234950D02*
D03*
X798830Y219710D02*
D03*
Y158750D02*
D03*
X806450Y143510D02*
D03*
X798830Y128270D02*
D03*
X806450Y113030D02*
D03*
X798830Y67310D02*
D03*
X791210Y417830D02*
D03*
Y387350D02*
D03*
Y356870D02*
D03*
X783590Y341630D02*
D03*
Y128270D02*
D03*
X791210Y82550D02*
D03*
X775970Y387350D02*
D03*
X768350Y341630D02*
D03*
Y311150D02*
D03*
X775970Y295910D02*
D03*
X768350Y280670D02*
D03*
Y158750D02*
D03*
X775970Y143510D02*
D03*
X768350Y97790D02*
D03*
Y67310D02*
D03*
X760730Y387350D02*
D03*
X753110Y372110D02*
D03*
X760730Y265430D02*
D03*
X753110Y250190D02*
D03*
X760730Y173990D02*
D03*
X753110Y158750D02*
D03*
X760730Y143510D02*
D03*
X753110Y128270D02*
D03*
X760730Y113030D02*
D03*
X753110Y97790D02*
D03*
X760730Y82550D02*
D03*
X753110Y67310D02*
D03*
X745490Y387350D02*
D03*
X737870Y311150D02*
D03*
X745490Y295910D02*
D03*
X737870Y250190D02*
D03*
X745490Y173990D02*
D03*
X737870Y128270D02*
D03*
X745490Y113030D02*
D03*
X737870Y97790D02*
D03*
X722630Y402590D02*
D03*
X730250Y387350D02*
D03*
X722630Y372110D02*
D03*
Y341630D02*
D03*
Y311150D02*
D03*
X730250Y265430D02*
D03*
Y173990D02*
D03*
Y143510D02*
D03*
X722630Y128270D02*
D03*
X730250Y113030D02*
D03*
X722630Y97790D02*
D03*
Y67310D02*
D03*
X707390Y402590D02*
D03*
X715010Y387350D02*
D03*
X707390Y341630D02*
D03*
Y250190D02*
D03*
X715010Y173990D02*
D03*
Y143510D02*
D03*
X707390Y128270D02*
D03*
Y97790D02*
D03*
Y67310D02*
D03*
X692150Y402590D02*
D03*
X699770Y387350D02*
D03*
X692150Y341630D02*
D03*
X699770Y326390D02*
D03*
X692150Y280670D02*
D03*
X699770Y265430D02*
D03*
X692150Y250190D02*
D03*
X699770Y173990D02*
D03*
Y143510D02*
D03*
X692150Y128270D02*
D03*
Y67310D02*
D03*
X676910Y372110D02*
D03*
X684530Y356870D02*
D03*
X676910Y341630D02*
D03*
X684530Y326390D02*
D03*
X676910Y311150D02*
D03*
X684530Y265430D02*
D03*
X676910Y250190D02*
D03*
X684530Y173990D02*
D03*
Y143510D02*
D03*
Y113030D02*
D03*
X676910Y97790D02*
D03*
X684530Y82550D02*
D03*
X676910Y67310D02*
D03*
X661670Y433070D02*
D03*
X669290Y417830D02*
D03*
X661670Y402590D02*
D03*
X669290Y387350D02*
D03*
X661670Y372110D02*
D03*
X669290Y356870D02*
D03*
X661670Y341630D02*
D03*
X669290Y326390D02*
D03*
X661670Y311150D02*
D03*
X669290Y295910D02*
D03*
Y265430D02*
D03*
X661670Y250190D02*
D03*
X669290Y173990D02*
D03*
X661670Y128270D02*
D03*
X669290Y113030D02*
D03*
X661670Y97790D02*
D03*
X669290Y82550D02*
D03*
X654050Y387350D02*
D03*
X646430Y341630D02*
D03*
X654050Y326390D02*
D03*
Y295910D02*
D03*
X646430Y280670D02*
D03*
Y250190D02*
D03*
X654050Y173990D02*
D03*
X646430Y128270D02*
D03*
X654050Y113030D02*
D03*
X638810Y387350D02*
D03*
X631190Y372110D02*
D03*
Y341630D02*
D03*
X638810Y295910D02*
D03*
X631190Y280670D02*
D03*
X638810Y265430D02*
D03*
Y113030D02*
D03*
X631190Y97790D02*
D03*
Y67310D02*
D03*
X623570Y387350D02*
D03*
Y295910D02*
D03*
X615950Y280670D02*
D03*
X623570Y265430D02*
D03*
X615950Y250190D02*
D03*
X608330Y387350D02*
D03*
X600710Y341630D02*
D03*
X608330Y295910D02*
D03*
X600710Y280670D02*
D03*
Y97790D02*
D03*
Y67310D02*
D03*
X585470Y402590D02*
D03*
X593090Y387350D02*
D03*
X585470Y341630D02*
D03*
X593090Y326390D02*
D03*
X585470Y280670D02*
D03*
X570230Y402590D02*
D03*
X577850Y387350D02*
D03*
X570230Y341630D02*
D03*
X577850Y326390D02*
D03*
X570230Y280670D02*
D03*
X554990Y372110D02*
D03*
X562610Y356870D02*
D03*
Y295910D02*
D03*
X539750Y433070D02*
D03*
X547370Y417830D02*
D03*
X539750Y402590D02*
D03*
X547370Y387350D02*
D03*
X539750Y372110D02*
D03*
X547370Y356870D02*
D03*
X539750Y311150D02*
D03*
Y97790D02*
D03*
X547370Y82550D02*
D03*
X539750Y67310D02*
D03*
X532130Y387350D02*
D03*
Y356870D02*
D03*
Y295910D02*
D03*
X524510Y158750D02*
D03*
Y97790D02*
D03*
X532130Y82550D02*
D03*
X524510Y67310D02*
D03*
X516890Y387350D02*
D03*
X509270Y341630D02*
D03*
X516890Y113030D02*
D03*
X509270Y97790D02*
D03*
X516890Y82550D02*
D03*
X509270Y67310D02*
D03*
X501650Y387350D02*
D03*
Y356870D02*
D03*
X494030Y311150D02*
D03*
X501650Y113030D02*
D03*
X494030Y97790D02*
D03*
X486410Y387350D02*
D03*
X478790Y250190D02*
D03*
X486410Y234950D02*
D03*
X478790Y158750D02*
D03*
X486410Y113030D02*
D03*
X478790Y97790D02*
D03*
Y67310D02*
D03*
X463550Y402590D02*
D03*
X471170Y387350D02*
D03*
X463550Y341630D02*
D03*
X471170Y173990D02*
D03*
X463550Y158750D02*
D03*
X471170Y113030D02*
D03*
X463550Y97790D02*
D03*
Y67310D02*
D03*
X448310Y402590D02*
D03*
X455930Y387350D02*
D03*
X448310Y341630D02*
D03*
Y97790D02*
D03*
X440690Y387350D02*
D03*
Y356870D02*
D03*
X433070Y341630D02*
D03*
Y280670D02*
D03*
Y250190D02*
D03*
Y189230D02*
D03*
Y97790D02*
D03*
X440690Y52070D02*
D03*
X417830Y433070D02*
D03*
Y402590D02*
D03*
Y372110D02*
D03*
X425450Y356870D02*
D03*
X417830Y341630D02*
D03*
Y311150D02*
D03*
X425450Y295910D02*
D03*
X417830Y280670D02*
D03*
Y128270D02*
D03*
X425450Y113030D02*
D03*
X417830Y67310D02*
D03*
X425450Y52070D02*
D03*
X410210Y417830D02*
D03*
Y387350D02*
D03*
Y356870D02*
D03*
X402590Y341630D02*
D03*
Y311150D02*
D03*
X410210Y295910D02*
D03*
X402590Y280670D02*
D03*
X410210Y143510D02*
D03*
Y82550D02*
D03*
X402590Y67310D02*
D03*
X410210Y52070D02*
D03*
X394970Y387350D02*
D03*
X387350Y311150D02*
D03*
X394970Y295910D02*
D03*
X387350Y158750D02*
D03*
Y97790D02*
D03*
X394970Y82550D02*
D03*
X387350Y67310D02*
D03*
X394970Y52070D02*
D03*
X379730Y387350D02*
D03*
X372110Y372110D02*
D03*
X379730Y173990D02*
D03*
X372110Y128270D02*
D03*
X379730Y113030D02*
D03*
X372110Y97790D02*
D03*
X379730Y82550D02*
D03*
X372110Y67310D02*
D03*
X379730Y52070D02*
D03*
X364490Y387350D02*
D03*
X356870Y311150D02*
D03*
Y219710D02*
D03*
Y189230D02*
D03*
X364490Y143510D02*
D03*
X356870Y128270D02*
D03*
X364490Y113030D02*
D03*
X356870Y97790D02*
D03*
X364490Y82550D02*
D03*
X341630Y402590D02*
D03*
X349250Y387350D02*
D03*
X341630Y372110D02*
D03*
Y341630D02*
D03*
Y311150D02*
D03*
X349250Y234950D02*
D03*
X341630Y219710D02*
D03*
Y158750D02*
D03*
Y128270D02*
D03*
X349250Y113030D02*
D03*
X341630Y97790D02*
D03*
X349250Y82550D02*
D03*
X326390Y402590D02*
D03*
X334010Y387350D02*
D03*
X326390Y341630D02*
D03*
Y128270D02*
D03*
X334010Y113030D02*
D03*
X326390Y97790D02*
D03*
X334010Y82550D02*
D03*
X326390Y67310D02*
D03*
X311150Y402590D02*
D03*
X318770Y387350D02*
D03*
X311150Y189230D02*
D03*
X318770Y173990D02*
D03*
Y143510D02*
D03*
X311150Y128270D02*
D03*
X318770Y113030D02*
D03*
X311150Y97790D02*
D03*
X318770Y82550D02*
D03*
X311150Y67310D02*
D03*
X318770Y52070D02*
D03*
X295910Y372110D02*
D03*
X303530Y356870D02*
D03*
X295910Y128270D02*
D03*
X303530Y113030D02*
D03*
X295910Y97790D02*
D03*
X303530Y82550D02*
D03*
X295910Y67310D02*
D03*
X303530Y52070D02*
D03*
X280670Y433070D02*
D03*
X288290Y417830D02*
D03*
X280670Y402590D02*
D03*
X288290Y387350D02*
D03*
X280670Y372110D02*
D03*
X288290Y356870D02*
D03*
Y143510D02*
D03*
X280670Y128270D02*
D03*
X288290Y113030D02*
D03*
X280670Y97790D02*
D03*
X288290Y82550D02*
D03*
X280670Y67310D02*
D03*
X288290Y52070D02*
D03*
X273050Y387350D02*
D03*
Y113030D02*
D03*
X265430Y97790D02*
D03*
X273050Y82550D02*
D03*
X265430Y67310D02*
D03*
X273050Y52070D02*
D03*
X257810Y387350D02*
D03*
X250190Y372110D02*
D03*
Y219710D02*
D03*
X257810Y113030D02*
D03*
X250190Y97790D02*
D03*
X257810Y82550D02*
D03*
X250190Y67310D02*
D03*
X257810Y52070D02*
D03*
X242570Y387350D02*
D03*
X234950Y280670D02*
D03*
Y250190D02*
D03*
Y219710D02*
D03*
X242570Y204470D02*
D03*
X234950Y189230D02*
D03*
X242570Y82550D02*
D03*
X234950Y67310D02*
D03*
X242570Y52070D02*
D03*
X227330Y387350D02*
D03*
X219710Y219710D02*
D03*
X227330Y204470D02*
D03*
X219710Y189230D02*
D03*
X227330Y52070D02*
D03*
X204470Y402590D02*
D03*
X212090Y387350D02*
D03*
X204470Y280670D02*
D03*
X212090Y265430D02*
D03*
X204470Y250190D02*
D03*
Y219710D02*
D03*
X212090Y204470D02*
D03*
X204470Y189230D02*
D03*
X212090Y173990D02*
D03*
Y82550D02*
D03*
X204470Y67310D02*
D03*
X212090Y52070D02*
D03*
X189230Y402590D02*
D03*
X196850Y387350D02*
D03*
Y295910D02*
D03*
X189230Y280670D02*
D03*
X196850Y265430D02*
D03*
X189230Y250190D02*
D03*
X196850Y234950D02*
D03*
X189230Y189230D02*
D03*
X196850Y173990D02*
D03*
Y82550D02*
D03*
X189230Y67310D02*
D03*
X196850Y52070D02*
D03*
X173990Y372110D02*
D03*
X181610Y356870D02*
D03*
Y295910D02*
D03*
X173990Y280670D02*
D03*
X181610Y265430D02*
D03*
X173990Y250190D02*
D03*
X181610Y204470D02*
D03*
X173990Y189230D02*
D03*
X181610Y173990D02*
D03*
Y82550D02*
D03*
X173990Y67310D02*
D03*
X181610Y52070D02*
D03*
X158750Y433070D02*
D03*
X166370Y417830D02*
D03*
X158750Y402590D02*
D03*
X166370Y387350D02*
D03*
X158750Y372110D02*
D03*
X166370Y356870D02*
D03*
Y295910D02*
D03*
Y265430D02*
D03*
X158750Y250190D02*
D03*
X166370Y204470D02*
D03*
Y173990D02*
D03*
Y82550D02*
D03*
X158750Y67310D02*
D03*
X166370Y52070D02*
D03*
X151130Y387350D02*
D03*
Y356870D02*
D03*
X143510Y280670D02*
D03*
Y250190D02*
D03*
Y189230D02*
D03*
X151130Y82550D02*
D03*
X143510Y67310D02*
D03*
X151130Y52070D02*
D03*
X135890Y387350D02*
D03*
Y295910D02*
D03*
X128270Y280670D02*
D03*
Y250190D02*
D03*
Y219710D02*
D03*
X135890Y204470D02*
D03*
X128270Y189230D02*
D03*
X135890Y82550D02*
D03*
X128270Y67310D02*
D03*
X135890Y52070D02*
D03*
X120650Y387350D02*
D03*
Y356870D02*
D03*
Y295910D02*
D03*
X113030Y280670D02*
D03*
Y250190D02*
D03*
X120650Y204470D02*
D03*
X113030Y189230D02*
D03*
X105410Y387350D02*
D03*
X97790Y250190D02*
D03*
X105410Y234950D02*
D03*
X97790Y158750D02*
D03*
X90170Y387350D02*
D03*
X82550Y341630D02*
D03*
X90170Y295910D02*
D03*
X82550Y280670D02*
D03*
Y250190D02*
D03*
X90170Y234950D02*
D03*
X82550Y219710D02*
D03*
X90170Y204470D02*
D03*
X82550Y158750D02*
D03*
X90170Y143510D02*
D03*
X67310Y372110D02*
D03*
X74930Y356870D02*
D03*
Y173990D02*
D03*
Y143510D02*
D03*
X67310Y128270D02*
D03*
X52070Y402590D02*
D03*
X59690Y387350D02*
D03*
X52070Y372110D02*
D03*
Y311150D02*
D03*
Y280670D02*
D03*
Y250190D02*
D03*
Y219710D02*
D03*
Y189230D02*
D03*
Y128270D02*
D03*
X59690Y113030D02*
D03*
X36830Y433070D02*
D03*
Y402590D02*
D03*
X44450Y387350D02*
D03*
X36830Y372110D02*
D03*
Y311150D02*
D03*
X44450Y295910D02*
D03*
X36830Y280670D02*
D03*
X44450Y265430D02*
D03*
X36830Y250190D02*
D03*
X44450Y234950D02*
D03*
X36830Y219710D02*
D03*
X44450Y204470D02*
D03*
X36830Y189230D02*
D03*
Y128270D02*
D03*
X44450Y113030D02*
D03*
X36830Y97790D02*
D03*
X29210Y478790D02*
D03*
X21590Y463550D02*
D03*
X29210Y448310D02*
D03*
X21590Y433070D02*
D03*
X29210Y417830D02*
D03*
X21590Y402590D02*
D03*
X29210Y387350D02*
D03*
X21590Y372110D02*
D03*
X29210Y356870D02*
D03*
X21590Y341630D02*
D03*
X29210Y326390D02*
D03*
X21590Y311150D02*
D03*
X29210Y295910D02*
D03*
X21590Y280670D02*
D03*
X29210Y265430D02*
D03*
X21590Y250190D02*
D03*
X29210Y234950D02*
D03*
X21590Y219710D02*
D03*
X29210Y204470D02*
D03*
X21590Y189230D02*
D03*
X29210Y173990D02*
D03*
X21590Y158750D02*
D03*
X29210Y143510D02*
D03*
X21590Y128270D02*
D03*
X29210Y113030D02*
D03*
X21590Y97790D02*
D03*
X29210Y82550D02*
D03*
X21590Y67310D02*
D03*
Y36830D02*
D03*
Y6350D02*
D03*
X13970Y478790D02*
D03*
X6350Y463550D02*
D03*
X13970Y448310D02*
D03*
X6350Y433070D02*
D03*
X13970Y417830D02*
D03*
X6350Y402590D02*
D03*
X13970Y387350D02*
D03*
X6350Y372110D02*
D03*
X13970Y356870D02*
D03*
X6350Y341630D02*
D03*
X13970Y326390D02*
D03*
X6350Y311150D02*
D03*
X13970Y295910D02*
D03*
X6350Y280670D02*
D03*
X13970Y265430D02*
D03*
X6350Y250190D02*
D03*
X13970Y234950D02*
D03*
X6350Y219710D02*
D03*
X13970Y204470D02*
D03*
X6350Y189230D02*
D03*
X13970Y173990D02*
D03*
X6350Y158750D02*
D03*
X13970Y143510D02*
D03*
X6350Y128270D02*
D03*
X13970Y113030D02*
D03*
X6350Y97790D02*
D03*
X13970Y82550D02*
D03*
X6350Y67310D02*
D03*
X13970Y52070D02*
D03*
X6350Y36830D02*
D03*
X13970Y21590D02*
D03*
X6350Y6350D02*
D03*
X295910Y287620D02*
D03*
X636359Y240482D02*
D03*
X636810Y228600D02*
D03*
X637547Y217227D02*
D03*
X772160Y233680D02*
D03*
X966470Y377190D02*
D03*
X391700Y226060D02*
D03*
X402590Y227330D02*
D03*
X463550Y200660D02*
D03*
X468630Y205821D02*
D03*
X400268Y243371D02*
D03*
X289560Y287620D02*
D03*
X284621Y201329D02*
D03*
X539750Y218440D02*
D03*
Y211900D02*
D03*
X506730Y226060D02*
D03*
X516970Y139780D02*
D03*
X528320Y128270D02*
D03*
X588010Y189230D02*
D03*
X571339Y224951D02*
D03*
X559719Y223520D02*
D03*
X560610Y194310D02*
D03*
X548224Y259066D02*
D03*
X559844Y251460D02*
D03*
X551752Y138557D02*
D03*
X514350Y161290D02*
D03*
X508382Y211634D02*
D03*
X381000Y289560D02*
D03*
X58420Y398780D02*
D03*
X209550Y375920D02*
D03*
X336550Y374650D02*
D03*
X464820D02*
D03*
X589280Y373380D02*
D03*
X713740Y374650D02*
D03*
X842010D02*
D03*
X765585Y259305D02*
D03*
X858520Y231140D02*
D03*
X850900Y234950D02*
D03*
X772160Y148590D02*
D03*
X773430Y161290D02*
D03*
Y167640D02*
D03*
X628650Y114300D02*
D03*
X711200Y113030D02*
D03*
X535971Y174028D02*
D03*
X591820Y214630D02*
D03*
X576413Y254605D02*
D03*
X397510Y249301D02*
D03*
X392430Y280670D02*
D03*
X381000Y283210D02*
D03*
Y295910D02*
D03*
Y309880D02*
D03*
X501650Y317500D02*
D03*
X508000Y308610D02*
D03*
X520700Y289560D02*
D03*
X566420Y331470D02*
D03*
X571500Y292100D02*
D03*
X929640Y114300D02*
D03*
X896620Y113030D02*
D03*
X885190D02*
D03*
X892810Y290830D02*
D03*
X881380D02*
D03*
X975360Y269240D02*
D03*
X999490Y256540D02*
D03*
X304800Y196850D02*
D03*
X298450Y229870D02*
D03*
X304800Y223520D02*
D03*
X358140Y196850D02*
D03*
X495300Y189230D02*
D03*
X600874Y135497D02*
D03*
X573492Y134219D02*
D03*
X614680Y139700D02*
D03*
X604520Y116840D02*
D03*
X582160Y116674D02*
D03*
X556260Y60960D02*
D03*
X582930Y88900D02*
D03*
X534670Y116840D02*
D03*
X543560Y114300D02*
D03*
X582930Y172720D02*
D03*
X629920Y127000D02*
D03*
X605790Y132080D02*
D03*
X618213Y193085D02*
D03*
X767080Y175260D02*
D03*
X774700Y173990D02*
D03*
X773430Y186690D02*
D03*
X636515Y184353D02*
D03*
X756920Y187960D02*
D03*
X626239Y197673D02*
D03*
X632216Y201732D02*
D03*
X750570Y199930D02*
D03*
X663084Y212077D02*
D03*
X648970Y212114D02*
D03*
X773392Y212670D02*
D03*
X762000Y208280D02*
D03*
X773430Y200660D02*
D03*
X396240Y271780D02*
D03*
X405130Y264160D02*
D03*
X382270Y256725D02*
D03*
X548640Y180340D02*
D03*
X503710Y205824D02*
D03*
X506706Y200011D02*
D03*
X488968Y206318D02*
D03*
X441960Y114300D02*
D03*
X482600Y172720D02*
D03*
X246380Y179070D02*
D03*
X257810D02*
D03*
X121920Y347980D02*
D03*
X143510D02*
D03*
X132080D02*
D03*
X143510Y374650D02*
D03*
X132080D02*
D03*
X215900Y348170D02*
D03*
X270510Y347980D02*
D03*
X259080D02*
D03*
X270510Y374650D02*
D03*
X259080D02*
D03*
X375920Y341630D02*
D03*
X386080Y346710D02*
D03*
Y374650D02*
D03*
X397510Y346710D02*
D03*
Y374650D02*
D03*
X521970Y347980D02*
D03*
X477520Y340360D02*
D03*
X513080Y347980D02*
D03*
Y374650D02*
D03*
X524510D02*
D03*
X755650Y339090D02*
D03*
X767080Y347980D02*
D03*
Y374650D02*
D03*
X778510Y347980D02*
D03*
Y374650D02*
D03*
X882650Y335280D02*
D03*
X894080Y346710D02*
D03*
Y374650D02*
D03*
X905510Y346710D02*
D03*
Y374650D02*
D03*
X1012190Y340360D02*
D03*
X1021080Y346710D02*
D03*
Y374650D02*
D03*
X1032510Y346710D02*
D03*
Y374650D02*
D03*
X741680Y334010D02*
D03*
X990600Y341630D02*
D03*
X875030Y334010D02*
D03*
X618452Y215473D02*
D03*
X651510Y347980D02*
D03*
Y373380D02*
D03*
X640080D02*
D03*
Y347980D02*
D03*
X624840Y335280D02*
D03*
X591820Y260350D02*
D03*
X617220Y335280D02*
D03*
X607060Y267970D02*
D03*
X568806Y268344D02*
D03*
X496671Y342035D02*
D03*
X533400Y254000D02*
D03*
X363220Y336550D02*
D03*
X236220Y326390D02*
D03*
X109220Y325120D02*
D03*
X958850Y311150D02*
D03*
X929640Y133350D02*
D03*
X873760Y168910D02*
D03*
X862010Y214310D02*
D03*
X294625Y242630D02*
D03*
X494030Y331470D02*
D03*
X499110Y161290D02*
D03*
X508000Y44450D02*
D03*
X673100D02*
D03*
X755650D02*
D03*
X838200D02*
D03*
X755650Y222250D02*
D03*
X995125Y235665D02*
D03*
D72*
X801800Y212500D02*
D03*
X812800D02*
D03*
X823800D02*
D03*
X801800Y201500D02*
D03*
X812800D02*
D03*
X823800D02*
D03*
X801800Y190500D02*
D03*
X812800D02*
D03*
X823800D02*
D03*
X801800Y179500D02*
D03*
X812800D02*
D03*
X823800D02*
D03*
X801800Y168500D02*
D03*
X812800D02*
D03*
X823800D02*
D03*
X331900Y288700D02*
D03*
X342900D02*
D03*
X353900D02*
D03*
X331900Y277700D02*
D03*
X342900D02*
D03*
X353900D02*
D03*
X331900Y266700D02*
D03*
X342900D02*
D03*
X353900D02*
D03*
X331900Y255700D02*
D03*
X342900D02*
D03*
X353900D02*
D03*
X331900Y244700D02*
D03*
X342900D02*
D03*
X353900D02*
D03*
M02*
