M48
;Layer_Color=9474304
;FILE_FORMAT=4:4
METRIC,LZ
;TYPE=PLATED
T1F00S00C0.3000
T2F00S00C0.7400
T3F00S00C0.8000
T4F00S00C1.0000
;TYPE=NON_PLATED
T5F00S00C3.3000
%
T01
X0079883Y0006731
X0079121Y0008255
X0081407Y0009779
X0082169Y0011303
X0080645
X0081407Y0012827
X0079883
X0078359
X0077597Y0014351
X0080645
X0082169
X0085979Y0012827
X0086741Y0011303
X0085217
X0085979Y0009779
X0087503
X0089027
X0088519Y0011303
X0089662
X0089789Y0008255
X0091313
X0092075Y0006731
X0092837Y0005207
X0094361
X0095885
X0097409
X0098933
X0101981
X0103505
X0105029
X0106553
X0108077
X0109601
Y0014351
X0108077
X0106553
X0105029
X0103505
X0101981
X0100457
X0098933
X0097409
X0095885
X0094361
X0092964Y0013335
Y001143
X0088265Y0008255
X0086741
X0085217
X0085979Y0006731
X0087503
X0086741Y0005207
X0085217
X008382Y0004445
X0075565
X0075311Y0006731
X0076835
X0076073Y0008255
X0076835Y0009779
X0075311
X0073787
X0072263
X0070739
X007112Y0011303
X0073025
X0074549
X0076073
X0075311Y0012827
X0073787
X0072263
X0070739
X0069215
X0069977Y0014351
X0071501
X0073025
X0076073
X0068453
Y0011303
X0066929
X0065405
X0063881
X0062865Y001143
X0062992Y00127
X0064643Y0012827
X0066167
Y0009779
X0067691
X0068453Y0008255
X0066929
X0067691Y0006731
X0069215
X0070739
X0072263
X006731Y0004445
X0063119Y0006731
Y0009779
X0060071
X0060452Y0011684
X0060579Y0013208
X00600874Y00135497
X0061468Y001397
X00573492Y00134219
X00551752Y00138557
X0054356Y001143
X0053467Y0011684
X0052832Y0012827
X0051697Y0013978
X0051689Y0011303
X0050165
X0048641
X0047117
X0047879Y0009779
X0049403
X0050927
X0052451
X0053975
X0054737Y0008255
X0053213
X0051689
X0052451Y0006731
X0053975
X0055626Y0006096
X0060071Y0006731
X0058293Y000889
X0058216Y00116674
X0050927Y0006731
X00508Y0004445
X0047879Y0006731
X0046355
Y0009779
X0044831
X0043307
X0042545Y0011303
X0044196Y001143
X0041783Y0012827
X0041021Y0014351
Y0008255
X0039497
X0037973
X0038735Y0009779
X0037973Y0011303
X0038735Y0006731
X0040259
X0041783
X0042545Y0005207
X0044069
X0041021
X0039497
X0037973
X0037211Y0006731
X0036449Y0008255
X0034925
X0033401
X0031877
X0030353
X0028829
X0027305
X0025781
X0024257
X0025019Y0009779
X0026543
X0028067
X0029591
X0031115
X0032639
X0034163
X0035687
X0037211
X0036449Y0011303
X0034925
X0033401
X0031877
X0030353
X0028829
X0027305
X0025781
X0028067Y0012827
X0029591
X0031115
X0032639
X0034163
X0035687
X0037211
X0036449Y0014351
X0031877
X0028829
X0029591Y0006731
X0031115
X0032639
X0031877Y0005207
X0030353
X0028829
X0027305
X0025781
X0024257
X0022733
X0021209
X0019685
X0018161
X0016637
X0015113
X0013589
X0014351Y0006731
X0015875
X0017399
X0018923
X0020447
X0021209Y0008255
X0019685
X0018161
X0016637
X0015113
X0013589
X0012827Y0006731
X0023495
X0025019
X0026543
X0028067
X0002159
X0000635
X0001397Y0008255
X0002921
X0003683Y0009779
X0002159
X0000635
X0001397Y0011303
X0002921
X0004445
X0005969
X0006731Y0012827
X0005207
X0003683
X0002159
X0000635
X0001397Y0014351
X0002921
X0007493
X0009017
X0001397Y0005207
X0002159Y0003683
X0000635
X0001397Y0002159
X0002159Y0000635
X0000635
Y0015875
X0002159
X0002921Y0017399
X0001397
X0002159Y0018923
X0003683
X0005207
X0004445Y0020447
X0002921
X0001397
X0002159Y0021971
X0003683
X0005207
X0004445Y0023495
X0002921
X0001397
X0002159Y0025019
X0003683
X0005207
X0004445Y0026543
X0002921
X0001397
X0002159Y0028067
X0003683
X0005207
X0004445Y0029591
X0002921
X0001397
X0002159Y0031115
X0003683
X0005207
X0002921Y0032639
X0001397
X0002159Y0034163
X0000635
X0001397Y0035687
X0002921
X0003683Y0037211
X0005207
X0006731
X0007493Y0035687
X0008255Y0034163
X0010922Y0032512
X0012192Y0034798
X0012065Y0035687
X0013208Y0034798
X0014351
X0015113Y0035687
X0016637
X0018161
X0017399Y0037211
X0015875
X0014351Y0037465
X0013208
X0013589Y0038735
X0015113
X0016637
X0015875Y0040259
X0016637Y0041783
X0015875Y0043307
X0018923Y0040259
X0020447
X0021209Y0038735
X0020955Y0037592
X0019685Y0038735
X0022733
X0024257
X0025781
X0025908Y0037465
X0025019Y0037211
X0027051Y0037465
X0028067Y0037211
X0029591
X0030353Y0035687
X0028829
X0027051Y0034798
X0025908
X002159Y0034817
X0023622Y0032639
X0023495Y0028067
Y0025019
Y0021971
X0025019
X0024257Y0020447
X0022733
X0021209
X0021971Y0021971
X0020447
X0019685Y0023495
X0020447Y0025019
X0018923
X0017399
X0015875
X0014351
X0012827
X0011303
X0009779
X0008255
X0009017Y0023495
X0010541
X0012827Y0021971
X0013589Y0020447
X0012065
X0012827Y0018923
X0014351
X0017399
X0018923
X0020447
X0021971
X0023495
X0024638Y0017907
X0025781
X00284621Y00201329
X003048Y0019685
X0031115Y0018923
X0031877Y0017399
X0034163Y0015875
X0035687Y0018923
X0035814Y0019685
X0035687Y0021971
X0034163
X0034925Y0023495
X003539Y002447
Y002557
Y002667
Y002777
Y002887
X003429
X003319
Y002777
X003429
Y002667
X003319
Y002557
X003429
Y002447
X003319
X00294625Y0024263
X0029845Y0022987
X003048Y0022352
X0029591Y0028762
X0028956
X0034163Y0031115
X0035687
X0036322Y0033655
X0034163Y0034163
X0032639
X0033655Y0037465
X0034163Y0037211
X0034925Y0038735
X0036449
X0037211Y0037211
X0033401Y0038735
X0031877
X0032639Y0040259
X0034163
X0031115
X0028067
X0028829Y0041783
X0028067Y0043307
X0028829Y0038735
X0027305
X0012065
X0010541
X0009017
X0005969
X0005842Y0039878
X0005207Y0040259
X0003683
X0002159
X0000635
X0001397Y0041783
X0002921
X0003683Y0043307
X0002159
X0000635
X0001397Y0044831
X0002921
X0002159Y0046355
X0000635
X0001397Y0047879
X0002921
Y0038735
X0004445
X0001397
X0002159Y0037211
X0000635
Y0031115
Y0028067
Y0025019
Y0021971
Y0018923
X0007493Y0017399
X0008255Y0015875
X0009779
X0011303Y0018923
X0009017Y0020447
X0008255Y0021971
Y0028067
X0009017Y0029591
X0012065
X0013589
X0014351Y0028067
X0012827
X0011303
X0017399
X0018923
X0020447
X0021209Y0026543
X0019685
X0018161
X0016637
Y0029591
X0018161
X0019685
X0018161Y0020447
X0016637
Y0017399
X0018161
X0019685
X0021209
X0037973
X0038735Y0015875
X003917Y0022606
X0040259Y0022733
X00400268Y00243371
X0039751Y00249301
X0040513Y0026416
X0039624Y0027178
X0039243Y0028067
X0040259
X0041783
X0043307
X0042545Y0029591
X0041021
X0039497
X00381
Y0028956
Y0028321
Y0030988
X0038735Y0031115
X0040259
X0041783
Y0034163
X0043307
X0044831
X0046355
X0047752Y0034036
X00496671Y00342035
X0050927Y0034163
X0051308Y0034798
X0052197
X0053213Y0035687
X0054737
X0056261
X0057023Y0034163
X0056642Y0033147
X0057785Y0032639
X0059309
X0060071Y0034163
X0058547
X0058928Y0037338
X0059309Y0038735
X0060833
X0062357
X0063881
X0065405
X0066929
X0067691Y0037211
X0066167
X0065151Y0037338
X0064008
X0063119Y0037211
Y0034163
X0062484Y0033528
X0061722
X0064643Y0034163
X0065151Y0034798
X0064008
X0066167Y0034163
X0067691
X0069215
X0070739
X0072263
X0074168Y0033401
X0075565Y0033909
X0076835Y0034163
X0076708Y0034798
Y0037465
X0075311Y0037211
X0076073Y0038735
X0074549
X0073025
X0071501
X0071374Y0037465
X0072263Y0037211
Y0040259
X0070739
X0069215
X0069977Y0038735
X0068453Y0035687
X0066929
Y0032639
X0068453
X0069977
X0072263Y0031115
X0073787
X0074549Y0029591
X0076835Y0031115
Y0028067
X0076073Y0026543
X00765585Y00259305
X0075311Y0025019
X0073787
X0073025Y0026543
X0069977
X0068453
X0066929
X0067691Y0025019
X0069215
X0070739
X0069215Y0028067
X0066929Y0029591
X0065405
X0063881
X0062357
X0060833
X0061595Y0028067
X0063119
X0064643
X0063881Y0026543
X0062357
X0060706Y0026797
X0060071Y0028067
X0058547
X0057023
X005715Y002921
X0056261Y0029591
X0053213
X005207Y0028956
X00508Y0030861
X0050165Y003175
X0049403Y0031115
Y0033147
X0050165Y0035687
X0051308Y0037465
X0052451
X0053975Y0037211
X0055499
X0054737Y0038735
X0053213
X0051689
X0050165
X0048641
X0047117
X0045593
X0044069
X0044831Y0040259
X0046355
X0046482Y0037465
X0044069Y0035687
X0042545
X0041021
X0041783Y0037211
X0041021Y0038735
X0039497
X0037973
X0038608Y0037465
X0039751
Y0034671
X0040259Y0034163
X0038608Y0034671
X0037592Y0034163
X0038227Y00256725
X0043307Y0025019
X0047879
X0048641Y0023495
X0050673Y0022606
X00508382Y00211634
X0050371Y00205824
X00506706Y00200011
X004953Y0018923
X00488968Y00206318
X0046863Y00205821
X0046355Y0020066
X0047117Y0017399
X004826Y0017272
X0047879Y0015875
X0046355
X0049911Y0016129
X0051435
X0052451Y0015875
X00535971Y00174028
X0054864Y0018034
X0056061Y0019431
X00559719Y0022352
X00571339Y00224951
X0059182Y0021463
X00618452Y00215473
X00637547Y00217227
X0063681Y002286
X00636359Y00240482
X0064643Y0025019
X0066167
X00663084Y00212077
X0064897Y00212114
X00632216Y00201732
X00626239Y00197673
X00618213Y00193085
X00636515Y00184353
X0065405Y0017399
X00649683Y00167959
X0066929Y0017399
X0068453
X0069977
X0071501
X0073025
X0074549
X0076073
X0076708Y0017526
X0076835Y0015875
X0075311
X0075692Y0018796
X0075057Y0019993
X00762Y0020828
X0075565Y0022225
X0067691Y0031115
X0066167
X0065405Y0032639
X0066167Y0040259
X0066929Y0041783
X0066167Y0043307
X0058547Y0040259
X0057023
X0057785Y0038735
X0053975Y0040259
X0054737Y0041783
X0053975Y0043307
Y0031115
X00548224Y00259066
X00559844Y0025146
X00576413Y00254605
X0059182Y0026035
X00568806Y00268344
X005334Y00254
X0053975Y0021844
Y002119
X0058801Y0018923
X0058293Y0017272
X0061595Y0025019
X0043307Y0018923
X0041783Y0040259
X0041021Y0041783
X0041783Y0043307
X0079883
X0079121Y0041783
X0079883Y0040259
X0079121Y0038735
X0077597
X0077851Y0037465
X0079883Y0037211
X0080645Y0035687
X0082169
X0082931Y0034163
X0084455
X0085979
X0087503Y0033401
X0088265Y0033528
X0089027Y0034163
X0089408Y0034671
X0090551
X0091313Y0035687
X0092837
X0094361
X0093599Y0037211
X0092075
X0090551Y0037465
X0089408
X0089789Y0038735
X0091313
X0092837
X0092075Y0040259
X0092837Y0041783
X0092075Y0043307
X0095123Y0040259
X0096647
X0097409Y0038735
X0098933
X0100457
X0101981
X0102108Y0037465
X0101219Y0037211
X0103251Y0037465
X0104267Y0037211
X0105791
X0107315
X0108839
X0109601Y0038735
X0108077
X0106553
X0105029
X0103505
X0104267Y0040259
X0105791
X0107315
X0108839
Y0043307
X0107315
X0105791
X0104267
X0105029Y0041783
X0106553
Y0035687
X0108077
X0109601
X0108839Y0034163
X0107315
X0105791
X0104267
X0102743
X0103251Y0034671
X0102108
X0101219Y0034036
X0101981Y0032639
X0103505
X0105029
X0106553
X0108077
X0109601
Y0029591
X0108839Y0028067
X0107315
X0105791
X0104267
X0105029Y0029591
X0106553
X0107315Y0031115
X0105791
X0103505Y0029591
Y0026543
X0105029
X0106553
X0108077
X0109601
X0108839Y0025019
X0107315
X0105791
X0106553Y0023495
X0108077
X0109601
X0111125
Y0020447
X0109601
X0108077
X0106553
X0105029
X0105791Y0021971
X0107315
X0108839
Y0018923
X0110363
X0111887
X0113411
X0114935
X0116459
X0109601Y0017399
X0108077
X0106553
X0105029
X0105791Y0018923
X0107315
Y0015875
X0108839
X0110363
X0105791
X0104267
Y0018923
X0099695
X0098171
X0096647
X0095123
X0095885Y0020447
X0097409
X0098933
Y0017399
X0097409
X0095885
X0096647Y0015875
X0098171
X0099695
X0095123
X0091313Y0017399
X0087376Y0016891
X008238Y001685
Y001795
Y001905
Y002015
Y002125
X008128
X0081407Y0021971
X0079883
X008018Y002125
Y002015
X008128
Y001905
X008018
Y001795
X008128
Y001685
X008018
X0079883Y0015875
X0081407
X0077343Y0016129
Y0016764
X007747Y0017399
X0077343Y0018669
Y0020066
X00773392Y0021267
X0077216Y0023368
X0080645Y0023495
X0079883Y0025019
X0080645Y0026543
X0082169
X0083693
X0085217
X0086741
Y0029591
X0085217
X0085979Y0031115
X0087503
X0089027
X0089789Y0032639
X0091313
X0092837
X0094361
X0095885
X0097409
X0098933
X0100457
X009906Y0034163
X0098933Y0029591
X0100457
X0099695Y0028067
X0100457Y0026543
X0099949Y0025654
X0098933Y0026543
X0097536Y0026924
X0095885Y0026543
X0094361
X0092837
Y0023495
X0094361
X0095885
X0096647Y0021971
X0095123
X0091313Y0023495
X0089789
X0088265
X0086741
X0085852Y0023114
X008509Y0023495
X0086201Y0021431
X0088138Y0029083
X0089281
X0089789Y0029591
X0095123Y0028067
X0095885Y0031115
X0096647Y0037719
X0095885Y0038735
X0088265
X0086741
X0085217
X0083693
X0082169
X0082931Y0040259
X0084455
X0084201Y0037465
X0088265Y0035687
X0081407Y0034163
X0079883
X0078359
X0077851Y0034798
X0079121Y0035687
X0079883Y0031115
X0082931
X0082169Y0029591
X0077597
X0077216Y0014859
X00995125Y00235665
X0100457Y0023495
X0101981
X0098171Y0025019
X0105029Y0035687
T02
X003048Y001524
X003302
X003556
X007874Y003048
X008128
X008382
T03
X007801Y0007705
X008001
X008201
X0073755
X0071755
X0069755
X00655
X00635
X00615
X0049625
X0047625
X0045625
X0015325Y0017685
Y0019685
Y0021685
X0015367Y0026543
Y0028543
Y0030543
X0010287
Y0028543
Y0026543
X0010245Y0021685
Y0019685
Y0017685
X00606779Y00313288
X00626779
X00646779
T04
X01002585Y00051201
Y00101201
X0111125
Y00051201
X0022225Y00076601
Y00126601
X001143Y00101201
Y00051201
X002214Y002367
Y002567
Y002767
Y002967
X0018965Y0042815
Y0044815
X0006265
Y0042815
X0031665
Y0044815
X0044365
Y0042815
X0057065
Y0044815
X0069765
Y0042815
X0044577Y0030194
Y0028194
Y0026194
Y0024194
X009343Y002205
Y002005
Y001805
Y001605
X0100765Y0016595
X0102765
X0111395
X0113395
Y0021675
X0111395
X0113538Y003048
X0108538
X0108585Y004191
X0113585
X0095165Y0042815
Y0044815
X0082465
Y0042815
T05
X0089535Y0005715
X0034925
X000508Y0015875
Y003429
X0071755Y0028575
X0092075Y003048
M30
