G04*
G04 #@! TF.GenerationSoftware,Altium Limited,Altium Designer,23.4.1 (23)*
G04*
G04 Layer_Color=65535*
%FSLAX44Y44*%
%MOMM*%
G71*
G04*
G04 #@! TF.SameCoordinates,69872263-788E-4E38-85BF-5BAD4D7AD8B8*
G04*
G04*
G04 #@! TF.FilePolarity,Positive*
G04*
G01*
G75*
%ADD10C,0.6000*%
%ADD11C,0.2500*%
%ADD12C,0.2540*%
%ADD13C,0.2000*%
%ADD14C,0.5000*%
%ADD15C,0.1000*%
%ADD16C,0.1524*%
G36*
X149860Y40641D02*
X78740D01*
X88900Y33021D01*
X104140Y27941D01*
X119380Y25401D01*
X129540Y27941D01*
X149860Y40641D01*
D01*
D02*
G37*
G36*
X257810Y66041D02*
X186690D01*
X196850Y58421D01*
X212090Y53341D01*
X227330Y50801D01*
X237490Y53341D01*
X257810Y66041D01*
D01*
D02*
G37*
G36*
X1038145Y40641D02*
X967025D01*
X977185Y33021D01*
X992425Y27941D01*
X1007665Y25401D01*
X1017825Y27941D01*
X1038145Y40641D01*
D01*
D02*
G37*
G36*
X1146810D02*
X1075690D01*
X1085850Y33021D01*
X1101090Y27941D01*
X1116330Y25401D01*
X1126490Y27941D01*
X1146810Y40641D01*
D01*
D02*
G37*
G36*
X1074820Y269240D02*
Y340360D01*
X1067200Y330200D01*
X1062120Y314960D01*
X1059580Y299720D01*
X1062120Y289560D01*
X1074820Y269240D01*
D01*
D02*
G37*
G36*
X1075290Y383540D02*
Y454660D01*
X1067670Y444500D01*
X1062590Y429260D01*
X1060050Y414020D01*
X1062590Y403860D01*
X1075290Y383540D01*
D01*
D02*
G37*
D10*
X824300Y151500D02*
G03*
X824300Y151500I-3000J0D01*
G01*
X337400Y305700D02*
G03*
X337400Y305700I-3000J0D01*
G01*
X550650Y179350D02*
G03*
X550650Y179350I-3000J0D01*
G01*
D11*
X842800Y141000D02*
G03*
X842800Y141000I-1250J0D01*
G01*
X315400Y316200D02*
G03*
X315400Y316200I-1250J0D01*
G01*
X531900Y156350D02*
G03*
X531900Y156350I-1250J0D01*
G01*
X216350Y360800D02*
G03*
X216350Y360800I-1250J0D01*
G01*
X724350D02*
G03*
X724350Y360800I-1250J0D01*
G01*
X597350D02*
G03*
X597350Y360800I-1250J0D01*
G01*
X978350D02*
G03*
X978350Y360800I-1250J0D01*
G01*
X988600Y246450D02*
G03*
X988600Y246450I-1250J0D01*
G01*
X851350Y360800D02*
G03*
X851350Y360800I-1250J0D01*
G01*
X89350D02*
G03*
X89350Y360800I-1250J0D01*
G01*
X470350D02*
G03*
X470350Y360800I-1250J0D01*
G01*
X343350D02*
G03*
X343350Y360800I-1250J0D01*
G01*
D12*
X1160380Y304800D02*
G03*
X1160380Y304800I-50000J0D01*
G01*
X1161250Y76201D02*
G03*
X1161250Y76201I-50000J0D01*
G01*
X272250Y101601D02*
G03*
X272250Y101601I-50000J0D01*
G01*
X164300Y76201D02*
G03*
X164300Y76201I-50000J0D01*
G01*
X1052585D02*
G03*
X1052585Y76201I-50000J0D01*
G01*
X1160850Y419100D02*
G03*
X1160850Y419100I-50000J0D01*
G01*
X1145940Y304800D02*
X1156100D01*
X1151020Y297180D02*
Y312420D01*
X1103630Y116841D02*
X1118870D01*
X1111250Y111761D02*
Y121921D01*
X214630Y142241D02*
X229870D01*
X222250Y137161D02*
Y147321D01*
X106680Y116841D02*
X121920D01*
X114300Y111761D02*
Y121921D01*
X994965Y116841D02*
X1010205D01*
X1002585Y111761D02*
Y121921D01*
X1151490Y411480D02*
Y426720D01*
X1146410Y419100D02*
X1156570D01*
D13*
X839200Y332800D02*
G03*
X839200Y334800I0J1000D01*
G01*
D02*
G03*
X839200Y332800I0J-1000D01*
G01*
X575150Y58550D02*
G03*
X575150Y56550I0J-1000D01*
G01*
D02*
G03*
X575150Y58550I0J1000D01*
G01*
X303800Y124400D02*
G03*
X303800Y122400I0J-1000D01*
G01*
D02*
G03*
X303800Y124400I0J1000D01*
G01*
X794300Y239500D02*
X831300D01*
X794300Y141500D02*
X831300D01*
X324400Y315700D02*
X361400D01*
X324400Y217700D02*
X361400D01*
X136250Y157350D02*
Y236350D01*
Y236350D02*
X181250D01*
X181250Y157350D02*
Y236350D01*
X136250Y157350D02*
X181250D01*
X85450D02*
Y236350D01*
Y236350D02*
X130450D01*
X130450Y157350D02*
Y236350D01*
X85450Y157350D02*
X130450D01*
X136670Y245930D02*
Y324930D01*
Y324930D02*
X181670D01*
X181670Y245930D02*
Y324930D01*
X136670Y245930D02*
X181670D01*
X85870D02*
Y324930D01*
Y324930D02*
X130870D01*
X130870Y245930D02*
Y324930D01*
X85870Y245930D02*
X130870D01*
X760600Y60050D02*
X839600D01*
X760600D02*
Y105050D01*
Y105050D02*
X839600D01*
Y60050D02*
Y105050D01*
X678050Y60050D02*
X757050D01*
X678050D02*
Y105050D01*
Y105050D02*
X757050D01*
Y60050D02*
Y105050D01*
X674500Y60050D02*
Y105050D01*
X595500Y105050D02*
X674500D01*
X595500Y60050D02*
Y105050D01*
X595500Y60050D02*
X674500D01*
X436750D02*
X515750D01*
X436750D02*
Y105050D01*
Y105050D02*
X515750D01*
Y60050D02*
Y105050D01*
X473770Y222440D02*
Y321440D01*
X428770Y222440D02*
X473770D01*
X428770Y321440D02*
X473770D01*
X428770Y222440D02*
Y321440D01*
X537650Y169350D02*
X592650D01*
X537650Y224350D02*
X592650D01*
X537650Y169350D02*
Y224350D01*
X592650Y169350D02*
Y224350D01*
X935990Y118190D02*
Y128190D01*
X923290Y118190D02*
Y128190D01*
X292721Y287128D02*
Y297128D01*
X305421Y287128D02*
Y297128D01*
X281150Y386800D02*
Y393800D01*
X214150Y386800D02*
X281150D01*
X214150D02*
Y393800D01*
X789150Y386800D02*
Y393800D01*
X722150Y386800D02*
X789150D01*
X722150D02*
Y393800D01*
X662150Y386800D02*
Y393800D01*
X595150Y386800D02*
X662150D01*
X595150D02*
Y393800D01*
X1043150Y386800D02*
Y393800D01*
X976150Y386800D02*
X1043150D01*
X976150D02*
Y393800D01*
X587279Y330288D02*
X666279D01*
X666279Y285288D02*
Y330288D01*
X587279Y285288D02*
X666279D01*
X587279Y285288D02*
Y330288D01*
X469652Y193652D02*
Y203652D01*
X482352Y193652D02*
Y203652D01*
X863600Y141050D02*
Y151050D01*
X850900Y141050D02*
Y151050D01*
X595014Y132453D02*
X605014D01*
X595014Y119753D02*
X605014D01*
X863153Y158002D02*
Y168001D01*
X850453Y158002D02*
Y168001D01*
X502920Y204550D02*
Y214550D01*
X490220Y204550D02*
Y214550D01*
X628650Y138700D02*
Y148700D01*
X615950Y138700D02*
Y148700D01*
X292723Y307070D02*
Y317070D01*
X305423Y307070D02*
Y317070D01*
X614040Y132719D02*
X624040D01*
X614040Y120020D02*
X624040D01*
X568487Y124325D02*
X578487D01*
X568487Y111625D02*
X578487D01*
X548040Y124118D02*
X558040D01*
X548040Y111418D02*
X558040D01*
X989825Y261875D02*
Y296925D01*
X1054875D01*
Y261875D02*
Y296925D01*
X989825Y261875D02*
X1054875D01*
X968019Y278631D02*
Y310631D01*
X983519Y278631D02*
Y316631D01*
X988150Y148950D02*
X1047150D01*
Y193950D01*
X988150Y148950D02*
Y193950D01*
X1047150D01*
X1000000Y230000D02*
X1032000D01*
X1000000Y214500D02*
X1038000D01*
X515700Y139700D02*
X525700D01*
X515700Y127000D02*
X525700D01*
X576660Y128270D02*
X586660D01*
X576660Y140970D02*
X586660D01*
X501650Y160100D02*
Y170100D01*
X514350Y160100D02*
Y170100D01*
X635000Y227600D02*
Y237600D01*
X622300Y227600D02*
Y237600D01*
X247120Y306070D02*
X276120D01*
X247120Y219710D02*
X276120D01*
X882120Y242570D02*
X911120D01*
X882120Y154940D02*
X911120D01*
X289450Y190500D02*
X299450D01*
X289450Y203200D02*
X299450D01*
X291997Y234631D02*
Y244631D01*
X304697Y234631D02*
Y244631D01*
X863600Y213250D02*
Y223250D01*
X850900Y213250D02*
Y223250D01*
X762000Y221250D02*
Y231250D01*
X774700Y221250D02*
Y231250D01*
X393700Y225950D02*
Y235950D01*
X381000Y225950D02*
Y235950D01*
X238400Y217200D02*
Y316200D01*
X193400Y217200D02*
X238400D01*
X193400Y316200D02*
X238400D01*
X193400Y217200D02*
Y316200D01*
X917300Y141000D02*
Y240000D01*
X962300D01*
X917300Y141000D02*
X962300D01*
Y240000D01*
X790392Y54174D02*
X822392D01*
X790392Y38674D02*
X828392D01*
X625596Y54395D02*
X657596D01*
X625596Y38895D02*
X663596D01*
X708610Y54188D02*
X740610D01*
X708610Y38688D02*
X746610D01*
X466036Y55211D02*
X498036D01*
X466036Y39711D02*
X504036D01*
X508000Y322850D02*
Y332850D01*
X495300Y322850D02*
Y332850D01*
X513950Y270050D02*
Y285300D01*
X515250Y288800D02*
X564250D01*
Y320800D01*
X515250D02*
X564250D01*
X515250Y288800D02*
Y320800D01*
X1094450Y148950D02*
X1153450D01*
Y193950D01*
X1094450Y148950D02*
Y193950D01*
X1153450D01*
X323418Y358697D02*
Y368697D01*
X336118Y358697D02*
Y368697D01*
X65488Y405107D02*
X75488D01*
X65488Y392407D02*
X75488D01*
X209124Y359558D02*
Y369558D01*
X196424Y359558D02*
Y369558D01*
X971550Y359300D02*
Y369300D01*
X958850Y359300D02*
Y369300D01*
X844550Y359300D02*
Y369300D01*
X831850Y359300D02*
Y369300D01*
X717550Y359300D02*
Y369300D01*
X704850Y359300D02*
Y369300D01*
X590780Y358809D02*
Y368809D01*
X578080Y358809D02*
Y368809D01*
X463550Y359300D02*
Y369300D01*
X450850Y359300D02*
Y369300D01*
X968650Y408650D02*
Y467650D01*
X923650D02*
X968650D01*
X923650Y408650D02*
X968650D01*
X923650D02*
Y467650D01*
X841650Y408650D02*
Y467650D01*
X796650D02*
X841650D01*
X796650Y408650D02*
X841650D01*
X796650D02*
Y467650D01*
X1094450Y199750D02*
X1153450D01*
Y244750D01*
X1094450Y199750D02*
Y244750D01*
X1153450D01*
X849150Y386800D02*
Y393800D01*
Y386800D02*
X916150D01*
Y393800D01*
X714650Y408650D02*
Y467650D01*
X669650D02*
X714650D01*
X669650Y408650D02*
X714650D01*
X669650D02*
Y467650D01*
X587650Y408650D02*
Y467650D01*
X542650D02*
X587650D01*
X542650Y408650D02*
X587650D01*
X542650D02*
Y467650D01*
X79650Y408650D02*
Y467650D01*
X34650D02*
X79650D01*
X34650Y408650D02*
X79650D01*
X34650D02*
Y467650D01*
X87150Y386800D02*
Y393800D01*
Y386800D02*
X154150D01*
Y393800D01*
X206650Y408650D02*
Y467650D01*
X161650D02*
X206650D01*
X161650Y408650D02*
X206650D01*
X161650D02*
Y467650D01*
X333650Y408650D02*
Y467650D01*
X288650D02*
X333650D01*
X288650Y408650D02*
X333650D01*
X288650D02*
Y467650D01*
X460650Y408650D02*
Y467650D01*
X415650D02*
X460650D01*
X415650Y408650D02*
X460650D01*
X415650D02*
Y467650D01*
X468150Y386800D02*
Y393800D01*
Y386800D02*
X535150D01*
Y393800D01*
X341150Y386800D02*
Y393800D01*
Y386800D02*
X408150D01*
Y393800D01*
D14*
X609279Y339288D02*
G03*
X609279Y339288I-2500J0D01*
G01*
D15*
X765150Y328900D02*
X860450D01*
Y280600D02*
Y328900D01*
X765150Y280600D02*
X860450D01*
X765150D02*
Y328900D01*
X282550Y128300D02*
X377850D01*
X282550D02*
Y176600D01*
X377850D01*
Y128300D02*
Y176600D01*
D16*
X326814Y380579D02*
X325122Y378886D01*
Y375500D01*
X326814Y373808D01*
X333586D01*
X335278Y375500D01*
Y378886D01*
X333586Y380579D01*
X335278Y390736D02*
Y383965D01*
X328507Y390736D01*
X326814D01*
X325122Y389043D01*
Y385657D01*
X326814Y383965D01*
Y394121D02*
X325122Y395814D01*
Y399199D01*
X326814Y400892D01*
X333586D01*
X335278Y399199D01*
Y395814D01*
X333586Y394121D01*
X326814D01*
X544504Y59103D02*
Y57410D01*
X547890Y54025D01*
X551275Y57410D01*
Y59103D01*
X547890Y54025D02*
Y48946D01*
X554661D02*
X558047D01*
X556354D01*
Y59103D01*
X554661Y57410D01*
X33451Y481328D02*
Y474557D01*
X36837Y471172D01*
X40222Y474557D01*
Y481328D01*
X50379Y479636D02*
X48686Y481328D01*
X45300D01*
X43608Y479636D01*
Y477943D01*
X45300Y476250D01*
X48686D01*
X50379Y474557D01*
Y472864D01*
X48686Y471172D01*
X45300D01*
X43608Y472864D01*
X58843Y481328D02*
X55457D01*
X53764Y479636D01*
Y472864D01*
X55457Y471172D01*
X58843D01*
X60536Y472864D01*
Y479636D01*
X58843Y481328D01*
X63921D02*
Y471172D01*
X70692D01*
X74078Y479636D02*
X75771Y481328D01*
X79156D01*
X80849Y479636D01*
Y477943D01*
X79156Y476250D01*
X80849Y474557D01*
Y472864D01*
X79156Y471172D01*
X75771D01*
X74078Y472864D01*
Y474557D01*
X75771Y476250D01*
X74078Y477943D01*
Y479636D01*
X75771Y476250D02*
X79156D01*
X160451Y481328D02*
Y474557D01*
X163837Y471172D01*
X167222Y474557D01*
Y481328D01*
X177379Y479636D02*
X175686Y481328D01*
X172300D01*
X170608Y479636D01*
Y477943D01*
X172300Y476250D01*
X175686D01*
X177379Y474557D01*
Y472864D01*
X175686Y471172D01*
X172300D01*
X170608Y472864D01*
X185843Y481328D02*
X182457D01*
X180764Y479636D01*
Y472864D01*
X182457Y471172D01*
X185843D01*
X187536Y472864D01*
Y479636D01*
X185843Y481328D01*
X190921D02*
Y471172D01*
X197692D01*
X201078Y481328D02*
X207849D01*
Y479636D01*
X201078Y472864D01*
Y471172D01*
X287451Y481328D02*
Y474557D01*
X290837Y471172D01*
X294222Y474557D01*
Y481328D01*
X304379Y479636D02*
X302686Y481328D01*
X299300D01*
X297608Y479636D01*
Y477943D01*
X299300Y476250D01*
X302686D01*
X304379Y474557D01*
Y472864D01*
X302686Y471172D01*
X299300D01*
X297608Y472864D01*
X312843Y481328D02*
X309457D01*
X307764Y479636D01*
Y472864D01*
X309457Y471172D01*
X312843D01*
X314536Y472864D01*
Y479636D01*
X312843Y481328D01*
X317921D02*
Y471172D01*
X324692D01*
X334849Y481328D02*
X331463Y479636D01*
X328078Y476250D01*
Y472864D01*
X329771Y471172D01*
X333156D01*
X334849Y472864D01*
Y474557D01*
X333156Y476250D01*
X328078D01*
X414451Y481328D02*
Y474557D01*
X417837Y471172D01*
X421222Y474557D01*
Y481328D01*
X431379Y479636D02*
X429686Y481328D01*
X426301D01*
X424608Y479636D01*
Y477943D01*
X426301Y476250D01*
X429686D01*
X431379Y474557D01*
Y472864D01*
X429686Y471172D01*
X426301D01*
X424608Y472864D01*
X439843Y481328D02*
X436457D01*
X434764Y479636D01*
Y472864D01*
X436457Y471172D01*
X439843D01*
X441536Y472864D01*
Y479636D01*
X439843Y481328D01*
X444921D02*
Y471172D01*
X451692D01*
X461849Y481328D02*
X455078D01*
Y476250D01*
X458463Y477943D01*
X460156D01*
X461849Y476250D01*
Y472864D01*
X460156Y471172D01*
X456771D01*
X455078Y472864D01*
X541451Y481328D02*
Y474557D01*
X544837Y471172D01*
X548222Y474557D01*
Y481328D01*
X558379Y479636D02*
X556686Y481328D01*
X553301D01*
X551608Y479636D01*
Y477943D01*
X553301Y476250D01*
X556686D01*
X558379Y474557D01*
Y472864D01*
X556686Y471172D01*
X553301D01*
X551608Y472864D01*
X566843Y481328D02*
X563457D01*
X561764Y479636D01*
Y472864D01*
X563457Y471172D01*
X566843D01*
X568536Y472864D01*
Y479636D01*
X566843Y481328D01*
X571921D02*
Y471172D01*
X578692D01*
X587156D02*
Y481328D01*
X582078Y476250D01*
X588849D01*
X668451Y481328D02*
Y474557D01*
X671837Y471172D01*
X675222Y474557D01*
Y481328D01*
X685379Y479636D02*
X683686Y481328D01*
X680301D01*
X678608Y479636D01*
Y477943D01*
X680301Y476250D01*
X683686D01*
X685379Y474557D01*
Y472864D01*
X683686Y471172D01*
X680301D01*
X678608Y472864D01*
X693843Y481328D02*
X690457D01*
X688764Y479636D01*
Y472864D01*
X690457Y471172D01*
X693843D01*
X695536Y472864D01*
Y479636D01*
X693843Y481328D01*
X698921D02*
Y471172D01*
X705692D01*
X709078Y479636D02*
X710771Y481328D01*
X714156D01*
X715849Y479636D01*
Y477943D01*
X714156Y476250D01*
X712463D01*
X714156D01*
X715849Y474557D01*
Y472864D01*
X714156Y471172D01*
X710771D01*
X709078Y472864D01*
X795451Y481328D02*
Y474557D01*
X798837Y471172D01*
X802222Y474557D01*
Y481328D01*
X812379Y479636D02*
X810686Y481328D01*
X807300D01*
X805608Y479636D01*
Y477943D01*
X807300Y476250D01*
X810686D01*
X812379Y474557D01*
Y472864D01*
X810686Y471172D01*
X807300D01*
X805608Y472864D01*
X820843Y481328D02*
X817457D01*
X815764Y479636D01*
Y472864D01*
X817457Y471172D01*
X820843D01*
X822536Y472864D01*
Y479636D01*
X820843Y481328D01*
X825921D02*
Y471172D01*
X832692D01*
X842849D02*
X836078D01*
X842849Y477943D01*
Y479636D01*
X841156Y481328D01*
X837771D01*
X836078Y479636D01*
X924144Y481328D02*
Y474557D01*
X927529Y471172D01*
X930915Y474557D01*
Y481328D01*
X941072Y479636D02*
X939379Y481328D01*
X935993D01*
X934301Y479636D01*
Y477943D01*
X935993Y476250D01*
X939379D01*
X941072Y474557D01*
Y472864D01*
X939379Y471172D01*
X935993D01*
X934301Y472864D01*
X949536Y481328D02*
X946150D01*
X944457Y479636D01*
Y472864D01*
X946150Y471172D01*
X949536D01*
X951228Y472864D01*
Y479636D01*
X949536Y481328D01*
X954614D02*
Y471172D01*
X961385D01*
X964771D02*
X968156D01*
X966463D01*
Y481328D01*
X964771Y479636D01*
X319198Y119378D02*
Y112607D01*
X322583Y109222D01*
X325969Y112607D01*
Y119378D01*
X329354Y109222D02*
Y119378D01*
X334433D01*
X336126Y117686D01*
Y114300D01*
X334433Y112607D01*
X329354D01*
X332740D02*
X336126Y109222D01*
X346282D02*
X339511D01*
X346282Y115993D01*
Y117686D01*
X344590Y119378D01*
X341204D01*
X339511Y117686D01*
X800950Y346708D02*
Y339937D01*
X804336Y336552D01*
X807722Y339937D01*
Y346708D01*
X811107Y336552D02*
Y346708D01*
X816186D01*
X817878Y345016D01*
Y341630D01*
X816186Y339937D01*
X811107D01*
X814493D02*
X817878Y336552D01*
X821264D02*
X824650D01*
X822957D01*
Y346708D01*
X821264Y345016D01*
X1115486Y189228D02*
Y182457D01*
X1118872Y179072D01*
X1122257Y182457D01*
Y189228D01*
X1125643Y179072D02*
Y189228D01*
X1129028Y185843D01*
X1132414Y189228D01*
Y179072D01*
X1009654Y283278D02*
Y274814D01*
X1011347Y273122D01*
X1014733D01*
X1016425Y274814D01*
Y283278D01*
X1019811Y273122D02*
X1023196D01*
X1021504D01*
Y283278D01*
X1019811Y281586D01*
X1035046Y273122D02*
X1028275D01*
X1035046Y279893D01*
Y281586D01*
X1033353Y283278D01*
X1029968D01*
X1028275Y281586D01*
X107954Y481328D02*
Y472864D01*
X109647Y471172D01*
X113033D01*
X114725Y472864D01*
Y481328D01*
X118111Y471172D02*
X121496D01*
X119804D01*
Y481328D01*
X118111Y479636D01*
X126575D02*
X128268Y481328D01*
X131653D01*
X133346Y479636D01*
Y472864D01*
X131653Y471172D01*
X128268D01*
X126575Y472864D01*
Y479636D01*
X239186Y481328D02*
Y472864D01*
X240879Y471172D01*
X244264D01*
X245957Y472864D01*
Y481328D01*
X249343Y472864D02*
X251036Y471172D01*
X254421D01*
X256114Y472864D01*
Y479636D01*
X254421Y481328D01*
X251036D01*
X249343Y479636D01*
Y477943D01*
X251036Y476250D01*
X256114D01*
X543986Y220978D02*
Y212514D01*
X545679Y210822D01*
X549064D01*
X550757Y212514D01*
Y220978D01*
X554143Y219286D02*
X555836Y220978D01*
X559221D01*
X560914Y219286D01*
Y217593D01*
X559221Y215900D01*
X560914Y214207D01*
Y212514D01*
X559221Y210822D01*
X555836D01*
X554143Y212514D01*
Y214207D01*
X555836Y215900D01*
X554143Y217593D01*
Y219286D01*
X555836Y215900D02*
X559221D01*
X366186Y481328D02*
Y472864D01*
X367879Y471172D01*
X371264D01*
X372957Y472864D01*
Y481328D01*
X376343D02*
X383114D01*
Y479636D01*
X376343Y472864D01*
Y471172D01*
X493186Y481328D02*
Y472864D01*
X494879Y471172D01*
X498264D01*
X499957Y472864D01*
Y481328D01*
X510114D02*
X506728Y479636D01*
X503343Y476250D01*
Y472864D01*
X505036Y471172D01*
X508421D01*
X510114Y472864D01*
Y474557D01*
X508421Y476250D01*
X503343D01*
X620186Y481328D02*
Y472864D01*
X621879Y471172D01*
X625264D01*
X626957Y472864D01*
Y481328D01*
X635421Y471172D02*
Y481328D01*
X630343Y476250D01*
X637114D01*
X747186Y481328D02*
Y472864D01*
X748879Y471172D01*
X752264D01*
X753957Y472864D01*
Y481328D01*
X757343Y479636D02*
X759036Y481328D01*
X762421D01*
X764114Y479636D01*
Y477943D01*
X762421Y476250D01*
X760728D01*
X762421D01*
X764114Y474557D01*
Y472864D01*
X762421Y471172D01*
X759036D01*
X757343Y472864D01*
X874186Y481328D02*
Y472864D01*
X875879Y471172D01*
X879264D01*
X880957Y472864D01*
Y481328D01*
X891114Y471172D02*
X884343D01*
X891114Y477943D01*
Y479636D01*
X889421Y481328D01*
X886036D01*
X884343Y479636D01*
X1002879Y481328D02*
Y472864D01*
X1004572Y471172D01*
X1007957D01*
X1009650Y472864D01*
Y481328D01*
X1013036Y471172D02*
X1016421D01*
X1014728D01*
Y481328D01*
X1013036Y479636D01*
X542288Y75358D02*
X532132D01*
Y80436D01*
X533824Y82129D01*
X537210D01*
X538903Y80436D01*
Y75358D01*
Y78743D02*
X542288Y82129D01*
Y90593D02*
X532132D01*
X537210Y85514D01*
Y92286D01*
X532132Y95671D02*
Y102442D01*
X533824D01*
X540596Y95671D01*
X542288D01*
X472528Y162500D02*
X482685D01*
Y157421D01*
X480992Y155729D01*
X477606D01*
X475914Y157421D01*
Y162500D01*
Y159114D02*
X472528Y155729D01*
Y147265D02*
X482685D01*
X477606Y152343D01*
Y145572D01*
X482685Y135415D02*
X480992Y138801D01*
X477606Y142186D01*
X474221D01*
X472528Y140493D01*
Y137108D01*
X474221Y135415D01*
X475914D01*
X477606Y137108D01*
Y142186D01*
X503348Y240032D02*
Y250188D01*
X508426D01*
X510119Y248496D01*
Y245110D01*
X508426Y243417D01*
X503348D01*
X506733D02*
X510119Y240032D01*
X518583D02*
Y250188D01*
X513504Y245110D01*
X520276D01*
X530432Y250188D02*
X523661D01*
Y245110D01*
X527047Y246803D01*
X528740D01*
X530432Y245110D01*
Y241724D01*
X528740Y240032D01*
X525354D01*
X523661Y241724D01*
X627808Y248922D02*
Y259078D01*
X632886D01*
X634579Y257386D01*
Y254000D01*
X632886Y252307D01*
X627808D01*
X631193D02*
X634579Y248922D01*
X643043D02*
Y259078D01*
X637964Y254000D01*
X644736D01*
X653199Y248922D02*
Y259078D01*
X648121Y254000D01*
X654892D01*
X695118Y254002D02*
Y264158D01*
X700196D01*
X701889Y262466D01*
Y259080D01*
X700196Y257387D01*
X695118D01*
X698503D02*
X701889Y254002D01*
X710353D02*
Y264158D01*
X705274Y259080D01*
X712046D01*
X715431Y262466D02*
X717124Y264158D01*
X720509D01*
X722202Y262466D01*
Y260773D01*
X720509Y259080D01*
X718817D01*
X720509D01*
X722202Y257387D01*
Y255694D01*
X720509Y254002D01*
X717124D01*
X715431Y255694D01*
X681691Y209311D02*
X671534D01*
Y214389D01*
X673227Y216082D01*
X676612D01*
X678305Y214389D01*
Y209311D01*
Y212697D02*
X681691Y216082D01*
Y224546D02*
X671534D01*
X676612Y219468D01*
Y226239D01*
X681691Y236396D02*
Y229625D01*
X674920Y236396D01*
X673227D01*
X671534Y234703D01*
Y231317D01*
X673227Y229625D01*
X681329Y178111D02*
X671172D01*
Y183190D01*
X672865Y184883D01*
X676251D01*
X677944Y183190D01*
Y178111D01*
Y181497D02*
X681329Y184883D01*
Y193347D02*
X671172D01*
X676251Y188268D01*
Y195039D01*
X681329Y198425D02*
Y201810D01*
Y200118D01*
X671172D01*
X672865Y198425D01*
X680722Y173562D02*
X690878D01*
Y168484D01*
X689186Y166791D01*
X685800D01*
X684107Y168484D01*
Y173562D01*
Y170177D02*
X680722Y166791D01*
Y158327D02*
X690878D01*
X685800Y163405D01*
Y156634D01*
X689186Y153249D02*
X690878Y151556D01*
Y148170D01*
X689186Y146478D01*
X682414D01*
X680722Y148170D01*
Y151556D01*
X682414Y153249D01*
X689186D01*
X498268Y255272D02*
Y265428D01*
X503346D01*
X505039Y263736D01*
Y260350D01*
X503346Y258657D01*
X498268D01*
X501653D02*
X505039Y255272D01*
X508424Y263736D02*
X510117Y265428D01*
X513503D01*
X515196Y263736D01*
Y262043D01*
X513503Y260350D01*
X511810D01*
X513503D01*
X515196Y258657D01*
Y256964D01*
X513503Y255272D01*
X510117D01*
X508424Y256964D01*
X518581D02*
X520274Y255272D01*
X523660D01*
X525352Y256964D01*
Y263736D01*
X523660Y265428D01*
X520274D01*
X518581Y263736D01*
Y262043D01*
X520274Y260350D01*
X525352D01*
X439848Y134622D02*
Y144778D01*
X444926D01*
X446619Y143086D01*
Y139700D01*
X444926Y138007D01*
X439848D01*
X443233D02*
X446619Y134622D01*
X450004Y143086D02*
X451697Y144778D01*
X455083D01*
X456776Y143086D01*
Y141393D01*
X455083Y139700D01*
X453390D01*
X455083D01*
X456776Y138007D01*
Y136314D01*
X455083Y134622D01*
X451697D01*
X450004Y136314D01*
X460161Y143086D02*
X461854Y144778D01*
X465239D01*
X466932Y143086D01*
Y141393D01*
X465239Y139700D01*
X466932Y138007D01*
Y136314D01*
X465239Y134622D01*
X461854D01*
X460161Y136314D01*
Y138007D01*
X461854Y139700D01*
X460161Y141393D01*
Y143086D01*
X461854Y139700D02*
X465239D01*
X662098Y262892D02*
Y273048D01*
X667176D01*
X668869Y271356D01*
Y267970D01*
X667176Y266277D01*
X662098D01*
X665483D02*
X668869Y262892D01*
X672254Y271356D02*
X673947Y273048D01*
X677333D01*
X679026Y271356D01*
Y269663D01*
X677333Y267970D01*
X675640D01*
X677333D01*
X679026Y266277D01*
Y264584D01*
X677333Y262892D01*
X673947D01*
X672254Y264584D01*
X682411Y273048D02*
X689182D01*
Y271356D01*
X682411Y264584D01*
Y262892D01*
X660828Y242572D02*
Y252728D01*
X665906D01*
X667599Y251036D01*
Y247650D01*
X665906Y245957D01*
X660828D01*
X664213D02*
X667599Y242572D01*
X670984Y251036D02*
X672677Y252728D01*
X676063D01*
X677756Y251036D01*
Y249343D01*
X676063Y247650D01*
X674370D01*
X676063D01*
X677756Y245957D01*
Y244264D01*
X676063Y242572D01*
X672677D01*
X670984Y244264D01*
X687912Y252728D02*
X684527Y251036D01*
X681141Y247650D01*
Y244264D01*
X682834Y242572D01*
X686219D01*
X687912Y244264D01*
Y245957D01*
X686219Y247650D01*
X681141D01*
X656514Y235404D02*
X666670D01*
Y230325D01*
X664977Y228633D01*
X661592D01*
X659899Y230325D01*
Y235404D01*
Y232018D02*
X656514Y228633D01*
X664977Y225247D02*
X666670Y223554D01*
Y220169D01*
X664977Y218476D01*
X663285D01*
X661592Y220169D01*
Y221861D01*
Y220169D01*
X659899Y218476D01*
X658206D01*
X656514Y220169D01*
Y223554D01*
X658206Y225247D01*
X666670Y208319D02*
Y215090D01*
X661592D01*
X663285Y211705D01*
Y210012D01*
X661592Y208319D01*
X658206D01*
X656514Y210012D01*
Y213398D01*
X658206Y215090D01*
X487289Y162368D02*
X497445D01*
Y157290D01*
X495753Y155597D01*
X492367D01*
X490674Y157290D01*
Y162368D01*
Y158982D02*
X487289Y155597D01*
X495753Y152211D02*
X497445Y150518D01*
Y147133D01*
X495753Y145440D01*
X494060D01*
X492367Y147133D01*
Y148826D01*
Y147133D01*
X490674Y145440D01*
X488981D01*
X487289Y147133D01*
Y150518D01*
X488981Y152211D01*
X487289Y136976D02*
X497445D01*
X492367Y142055D01*
Y135283D01*
X665478Y176958D02*
X655322D01*
Y182036D01*
X657014Y183729D01*
X660400D01*
X662093Y182036D01*
Y176958D01*
Y180343D02*
X665478Y183729D01*
X657014Y187114D02*
X655322Y188807D01*
Y192193D01*
X657014Y193886D01*
X658707D01*
X660400Y192193D01*
Y190500D01*
Y192193D01*
X662093Y193886D01*
X663786D01*
X665478Y192193D01*
Y188807D01*
X663786Y187114D01*
X657014Y197271D02*
X655322Y198964D01*
Y202349D01*
X657014Y204042D01*
X658707D01*
X660400Y202349D01*
Y200657D01*
Y202349D01*
X662093Y204042D01*
X663786D01*
X665478Y202349D01*
Y198964D01*
X663786Y197271D01*
X665482Y172292D02*
X675638D01*
Y167214D01*
X673946Y165521D01*
X670560D01*
X668867Y167214D01*
Y172292D01*
Y168907D02*
X665482Y165521D01*
X673946Y162136D02*
X675638Y160443D01*
Y157057D01*
X673946Y155364D01*
X672253D01*
X670560Y157057D01*
Y158750D01*
Y157057D01*
X668867Y155364D01*
X667174D01*
X665482Y157057D01*
Y160443D01*
X667174Y162136D01*
X665482Y145208D02*
Y151979D01*
X672253Y145208D01*
X673946D01*
X675638Y146901D01*
Y150286D01*
X673946Y151979D01*
X148081Y344617D02*
Y334460D01*
X143003D01*
X141310Y336153D01*
Y339538D01*
X143003Y341231D01*
X148081D01*
X144696D02*
X141310Y344617D01*
X137924Y336153D02*
X136232Y334460D01*
X132846D01*
X131153Y336153D01*
Y337845D01*
X132846Y339538D01*
X134539D01*
X132846D01*
X131153Y341231D01*
Y342924D01*
X132846Y344617D01*
X136232D01*
X137924Y342924D01*
X127768Y344617D02*
X124382D01*
X126075D01*
Y334460D01*
X127768Y336153D01*
X212544Y325863D02*
Y336020D01*
X217623D01*
X219315Y334327D01*
Y330942D01*
X217623Y329249D01*
X212544D01*
X215930D02*
X219315Y325863D01*
X222701Y334327D02*
X224394Y336020D01*
X227779D01*
X229472Y334327D01*
Y332634D01*
X227779Y330942D01*
X226086D01*
X227779D01*
X229472Y329249D01*
Y327556D01*
X227779Y325863D01*
X224394D01*
X222701Y327556D01*
X232858Y334327D02*
X234550Y336020D01*
X237936D01*
X239629Y334327D01*
Y327556D01*
X237936Y325863D01*
X234550D01*
X232858Y327556D01*
Y334327D01*
X378162Y335181D02*
Y345338D01*
X383241D01*
X384934Y343645D01*
Y340259D01*
X383241Y338567D01*
X378162D01*
X381548D02*
X384934Y335181D01*
X395090D02*
X388319D01*
X395090Y341952D01*
Y343645D01*
X393397Y345338D01*
X390012D01*
X388319Y343645D01*
X398476Y336874D02*
X400169Y335181D01*
X403554D01*
X405247Y336874D01*
Y343645D01*
X403554Y345338D01*
X400169D01*
X398476Y343645D01*
Y341952D01*
X400169Y340259D01*
X405247D01*
X444928Y336552D02*
Y346708D01*
X450006D01*
X451699Y345016D01*
Y341630D01*
X450006Y339937D01*
X444928D01*
X448313D02*
X451699Y336552D01*
X461856D02*
X455084D01*
X461856Y343323D01*
Y345016D01*
X460163Y346708D01*
X456777D01*
X455084Y345016D01*
X465241D02*
X466934Y346708D01*
X470320D01*
X472012Y345016D01*
Y343323D01*
X470320Y341630D01*
X472012Y339937D01*
Y338244D01*
X470320Y336552D01*
X466934D01*
X465241Y338244D01*
Y339937D01*
X466934Y341630D01*
X465241Y343323D01*
Y345016D01*
X466934Y341630D02*
X470320D01*
X633206Y336732D02*
Y346888D01*
X638285D01*
X639977Y345196D01*
Y341810D01*
X638285Y340117D01*
X633206D01*
X636592D02*
X639977Y336732D01*
X650134D02*
X643363D01*
X650134Y343503D01*
Y345196D01*
X648441Y346888D01*
X645056D01*
X643363Y345196D01*
X653520Y346888D02*
X660291D01*
Y345196D01*
X653520Y338424D01*
Y336732D01*
X707388Y330603D02*
Y340760D01*
X712466D01*
X714159Y339067D01*
Y335682D01*
X712466Y333989D01*
X707388D01*
X710774D02*
X714159Y330603D01*
X724316D02*
X717545D01*
X724316Y337375D01*
Y339067D01*
X722623Y340760D01*
X719238D01*
X717545Y339067D01*
X734473Y340760D02*
X731087Y339067D01*
X727701Y335682D01*
Y332296D01*
X729394Y330603D01*
X732780D01*
X734473Y332296D01*
Y333989D01*
X732780Y335682D01*
X727701D01*
X892077Y331875D02*
Y342032D01*
X897155D01*
X898848Y340339D01*
Y336953D01*
X897155Y335261D01*
X892077D01*
X895462D02*
X898848Y331875D01*
X909005D02*
X902233D01*
X909005Y338646D01*
Y340339D01*
X907312Y342032D01*
X903926D01*
X902233Y340339D01*
X919161Y342032D02*
X912390D01*
Y336953D01*
X915776Y338646D01*
X917468D01*
X919161Y336953D01*
Y333568D01*
X917468Y331875D01*
X914083D01*
X912390Y333568D01*
X1012231Y334084D02*
Y344240D01*
X1017310D01*
X1019002Y342547D01*
Y339162D01*
X1017310Y337469D01*
X1012231D01*
X1015617D02*
X1019002Y334084D01*
X1029159D02*
X1022388D01*
X1029159Y340855D01*
Y342547D01*
X1027466Y344240D01*
X1024081D01*
X1022388Y342547D01*
X1037623Y334084D02*
Y344240D01*
X1032545Y339162D01*
X1039316D01*
X383542Y319672D02*
X393698D01*
Y314594D01*
X392006Y312901D01*
X388620D01*
X386927Y314594D01*
Y319672D01*
Y316287D02*
X383542Y312901D01*
Y302744D02*
Y309515D01*
X390313Y302744D01*
X392006D01*
X393698Y304437D01*
Y307823D01*
X392006Y309515D01*
Y299359D02*
X393698Y297666D01*
Y294280D01*
X392006Y292588D01*
X390313D01*
X388620Y294280D01*
Y295973D01*
Y294280D01*
X386927Y292588D01*
X385234D01*
X383542Y294280D01*
Y297666D01*
X385234Y299359D01*
X248078Y227332D02*
Y237488D01*
X253156D01*
X254849Y235796D01*
Y232410D01*
X253156Y230717D01*
X248078D01*
X251463D02*
X254849Y227332D01*
X265006D02*
X258234D01*
X265006Y234103D01*
Y235796D01*
X263313Y237488D01*
X259927D01*
X258234Y235796D01*
X275162Y227332D02*
X268391D01*
X275162Y234103D01*
Y235796D01*
X273470Y237488D01*
X270084D01*
X268391Y235796D01*
X635850Y109222D02*
Y119378D01*
X640929D01*
X642622Y117686D01*
Y114300D01*
X640929Y112607D01*
X635850D01*
X639236D02*
X642622Y109222D01*
X652778D02*
X646007D01*
X652778Y115993D01*
Y117686D01*
X651086Y119378D01*
X647700D01*
X646007Y117686D01*
X656164Y109222D02*
X659549D01*
X657857D01*
Y119378D01*
X656164Y117686D01*
X404307Y182581D02*
Y192738D01*
X409385D01*
X411078Y191045D01*
Y187659D01*
X409385Y185966D01*
X404307D01*
X407692D02*
X411078Y182581D01*
X421235D02*
X414464D01*
X421235Y189352D01*
Y191045D01*
X419542Y192738D01*
X416156D01*
X414464Y191045D01*
X424620D02*
X426313Y192738D01*
X429699D01*
X431391Y191045D01*
Y184274D01*
X429699Y182581D01*
X426313D01*
X424620Y184274D01*
Y191045D01*
X274316Y323848D02*
Y313692D01*
X269237D01*
X267545Y315384D01*
Y318770D01*
X269237Y320463D01*
X274316D01*
X270930D02*
X267545Y323848D01*
X264159D02*
X260774D01*
X262466D01*
Y313692D01*
X264159Y315384D01*
X255695Y322156D02*
X254002Y323848D01*
X250617D01*
X248924Y322156D01*
Y315384D01*
X250617Y313692D01*
X254002D01*
X255695Y315384D01*
Y317077D01*
X254002Y318770D01*
X248924D01*
X468628Y241304D02*
X458472D01*
Y246383D01*
X460164Y248075D01*
X463550D01*
X465243Y246383D01*
Y241304D01*
Y244690D02*
X468628Y248075D01*
Y251461D02*
Y254846D01*
Y253154D01*
X458472D01*
X460164Y251461D01*
Y259925D02*
X458472Y261618D01*
Y265003D01*
X460164Y266696D01*
X461857D01*
X463550Y265003D01*
X465243Y266696D01*
X466936D01*
X468628Y265003D01*
Y261618D01*
X466936Y259925D01*
X465243D01*
X463550Y261618D01*
X461857Y259925D01*
X460164D01*
X463550Y261618D02*
Y265003D01*
X468628Y271784D02*
X458472D01*
Y276863D01*
X460164Y278555D01*
X463550D01*
X465243Y276863D01*
Y271784D01*
Y275170D02*
X468628Y278555D01*
Y281941D02*
Y285326D01*
Y283634D01*
X458472D01*
X460164Y281941D01*
X458472Y290405D02*
Y297176D01*
X460164D01*
X466936Y290405D01*
X468628D01*
X488948Y254004D02*
X478792D01*
Y259083D01*
X480484Y260775D01*
X483870D01*
X485563Y259083D01*
Y254004D01*
Y257390D02*
X488948Y260775D01*
Y264161D02*
Y267546D01*
Y265854D01*
X478792D01*
X480484Y264161D01*
X478792Y279396D02*
X480484Y276010D01*
X483870Y272625D01*
X487256D01*
X488948Y274318D01*
Y277703D01*
X487256Y279396D01*
X485563D01*
X483870Y277703D01*
Y272625D01*
X717554Y110492D02*
Y120648D01*
X722633D01*
X724325Y118956D01*
Y115570D01*
X722633Y113877D01*
X717554D01*
X720940D02*
X724325Y110492D01*
X727711D02*
X731096D01*
X729404D01*
Y120648D01*
X727711Y118956D01*
X742946Y120648D02*
X736175D01*
Y115570D01*
X739560Y117263D01*
X741253D01*
X742946Y115570D01*
Y112184D01*
X741253Y110492D01*
X737868D01*
X736175Y112184D01*
X410577Y108678D02*
Y118834D01*
X415655D01*
X417348Y117141D01*
Y113756D01*
X415655Y112063D01*
X410577D01*
X413962D02*
X417348Y108678D01*
X420733D02*
X424119D01*
X422426D01*
Y118834D01*
X420733Y117141D01*
X434276Y108678D02*
Y118834D01*
X429197Y113756D01*
X435968D01*
X662944Y109222D02*
Y119378D01*
X668023D01*
X669715Y117686D01*
Y114300D01*
X668023Y112607D01*
X662944D01*
X666330D02*
X669715Y109222D01*
X673101D02*
X676486D01*
X674794D01*
Y119378D01*
X673101Y117686D01*
X681565D02*
X683258Y119378D01*
X686643D01*
X688336Y117686D01*
Y115993D01*
X686643Y114300D01*
X684950D01*
X686643D01*
X688336Y112607D01*
Y110914D01*
X686643Y109222D01*
X683258D01*
X681565Y110914D01*
X731522Y171446D02*
X741678D01*
Y166367D01*
X739986Y164675D01*
X736600D01*
X734907Y166367D01*
Y171446D01*
Y168060D02*
X731522Y164675D01*
Y161289D02*
Y157904D01*
Y159596D01*
X741678D01*
X739986Y161289D01*
X731522Y146054D02*
Y152825D01*
X738293Y146054D01*
X739986D01*
X741678Y147747D01*
Y151132D01*
X739986Y152825D01*
X885617Y224792D02*
Y234948D01*
X890695D01*
X892388Y233256D01*
Y229870D01*
X890695Y228177D01*
X885617D01*
X889003D02*
X892388Y224792D01*
X895774D02*
X899159D01*
X897466D01*
Y234948D01*
X895774Y233256D01*
X904238Y224792D02*
X907623D01*
X905930D01*
Y234948D01*
X904238Y233256D01*
X793754Y109222D02*
Y119378D01*
X798832D01*
X800525Y117686D01*
Y114300D01*
X798832Y112607D01*
X793754D01*
X797140D02*
X800525Y109222D01*
X803911D02*
X807296D01*
X805604D01*
Y119378D01*
X803911Y117686D01*
X812375D02*
X814068Y119378D01*
X817453D01*
X819146Y117686D01*
Y110914D01*
X817453Y109222D01*
X814068D01*
X812375Y110914D01*
Y117686D01*
X408712Y203649D02*
X398555D01*
Y208728D01*
X400248Y210420D01*
X403633D01*
X405326Y208728D01*
Y203649D01*
Y207035D02*
X408712Y210420D01*
X407019Y213806D02*
X408712Y215499D01*
Y218885D01*
X407019Y220577D01*
X400248D01*
X398555Y218885D01*
Y215499D01*
X400248Y213806D01*
X401940D01*
X403633Y215499D01*
Y220577D01*
X888156Y162562D02*
Y172718D01*
X893234D01*
X894927Y171026D01*
Y167640D01*
X893234Y165947D01*
X888156D01*
X891542D02*
X894927Y162562D01*
X898313Y171026D02*
X900006Y172718D01*
X903391D01*
X905084Y171026D01*
Y169333D01*
X903391Y167640D01*
X905084Y165947D01*
Y164254D01*
X903391Y162562D01*
X900006D01*
X898313Y164254D01*
Y165947D01*
X900006Y167640D01*
X898313Y169333D01*
Y171026D01*
X900006Y167640D02*
X903391D01*
X737162Y213801D02*
X747319D01*
Y208723D01*
X745626Y207030D01*
X742241D01*
X740548Y208723D01*
Y213801D01*
Y210416D02*
X737162Y207030D01*
X747319Y203645D02*
Y196873D01*
X745626D01*
X738855Y203645D01*
X737162D01*
X531466Y354332D02*
Y364488D01*
X536544D01*
X538237Y362796D01*
Y359410D01*
X536544Y357717D01*
X531466D01*
X534852D02*
X538237Y354332D01*
X548394Y364488D02*
X545008Y362796D01*
X541623Y359410D01*
Y356024D01*
X543316Y354332D01*
X546701D01*
X548394Y356024D01*
Y357717D01*
X546701Y359410D01*
X541623D01*
X748028Y175686D02*
X737872D01*
Y180764D01*
X739564Y182457D01*
X742950D01*
X744643Y180764D01*
Y175686D01*
Y179072D02*
X748028Y182457D01*
X737872Y192614D02*
Y185843D01*
X742950D01*
X741257Y189228D01*
Y190921D01*
X742950Y192614D01*
X746336D01*
X748028Y190921D01*
Y187536D01*
X746336Y185843D01*
X703389Y206866D02*
X713545D01*
Y201787D01*
X711853Y200095D01*
X708467D01*
X706774Y201787D01*
Y206866D01*
Y203480D02*
X703389Y200095D01*
Y191631D02*
X713545D01*
X708467Y196709D01*
Y189938D01*
X572772Y345014D02*
X582928D01*
Y339936D01*
X581236Y338243D01*
X577850D01*
X576157Y339936D01*
Y345014D01*
Y341628D02*
X572772Y338243D01*
X581236Y334857D02*
X582928Y333164D01*
Y329779D01*
X581236Y328086D01*
X579543D01*
X577850Y329779D01*
Y331472D01*
Y329779D01*
X576157Y328086D01*
X574464D01*
X572772Y329779D01*
Y333164D01*
X574464Y334857D01*
X501648Y289986D02*
X491492D01*
Y295064D01*
X493184Y296757D01*
X496570D01*
X498263Y295064D01*
Y289986D01*
Y293372D02*
X501648Y296757D01*
Y306914D02*
Y300143D01*
X494877Y306914D01*
X493184D01*
X491492Y305221D01*
Y301836D01*
X493184Y300143D01*
X601546Y289576D02*
X591389D01*
Y294655D01*
X593082Y296347D01*
X596468D01*
X598160Y294655D01*
Y289576D01*
Y292962D02*
X601546Y296347D01*
Y299733D02*
Y303118D01*
Y301426D01*
X591389D01*
X593082Y299733D01*
X198122Y292942D02*
X208278D01*
Y287864D01*
X206586Y286171D01*
X203200D01*
X201507Y287864D01*
Y292942D01*
X198122Y282785D02*
X208278D01*
X204893Y279400D01*
X208278Y276014D01*
X198122D01*
Y265858D02*
Y272629D01*
X204893Y265858D01*
X206586D01*
X208278Y267551D01*
Y270936D01*
X206586Y272629D01*
X948272Y219650D02*
X958428D01*
Y214571D01*
X956736Y212878D01*
X953350D01*
X951657Y214571D01*
Y219650D01*
X948272Y209493D02*
X958428D01*
X955043Y206107D01*
X958428Y202722D01*
X948272D01*
Y199336D02*
Y195951D01*
Y197643D01*
X958428D01*
X956736Y199336D01*
X644450Y299316D02*
Y289160D01*
X639371D01*
X637678Y290852D01*
Y294238D01*
X639371Y295931D01*
X644450D01*
X629215Y299316D02*
Y289160D01*
X634293Y294238D01*
X627522D01*
X624136Y290852D02*
X622443Y289160D01*
X619058D01*
X617365Y290852D01*
Y292545D01*
X619058Y294238D01*
X617365Y295931D01*
Y297623D01*
X619058Y299316D01*
X622443D01*
X624136Y297623D01*
Y295931D01*
X622443Y294238D01*
X624136Y292545D01*
Y290852D01*
X622443Y294238D02*
X619058D01*
X607208Y289160D02*
X613979D01*
Y294238D01*
X610594Y292545D01*
X608901D01*
X607208Y294238D01*
Y297623D01*
X608901Y299316D01*
X612287D01*
X613979Y297623D01*
X418679Y337822D02*
Y347978D01*
X423757D01*
X425450Y346286D01*
Y342900D01*
X423757Y341207D01*
X418679D01*
X428836Y337822D02*
X432221D01*
X430528D01*
Y347978D01*
X428836Y346286D01*
X528747Y309878D02*
X532132D01*
X530440D01*
Y299722D01*
X528747D01*
X532132D01*
X543982Y308186D02*
X542289Y309878D01*
X538904D01*
X537211Y308186D01*
Y301414D01*
X538904Y299722D01*
X542289D01*
X543982Y301414D01*
X547368Y299722D02*
X550753D01*
X549060D01*
Y309878D01*
X547368Y308186D01*
X649674Y236710D02*
X651367Y238403D01*
Y241788D01*
X649674Y243481D01*
X642903D01*
X641210Y241788D01*
Y238403D01*
X642903Y236710D01*
X641210Y228246D02*
X651367D01*
X646288Y233324D01*
Y226553D01*
X641210Y218089D02*
X651367D01*
X646288Y223167D01*
Y216396D01*
X503344Y134199D02*
X501652Y132506D01*
Y129121D01*
X503344Y127428D01*
X510116D01*
X511808Y129121D01*
Y132506D01*
X510116Y134199D01*
X511808Y142663D02*
X501652D01*
X506730Y137584D01*
Y144356D01*
X503344Y147741D02*
X501652Y149434D01*
Y152819D01*
X503344Y154512D01*
X505037D01*
X506730Y152819D01*
Y151127D01*
Y152819D01*
X508423Y154512D01*
X510116D01*
X511808Y152819D01*
Y149434D01*
X510116Y147741D01*
X639659Y146896D02*
X637966Y148588D01*
X634580D01*
X632888Y146896D01*
Y140124D01*
X634580Y138432D01*
X637966D01*
X639659Y140124D01*
X648123Y138432D02*
Y148588D01*
X643044Y143510D01*
X649816D01*
X659972Y138432D02*
X653201D01*
X659972Y145203D01*
Y146896D01*
X658279Y148588D01*
X654894D01*
X653201Y146896D01*
X516892Y121496D02*
X515199Y123188D01*
X511813D01*
X510121Y121496D01*
Y114724D01*
X511813Y113032D01*
X515199D01*
X516892Y114724D01*
X525356Y113032D02*
Y123188D01*
X520277Y118110D01*
X527048D01*
X530434Y113032D02*
X533820D01*
X532127D01*
Y123188D01*
X530434Y121496D01*
X314637Y195052D02*
X312944Y196744D01*
X309559D01*
X307866Y195052D01*
Y188281D01*
X309559Y186588D01*
X312944D01*
X314637Y188281D01*
X323101Y186588D02*
Y196744D01*
X318022Y191666D01*
X324794D01*
X328179Y195052D02*
X329872Y196744D01*
X333257D01*
X334950Y195052D01*
Y188281D01*
X333257Y186588D01*
X329872D01*
X328179Y188281D01*
Y195052D01*
X302218Y272817D02*
X303911Y274510D01*
Y277896D01*
X302218Y279588D01*
X295447D01*
X293754Y277896D01*
Y274510D01*
X295447Y272817D01*
X302218Y269432D02*
X303911Y267739D01*
Y264353D01*
X302218Y262660D01*
X300525D01*
X298833Y264353D01*
Y266046D01*
Y264353D01*
X297140Y262660D01*
X295447D01*
X293754Y264353D01*
Y267739D01*
X295447Y269432D01*
Y259275D02*
X293754Y257582D01*
Y254196D01*
X295447Y252504D01*
X302218D01*
X303911Y254196D01*
Y257582D01*
X302218Y259275D01*
X300525D01*
X298833Y257582D01*
Y252504D01*
X979621Y258976D02*
X981313Y260669D01*
Y264054D01*
X979621Y265747D01*
X972849D01*
X971157Y264054D01*
Y260669D01*
X972849Y258976D01*
X979621Y255590D02*
X981313Y253897D01*
Y250512D01*
X979621Y248819D01*
X977928D01*
X976235Y250512D01*
Y252205D01*
Y250512D01*
X974542Y248819D01*
X972849D01*
X971157Y250512D01*
Y253897D01*
X972849Y255590D01*
X979621Y245434D02*
X981313Y243741D01*
Y240355D01*
X979621Y238662D01*
X977928D01*
X976235Y240355D01*
X974542Y238662D01*
X972849D01*
X971157Y240355D01*
Y243741D01*
X972849Y245434D01*
X974542D01*
X976235Y243741D01*
X977928Y245434D01*
X979621D01*
X976235Y243741D02*
Y240355D01*
X1053679Y225636D02*
X1051986Y227328D01*
X1048600D01*
X1046908Y225636D01*
Y218864D01*
X1048600Y217172D01*
X1051986D01*
X1053679Y218864D01*
X1057064Y225636D02*
X1058757Y227328D01*
X1062143D01*
X1063836Y225636D01*
Y223943D01*
X1062143Y222250D01*
X1060450D01*
X1062143D01*
X1063836Y220557D01*
Y218864D01*
X1062143Y217172D01*
X1058757D01*
X1057064Y218864D01*
X1067221Y227328D02*
X1073992D01*
Y225636D01*
X1067221Y218864D01*
Y217172D01*
X107529Y79987D02*
X105836Y81680D01*
X102451D01*
X100758Y79987D01*
Y73216D01*
X102451Y71523D01*
X105836D01*
X107529Y73216D01*
X110914Y79987D02*
X112607Y81680D01*
X115993D01*
X117686Y79987D01*
Y78294D01*
X115993Y76601D01*
X114300D01*
X115993D01*
X117686Y74908D01*
Y73216D01*
X115993Y71523D01*
X112607D01*
X110914Y73216D01*
X127842Y81680D02*
X124457Y79987D01*
X121071Y76601D01*
Y73216D01*
X122764Y71523D01*
X126150D01*
X127842Y73216D01*
Y74908D01*
X126150Y76601D01*
X121071D01*
X215479Y104986D02*
X213786Y106678D01*
X210401D01*
X208708Y104986D01*
Y98214D01*
X210401Y96522D01*
X213786D01*
X215479Y98214D01*
X218864Y104986D02*
X220557Y106678D01*
X223943D01*
X225636Y104986D01*
Y103293D01*
X223943Y101600D01*
X222250D01*
X223943D01*
X225636Y99907D01*
Y98214D01*
X223943Y96522D01*
X220557D01*
X218864Y98214D01*
X235792Y106678D02*
X229021D01*
Y101600D01*
X232407Y103293D01*
X234100D01*
X235792Y101600D01*
Y98214D01*
X234100Y96522D01*
X230714D01*
X229021Y98214D01*
X407709Y307972D02*
X409402Y309664D01*
Y313050D01*
X407709Y314743D01*
X400938D01*
X399245Y313050D01*
Y309664D01*
X400938Y307972D01*
X407709Y304586D02*
X409402Y302893D01*
Y299508D01*
X407709Y297815D01*
X406017D01*
X404324Y299508D01*
Y301200D01*
Y299508D01*
X402631Y297815D01*
X400938D01*
X399245Y299508D01*
Y302893D01*
X400938Y304586D01*
X399245Y289351D02*
X409402D01*
X404324Y294429D01*
Y287658D01*
X327365Y211564D02*
X325672Y213257D01*
X322287D01*
X320594Y211564D01*
Y204793D01*
X322287Y203100D01*
X325672D01*
X327365Y204793D01*
X330751Y211564D02*
X332444Y213257D01*
X335829D01*
X337522Y211564D01*
Y209871D01*
X335829Y208179D01*
X334136D01*
X335829D01*
X337522Y206486D01*
Y204793D01*
X335829Y203100D01*
X332444D01*
X330751Y204793D01*
X340907Y211564D02*
X342600Y213257D01*
X345986D01*
X347678Y211564D01*
Y209871D01*
X345986Y208179D01*
X344293D01*
X345986D01*
X347678Y206486D01*
Y204793D01*
X345986Y203100D01*
X342600D01*
X340907Y204793D01*
X295641Y332107D02*
X293948Y330415D01*
Y327029D01*
X295641Y325336D01*
X302412D01*
X304105Y327029D01*
Y330415D01*
X302412Y332107D01*
X295641Y335493D02*
X293948Y337186D01*
Y340571D01*
X295641Y342264D01*
X297334D01*
X299027Y340571D01*
Y338879D01*
Y340571D01*
X300720Y342264D01*
X302412D01*
X304105Y340571D01*
Y337186D01*
X302412Y335493D01*
X304105Y352421D02*
Y345650D01*
X297334Y352421D01*
X295641D01*
X293948Y350728D01*
Y347342D01*
X295641Y345650D01*
X525782Y50376D02*
X524089Y52068D01*
X520703D01*
X519011Y50376D01*
Y43604D01*
X520703Y41912D01*
X524089D01*
X525782Y43604D01*
X529167Y50376D02*
X530860Y52068D01*
X534246D01*
X535938Y50376D01*
Y48683D01*
X534246Y46990D01*
X532553D01*
X534246D01*
X535938Y45297D01*
Y43604D01*
X534246Y41912D01*
X530860D01*
X529167Y43604D01*
X539324Y41912D02*
X542710D01*
X541017D01*
Y52068D01*
X539324Y50376D01*
X578699D02*
X577006Y52068D01*
X573620D01*
X571928Y50376D01*
Y43604D01*
X573620Y41912D01*
X577006D01*
X578699Y43604D01*
X582084Y50376D02*
X583777Y52068D01*
X587163D01*
X588856Y50376D01*
Y48683D01*
X587163Y46990D01*
X585470D01*
X587163D01*
X588856Y45297D01*
Y43604D01*
X587163Y41912D01*
X583777D01*
X582084Y43604D01*
X592241Y50376D02*
X593934Y52068D01*
X597319D01*
X599012Y50376D01*
Y43604D01*
X597319Y41912D01*
X593934D01*
X592241Y43604D01*
Y50376D01*
X390736Y209971D02*
X392428Y211664D01*
Y215049D01*
X390736Y216742D01*
X383964D01*
X382272Y215049D01*
Y211664D01*
X383964Y209971D01*
X382272Y199814D02*
Y206586D01*
X389043Y199814D01*
X390736D01*
X392428Y201507D01*
Y204893D01*
X390736Y206586D01*
X383964Y196429D02*
X382272Y194736D01*
Y191350D01*
X383964Y189658D01*
X390736D01*
X392428Y191350D01*
Y194736D01*
X390736Y196429D01*
X389043D01*
X387350Y194736D01*
Y189658D01*
X645610Y132265D02*
X643917Y133957D01*
X640532D01*
X638839Y132265D01*
Y125493D01*
X640532Y123801D01*
X643917D01*
X645610Y125493D01*
X655767Y123801D02*
X648996D01*
X655767Y130572D01*
Y132265D01*
X654074Y133957D01*
X650688D01*
X648996Y132265D01*
X659152D02*
X660845Y133957D01*
X664231D01*
X665923Y132265D01*
Y130572D01*
X664231Y128879D01*
X665923Y127186D01*
Y125493D01*
X664231Y123801D01*
X660845D01*
X659152Y125493D01*
Y127186D01*
X660845Y128879D01*
X659152Y130572D01*
Y132265D01*
X660845Y128879D02*
X664231D01*
X37679Y384386D02*
X35986Y386078D01*
X32601D01*
X30908Y384386D01*
Y377614D01*
X32601Y375922D01*
X35986D01*
X37679Y377614D01*
X47836Y375922D02*
X41064D01*
X47836Y382693D01*
Y384386D01*
X46143Y386078D01*
X42757D01*
X41064Y384386D01*
X51221Y386078D02*
X57992D01*
Y384386D01*
X51221Y377614D01*
Y375922D01*
X706966Y159171D02*
X708658Y160864D01*
Y164249D01*
X706966Y165942D01*
X700194D01*
X698502Y164249D01*
Y160864D01*
X700194Y159171D01*
X698502Y149014D02*
Y155786D01*
X705273Y149014D01*
X706966D01*
X708658Y150707D01*
Y154093D01*
X706966Y155786D01*
X708658Y138858D02*
X706966Y142243D01*
X703580Y145629D01*
X700194D01*
X698502Y143936D01*
Y140550D01*
X700194Y138858D01*
X701887D01*
X703580Y140550D01*
Y145629D01*
X757907Y49585D02*
X756214Y51278D01*
X752829D01*
X751136Y49585D01*
Y42814D01*
X752829Y41121D01*
X756214D01*
X757907Y42814D01*
X768064Y41121D02*
X761293D01*
X768064Y47892D01*
Y49585D01*
X766371Y51278D01*
X762985D01*
X761293Y49585D01*
X778221Y51278D02*
X771449D01*
Y46200D01*
X774835Y47892D01*
X776528D01*
X778221Y46200D01*
Y42814D01*
X776528Y41121D01*
X773142D01*
X771449Y42814D01*
X489374Y229449D02*
X487682Y227756D01*
Y224370D01*
X489374Y222678D01*
X496146D01*
X497838Y224370D01*
Y227756D01*
X496146Y229449D01*
X497838Y239606D02*
Y232834D01*
X491067Y239606D01*
X489374D01*
X487682Y237913D01*
Y234527D01*
X489374Y232834D01*
X497838Y248069D02*
X487682D01*
X492760Y242991D01*
Y249762D01*
X186266Y369991D02*
X187958Y371684D01*
Y375070D01*
X186266Y376762D01*
X179494D01*
X177802Y375070D01*
Y371684D01*
X179494Y369991D01*
X177802Y359834D02*
Y366606D01*
X184573Y359834D01*
X186266D01*
X187958Y361527D01*
Y364913D01*
X186266Y366606D01*
Y356449D02*
X187958Y354756D01*
Y351371D01*
X186266Y349678D01*
X184573D01*
X182880Y351371D01*
Y353063D01*
Y351371D01*
X181187Y349678D01*
X179494D01*
X177802Y351371D01*
Y354756D01*
X179494Y356449D01*
X436459Y50376D02*
X434766Y52068D01*
X431381D01*
X429688Y50376D01*
Y43604D01*
X431381Y41912D01*
X434766D01*
X436459Y43604D01*
X446616Y41912D02*
X439844D01*
X446616Y48683D01*
Y50376D01*
X444923Y52068D01*
X441537D01*
X439844Y50376D01*
X456772Y41912D02*
X450001D01*
X456772Y48683D01*
Y50376D01*
X455079Y52068D01*
X451694D01*
X450001Y50376D01*
X680722Y131656D02*
X679029Y133348D01*
X675643D01*
X673951Y131656D01*
Y124884D01*
X675643Y123192D01*
X679029D01*
X680722Y124884D01*
X690878Y123192D02*
X684107D01*
X690878Y129963D01*
Y131656D01*
X689186Y133348D01*
X685800D01*
X684107Y131656D01*
X694264Y123192D02*
X697650D01*
X695957D01*
Y133348D01*
X694264Y131656D01*
X1104055Y79586D02*
X1102363Y81278D01*
X1098977D01*
X1097284Y79586D01*
Y72814D01*
X1098977Y71122D01*
X1102363D01*
X1104055Y72814D01*
X1107441Y71122D02*
X1110826D01*
X1109134D01*
Y81278D01*
X1107441Y79586D01*
X1115905Y72814D02*
X1117598Y71122D01*
X1120983D01*
X1122676Y72814D01*
Y79586D01*
X1120983Y81278D01*
X1117598D01*
X1115905Y79586D01*
Y77893D01*
X1117598Y76200D01*
X1122676D01*
X996105Y80856D02*
X994413Y82548D01*
X991027D01*
X989334Y80856D01*
Y74084D01*
X991027Y72392D01*
X994413D01*
X996105Y74084D01*
X999491Y72392D02*
X1002876D01*
X1001184D01*
Y82548D01*
X999491Y80856D01*
X1007955D02*
X1009648Y82548D01*
X1013033D01*
X1014726Y80856D01*
Y79163D01*
X1013033Y77470D01*
X1014726Y75777D01*
Y74084D01*
X1013033Y72392D01*
X1009648D01*
X1007955Y74084D01*
Y75777D01*
X1009648Y77470D01*
X1007955Y79163D01*
Y80856D01*
X1009648Y77470D02*
X1013033D01*
X943353Y116003D02*
X941661Y114310D01*
Y110925D01*
X943353Y109232D01*
X950124D01*
X951817Y110925D01*
Y114310D01*
X950124Y116003D01*
X951817Y119389D02*
Y122774D01*
Y121081D01*
X941661D01*
X943353Y119389D01*
X941661Y127853D02*
Y134624D01*
X943353D01*
X950124Y127853D01*
X951817D01*
X853864Y235375D02*
X852172Y233682D01*
Y230297D01*
X853864Y228604D01*
X860636D01*
X862328Y230297D01*
Y233682D01*
X860636Y235375D01*
X862328Y238761D02*
Y242146D01*
Y240454D01*
X852172D01*
X853864Y238761D01*
X852172Y253996D02*
X853864Y250610D01*
X857250Y247225D01*
X860636D01*
X862328Y248918D01*
Y252303D01*
X860636Y253996D01*
X858943D01*
X857250Y252303D01*
Y247225D01*
X674696Y49907D02*
X673003Y51600D01*
X669617D01*
X667924Y49907D01*
Y43136D01*
X669617Y41443D01*
X673003D01*
X674696Y43136D01*
X678081Y41443D02*
X681467D01*
X679774D01*
Y51600D01*
X678081Y49907D01*
X693316Y51600D02*
X686545D01*
Y46522D01*
X689931Y48215D01*
X691624D01*
X693316Y46522D01*
Y43136D01*
X691624Y41443D01*
X688238D01*
X686545Y43136D01*
X724746Y163405D02*
X726438Y165098D01*
Y168483D01*
X724746Y170176D01*
X717974D01*
X716282Y168483D01*
Y165098D01*
X717974Y163405D01*
X716282Y160019D02*
Y156634D01*
Y158326D01*
X726438D01*
X724746Y160019D01*
X716282Y146477D02*
X726438D01*
X721360Y151555D01*
Y144784D01*
X743375Y257386D02*
X741683Y259078D01*
X738297D01*
X736604Y257386D01*
Y250614D01*
X738297Y248922D01*
X741683D01*
X743375Y250614D01*
X746761Y248922D02*
X750146D01*
X748454D01*
Y259078D01*
X746761Y257386D01*
X755225D02*
X756918Y259078D01*
X760303D01*
X761996Y257386D01*
Y255693D01*
X760303Y254000D01*
X758610D01*
X760303D01*
X761996Y252307D01*
Y250614D01*
X760303Y248922D01*
X756918D01*
X755225Y250614D01*
X434764Y368725D02*
X433072Y367033D01*
Y363647D01*
X434764Y361954D01*
X441536D01*
X443228Y363647D01*
Y367033D01*
X441536Y368725D01*
X443228Y372111D02*
Y375496D01*
Y373804D01*
X433072D01*
X434764Y372111D01*
X443228Y387346D02*
Y380575D01*
X436457Y387346D01*
X434764D01*
X433072Y385653D01*
Y382268D01*
X434764Y380575D01*
X860636Y124882D02*
X862328Y126575D01*
Y129960D01*
X860636Y131653D01*
X853864D01*
X852172Y129960D01*
Y126575D01*
X853864Y124882D01*
X852172Y121496D02*
Y118111D01*
Y119804D01*
X862328D01*
X860636Y121496D01*
X852172Y113032D02*
Y109647D01*
Y111340D01*
X862328D01*
X860636Y113032D01*
X838725Y48098D02*
X837032Y49791D01*
X833647D01*
X831954Y48098D01*
Y41327D01*
X833647Y39634D01*
X837032D01*
X838725Y41327D01*
X842111Y39634D02*
X845496D01*
X843804D01*
Y49791D01*
X842111Y48098D01*
X850575D02*
X852268Y49791D01*
X855653D01*
X857346Y48098D01*
Y41327D01*
X855653Y39634D01*
X852268D01*
X850575Y41327D01*
Y48098D01*
X457624Y196427D02*
X455932Y194734D01*
Y191349D01*
X457624Y189656D01*
X464396D01*
X466088Y191349D01*
Y194734D01*
X464396Y196427D01*
Y199813D02*
X466088Y201506D01*
Y204891D01*
X464396Y206584D01*
X457624D01*
X455932Y204891D01*
Y201506D01*
X457624Y199813D01*
X459317D01*
X461010Y201506D01*
Y206584D01*
X752686Y230293D02*
X754378Y231986D01*
Y235371D01*
X752686Y237064D01*
X745914D01*
X744222Y235371D01*
Y231986D01*
X745914Y230293D01*
X752686Y226907D02*
X754378Y225214D01*
Y221829D01*
X752686Y220136D01*
X750993D01*
X749300Y221829D01*
X747607Y220136D01*
X745914D01*
X744222Y221829D01*
Y225214D01*
X745914Y226907D01*
X747607D01*
X749300Y225214D01*
X750993Y226907D01*
X752686D01*
X749300Y225214D02*
Y221829D01*
X581044Y385166D02*
X579351Y383474D01*
Y380088D01*
X581044Y378395D01*
X587815D01*
X589508Y380088D01*
Y383474D01*
X587815Y385166D01*
X579351Y388552D02*
Y395323D01*
X581044D01*
X587815Y388552D01*
X589508D01*
X481754Y325967D02*
X480062Y324274D01*
Y320889D01*
X481754Y319196D01*
X488526D01*
X490218Y320889D01*
Y324274D01*
X488526Y325967D01*
X480062Y336124D02*
X481754Y332738D01*
X485140Y329353D01*
X488526D01*
X490218Y331046D01*
Y334431D01*
X488526Y336124D01*
X486833D01*
X485140Y334431D01*
Y329353D01*
X688764Y360257D02*
X687072Y358564D01*
Y355179D01*
X688764Y353486D01*
X695536D01*
X697228Y355179D01*
Y358564D01*
X695536Y360257D01*
X687072Y370414D02*
Y363643D01*
X692150D01*
X690457Y367028D01*
Y368721D01*
X692150Y370414D01*
X695536D01*
X697228Y368721D01*
Y365336D01*
X695536Y363643D01*
X815764Y360257D02*
X814072Y358564D01*
Y355179D01*
X815764Y353486D01*
X822536D01*
X824228Y355179D01*
Y358564D01*
X822536Y360257D01*
X824228Y368721D02*
X814072D01*
X819150Y363643D01*
Y370414D01*
X1108287Y308186D02*
X1106594Y309878D01*
X1103209D01*
X1101516Y308186D01*
Y301414D01*
X1103209Y299722D01*
X1106594D01*
X1108287Y301414D01*
X1111673Y308186D02*
X1113366Y309878D01*
X1116751D01*
X1118444Y308186D01*
Y306493D01*
X1116751Y304800D01*
X1115058D01*
X1116751D01*
X1118444Y303107D01*
Y301414D01*
X1116751Y299722D01*
X1113366D01*
X1111673Y301414D01*
X1110827Y422486D02*
X1109134Y424178D01*
X1105749D01*
X1104056Y422486D01*
Y415714D01*
X1105749Y414022D01*
X1109134D01*
X1110827Y415714D01*
X1120984Y414022D02*
X1114213D01*
X1120984Y420793D01*
Y422486D01*
X1119291Y424178D01*
X1115906D01*
X1114213Y422486D01*
X942764Y368300D02*
X941072Y366607D01*
Y363222D01*
X942764Y361529D01*
X949536D01*
X951228Y363222D01*
Y366607D01*
X949536Y368300D01*
X951228Y371686D02*
Y375071D01*
Y373378D01*
X941072D01*
X942764Y371686D01*
X1111254Y229872D02*
X1114640D01*
X1112947D01*
Y240028D01*
X1111254Y238336D01*
X1126489Y229872D02*
X1119718D01*
X1126489Y236643D01*
Y238336D01*
X1124796Y240028D01*
X1121411D01*
X1119718Y238336D01*
X1129875Y240028D02*
Y233257D01*
X1133260Y229872D01*
X1136646Y233257D01*
Y240028D01*
X1015957Y189228D02*
X1009186D01*
Y184150D01*
X1012572Y185843D01*
X1014264D01*
X1015957Y184150D01*
Y180764D01*
X1014264Y179072D01*
X1010879D01*
X1009186Y180764D01*
X1019343Y189228D02*
Y182457D01*
X1022728Y179072D01*
X1026114Y182457D01*
Y189228D01*
M02*
