G04*
G04 #@! TF.GenerationSoftware,Altium Limited,Altium Designer,23.4.1 (23)*
G04*
G04 Layer_Color=8388736*
%FSLAX44Y44*%
%MOMM*%
G71*
G04*
G04 #@! TF.SameCoordinates,69872263-788E-4E38-85BF-5BAD4D7AD8B8*
G04*
G04*
G04 #@! TF.FilePolarity,Negative*
G04*
G01*
G75*
%ADD21R,0.5200X0.5200*%
%ADD26R,0.5200X0.5200*%
%ADD29R,0.8721X1.0043*%
G04:AMPARAMS|DCode=30|XSize=1.0043mm|YSize=0.8721mm|CornerRadius=0.4361mm|HoleSize=0mm|Usage=FLASHONLY|Rotation=90.000|XOffset=0mm|YOffset=0mm|HoleType=Round|Shape=RoundedRectangle|*
%AMROUNDEDRECTD30*
21,1,1.0043,0.0000,0,0,90.0*
21,1,0.1322,0.8721,0,0,90.0*
1,1,0.8721,0.0000,0.0661*
1,1,0.8721,0.0000,-0.0661*
1,1,0.8721,0.0000,-0.0661*
1,1,0.8721,0.0000,0.0661*
%
%ADD30ROUNDEDRECTD30*%
G04:AMPARAMS|DCode=31|XSize=1.0043mm|YSize=3.1821mm|CornerRadius=0.4369mm|HoleSize=0mm|Usage=FLASHONLY|Rotation=90.000|XOffset=0mm|YOffset=0mm|HoleType=Round|Shape=RoundedRectangle|*
%AMROUNDEDRECTD31*
21,1,1.0043,2.3084,0,0,90.0*
21,1,0.1306,3.1821,0,0,90.0*
1,1,0.8737,1.1542,0.0653*
1,1,0.8737,1.1542,-0.0653*
1,1,0.8737,-1.1542,-0.0653*
1,1,0.8737,-1.1542,0.0653*
%
%ADD31ROUNDEDRECTD31*%
G04:AMPARAMS|DCode=36|XSize=3.3032mm|YSize=5.3832mm|CornerRadius=0.1481mm|HoleSize=0mm|Usage=FLASHONLY|Rotation=180.000|XOffset=0mm|YOffset=0mm|HoleType=Round|Shape=RoundedRectangle|*
%AMROUNDEDRECTD36*
21,1,3.3032,5.0870,0,0,180.0*
21,1,3.0070,5.3832,0,0,180.0*
1,1,0.2962,-1.5035,2.5435*
1,1,0.2962,1.5035,2.5435*
1,1,0.2962,1.5035,-2.5435*
1,1,0.2962,-1.5035,-2.5435*
%
%ADD36ROUNDEDRECTD36*%
G04:AMPARAMS|DCode=37|XSize=0.5532mm|YSize=1.4532mm|CornerRadius=0.1524mm|HoleSize=0mm|Usage=FLASHONLY|Rotation=270.000|XOffset=0mm|YOffset=0mm|HoleType=Round|Shape=RoundedRectangle|*
%AMROUNDEDRECTD37*
21,1,0.5532,1.1485,0,0,270.0*
21,1,0.2485,1.4532,0,0,270.0*
1,1,0.3047,-0.5743,-0.1243*
1,1,0.3047,-0.5743,0.1243*
1,1,0.3047,0.5743,0.1243*
1,1,0.3047,0.5743,-0.1243*
%
%ADD37ROUNDEDRECTD37*%
%ADD38O,0.5032X2.0032*%
%ADD39O,2.0032X0.5032*%
%ADD40R,5.8532X7.0032*%
%ADD41R,1.0532X2.2532*%
%ADD42R,0.6532X0.7032*%
%ADD43R,0.7032X0.6532*%
%ADD44R,1.0532X1.1032*%
%ADD45R,1.4032X1.6032*%
%ADD46R,1.5032X1.9032*%
%ADD47R,1.9032X1.5032*%
%ADD48R,3.5032X1.4532*%
%ADD49R,0.8532X1.7282*%
%ADD50C,1.8032*%
%ADD51C,1.4722*%
%ADD52C,1.5032*%
%ADD53R,1.5032X1.5032*%
%ADD54R,1.5032X1.5032*%
%ADD55C,1.7032*%
%ADD56R,1.7032X1.7032*%
%ADD57C,3.4000*%
%ADD58R,1.7032X1.7032*%
D21*
X929640Y127190D02*
D03*
Y119190D02*
D03*
X299071Y288128D02*
D03*
Y296128D02*
D03*
X476003Y194652D02*
D03*
Y202652D02*
D03*
X857250Y150050D02*
D03*
Y142050D02*
D03*
X856803Y167001D02*
D03*
Y159002D02*
D03*
X496570Y213550D02*
D03*
Y205550D02*
D03*
X622300Y147700D02*
D03*
Y139700D02*
D03*
X299073Y308070D02*
D03*
Y316070D02*
D03*
X508000Y161100D02*
D03*
Y169100D02*
D03*
X628650Y236600D02*
D03*
Y228600D02*
D03*
X298347Y235631D02*
D03*
Y243631D02*
D03*
X857250Y222250D02*
D03*
Y214250D02*
D03*
X768350Y222250D02*
D03*
Y230250D02*
D03*
X387350Y234950D02*
D03*
Y226950D02*
D03*
X501650Y331850D02*
D03*
Y323850D02*
D03*
X329768Y359697D02*
D03*
Y367697D02*
D03*
X202774Y368558D02*
D03*
Y360558D02*
D03*
X965200Y368300D02*
D03*
Y360300D02*
D03*
X838200Y368300D02*
D03*
Y360300D02*
D03*
X711200Y368300D02*
D03*
Y360300D02*
D03*
X584430Y367809D02*
D03*
Y359809D02*
D03*
X457200Y368300D02*
D03*
Y360300D02*
D03*
D26*
X596014Y126103D02*
D03*
X604014D02*
D03*
X615040Y126369D02*
D03*
X623040D02*
D03*
X569487Y117975D02*
D03*
X577486D02*
D03*
X549040Y117768D02*
D03*
X557040D02*
D03*
X516700Y133350D02*
D03*
X524700D02*
D03*
X585660Y134620D02*
D03*
X577660D02*
D03*
X298450Y196850D02*
D03*
X290450D02*
D03*
X66488Y398757D02*
D03*
X74488D02*
D03*
D29*
X999450Y246450D02*
D03*
D30*
X1022350D02*
D03*
X1045250D02*
D03*
D31*
X1022350Y312350D02*
D03*
D36*
X812800Y190500D02*
D03*
X342900Y266700D02*
D03*
D37*
X784050Y232750D02*
D03*
Y226250D02*
D03*
Y219750D02*
D03*
Y213250D02*
D03*
Y206750D02*
D03*
Y200250D02*
D03*
Y193750D02*
D03*
Y187250D02*
D03*
Y180750D02*
D03*
Y174250D02*
D03*
Y167750D02*
D03*
Y161250D02*
D03*
Y154750D02*
D03*
Y148250D02*
D03*
X841550Y232750D02*
D03*
Y226250D02*
D03*
Y219750D02*
D03*
Y213250D02*
D03*
Y206750D02*
D03*
Y200250D02*
D03*
Y193750D02*
D03*
Y187250D02*
D03*
Y180750D02*
D03*
Y174250D02*
D03*
Y167750D02*
D03*
Y161250D02*
D03*
Y154750D02*
D03*
Y148250D02*
D03*
X314150Y308950D02*
D03*
Y302450D02*
D03*
Y295950D02*
D03*
Y289450D02*
D03*
Y282950D02*
D03*
Y276450D02*
D03*
Y269950D02*
D03*
Y263450D02*
D03*
Y256950D02*
D03*
Y250450D02*
D03*
Y243950D02*
D03*
Y237450D02*
D03*
Y230950D02*
D03*
Y224450D02*
D03*
X371650Y308950D02*
D03*
Y302450D02*
D03*
Y295950D02*
D03*
Y289450D02*
D03*
Y282950D02*
D03*
Y276450D02*
D03*
Y269950D02*
D03*
Y263450D02*
D03*
Y256950D02*
D03*
Y250450D02*
D03*
Y243950D02*
D03*
Y237450D02*
D03*
Y230950D02*
D03*
Y224450D02*
D03*
D38*
X537650Y156350D02*
D03*
X542650D02*
D03*
X547650D02*
D03*
X552650D02*
D03*
X557650D02*
D03*
X562650D02*
D03*
X567650D02*
D03*
X572650D02*
D03*
X577650D02*
D03*
X582650D02*
D03*
X587650D02*
D03*
X592650D02*
D03*
Y237350D02*
D03*
X587650D02*
D03*
X582650D02*
D03*
X577650D02*
D03*
X572650D02*
D03*
X567650D02*
D03*
X562650D02*
D03*
X557650D02*
D03*
X552650D02*
D03*
X547650D02*
D03*
X542650D02*
D03*
X537650D02*
D03*
D39*
X605650Y169350D02*
D03*
Y174350D02*
D03*
Y179350D02*
D03*
Y184350D02*
D03*
Y189350D02*
D03*
Y194350D02*
D03*
Y199350D02*
D03*
Y204350D02*
D03*
Y209350D02*
D03*
Y214350D02*
D03*
Y219350D02*
D03*
Y224350D02*
D03*
X524650D02*
D03*
Y219350D02*
D03*
Y214350D02*
D03*
Y209350D02*
D03*
Y204350D02*
D03*
Y199350D02*
D03*
Y194350D02*
D03*
Y189350D02*
D03*
Y184350D02*
D03*
Y179350D02*
D03*
Y174350D02*
D03*
Y169350D02*
D03*
D40*
X247650Y431800D02*
D03*
X755650D02*
D03*
X628650D02*
D03*
X1009650D02*
D03*
X882650D02*
D03*
X120650D02*
D03*
X501650D02*
D03*
X374650D02*
D03*
D41*
X270450Y360800D02*
D03*
X259050D02*
D03*
X236250D02*
D03*
X224850D02*
D03*
X778450D02*
D03*
X767050D02*
D03*
X744250D02*
D03*
X732850D02*
D03*
X651450D02*
D03*
X640050D02*
D03*
X617250D02*
D03*
X605850D02*
D03*
X1032450D02*
D03*
X1021050D02*
D03*
X998250D02*
D03*
X986850D02*
D03*
X859850D02*
D03*
X871250D02*
D03*
X894050D02*
D03*
X905450D02*
D03*
X97850D02*
D03*
X109250D02*
D03*
X132050D02*
D03*
X143450D02*
D03*
X478850D02*
D03*
X490250D02*
D03*
X513050D02*
D03*
X524450D02*
D03*
X351850D02*
D03*
X363250D02*
D03*
X386050D02*
D03*
X397450D02*
D03*
D42*
X577850Y299600D02*
D03*
Y292100D02*
D03*
Y317500D02*
D03*
Y310000D02*
D03*
X508000Y302200D02*
D03*
Y294700D02*
D03*
X757226Y194458D02*
D03*
Y201958D02*
D03*
X767288Y187400D02*
D03*
Y179900D02*
D03*
Y200271D02*
D03*
Y207771D02*
D03*
X403089Y241566D02*
D03*
Y234066D02*
D03*
X631392Y216272D02*
D03*
Y208772D02*
D03*
X630847Y186365D02*
D03*
Y178865D02*
D03*
X643890Y170120D02*
D03*
Y162620D02*
D03*
X622396Y208761D02*
D03*
Y216261D02*
D03*
X397397Y263841D02*
D03*
Y256341D02*
D03*
X387350Y269800D02*
D03*
Y277300D02*
D03*
Y256500D02*
D03*
Y249000D02*
D03*
X497840Y180280D02*
D03*
Y172780D02*
D03*
X539270Y122586D02*
D03*
Y130086D02*
D03*
X488472Y172784D02*
D03*
Y180284D02*
D03*
X870129Y161592D02*
D03*
Y169092D02*
D03*
X287020Y300930D02*
D03*
Y293430D02*
D03*
X621910Y186282D02*
D03*
Y178782D02*
D03*
Y170268D02*
D03*
Y162768D02*
D03*
D43*
X748940Y339564D02*
D03*
X741440D02*
D03*
X625152Y341511D02*
D03*
X617652D02*
D03*
X882764Y340805D02*
D03*
X875264D02*
D03*
X1005895Y341181D02*
D03*
X998395D02*
D03*
X539930Y346710D02*
D03*
X547430D02*
D03*
X780550Y114282D02*
D03*
X788050D02*
D03*
X482595Y341148D02*
D03*
X490095D02*
D03*
X607212Y262740D02*
D03*
X599712D02*
D03*
X448672Y113756D02*
D03*
X456172D02*
D03*
X599787Y253875D02*
D03*
X592287D02*
D03*
X116974Y338426D02*
D03*
X109474D02*
D03*
X582870Y267970D02*
D03*
X575370D02*
D03*
X704624Y113483D02*
D03*
X697124D02*
D03*
X547003Y138741D02*
D03*
X539503D02*
D03*
X500679Y188822D02*
D03*
X508179D02*
D03*
X533752Y262544D02*
D03*
X541252D02*
D03*
X603994Y112510D02*
D03*
X596494D02*
D03*
X548740Y253957D02*
D03*
X541240D02*
D03*
X575370Y259080D02*
D03*
X582870D02*
D03*
X370312Y341176D02*
D03*
X362812D02*
D03*
X228783Y341568D02*
D03*
X236283D02*
D03*
X622457Y114282D02*
D03*
X614957D02*
D03*
D44*
X358122Y204999D02*
D03*
X371122D02*
D03*
X771065Y250524D02*
D03*
X784065D02*
D03*
D45*
X556650Y71550D02*
D03*
Y93550D02*
D03*
X573650D02*
D03*
Y71550D02*
D03*
D46*
X975769Y281131D02*
D03*
Y308131D02*
D03*
D47*
X1002500Y222250D02*
D03*
X1029500D02*
D03*
X792892Y46424D02*
D03*
X819892D02*
D03*
X628096Y46645D02*
D03*
X655096D02*
D03*
X711110Y46438D02*
D03*
X738110D02*
D03*
X468536Y47461D02*
D03*
X495536D02*
D03*
D48*
X261620Y336070D02*
D03*
Y276070D02*
D03*
Y189710D02*
D03*
Y249710D02*
D03*
X896620Y272570D02*
D03*
Y212570D02*
D03*
Y124940D02*
D03*
Y184940D02*
D03*
D49*
X520700Y331920D02*
D03*
X533400D02*
D03*
X546100D02*
D03*
X558800D02*
D03*
Y277680D02*
D03*
X546100D02*
D03*
X533400D02*
D03*
X520700D02*
D03*
D50*
X1135379Y304800D02*
D03*
X1085379D02*
D03*
X1111250Y51200D02*
D03*
Y101200D02*
D03*
X222250Y76600D02*
D03*
Y126600D02*
D03*
X114300Y51200D02*
D03*
Y101200D02*
D03*
X1002585Y51200D02*
D03*
Y101200D02*
D03*
X1085849Y419100D02*
D03*
X1135849D02*
D03*
D51*
X787400Y304800D02*
D03*
X812800D02*
D03*
X838200D02*
D03*
X355600Y152400D02*
D03*
X330200D02*
D03*
X304800D02*
D03*
D52*
X153250Y216850D02*
D03*
Y196850D02*
D03*
X102450Y216850D02*
D03*
Y196850D02*
D03*
X153670Y305430D02*
D03*
Y285430D02*
D03*
X102870Y305430D02*
D03*
Y285430D02*
D03*
X780100Y77050D02*
D03*
X800100D02*
D03*
X697550D02*
D03*
X717550D02*
D03*
X635000D02*
D03*
X615000D02*
D03*
X456250D02*
D03*
X476250D02*
D03*
X646779Y313288D02*
D03*
X626779D02*
D03*
D53*
X153250Y176850D02*
D03*
X102450D02*
D03*
X153670Y265430D02*
D03*
X102870D02*
D03*
D54*
X820100Y77050D02*
D03*
X737550D02*
D03*
X655000D02*
D03*
X496250D02*
D03*
X606779Y313288D02*
D03*
D55*
X445770Y301940D02*
D03*
Y261940D02*
D03*
Y281940D02*
D03*
X1007650Y165950D02*
D03*
X221400Y256700D02*
D03*
Y276700D02*
D03*
Y236700D02*
D03*
X934300Y200500D02*
D03*
Y180500D02*
D03*
Y220500D02*
D03*
X1113950Y165950D02*
D03*
X951650Y428150D02*
D03*
X824650D02*
D03*
X1113950Y216750D02*
D03*
X697650Y428150D02*
D03*
X570650D02*
D03*
X62650D02*
D03*
X189650D02*
D03*
X316650D02*
D03*
X443650D02*
D03*
D56*
X445770Y241940D02*
D03*
X221400Y296700D02*
D03*
X934300Y160500D02*
D03*
X951650Y448150D02*
D03*
X824650D02*
D03*
X697650D02*
D03*
X570650D02*
D03*
X62650D02*
D03*
X189650D02*
D03*
X316650D02*
D03*
X443650D02*
D03*
D57*
X717550Y285750D02*
D03*
X895350Y57150D02*
D03*
X920750Y304800D02*
D03*
X50800Y158750D02*
D03*
Y342900D02*
D03*
X349250Y57150D02*
D03*
D58*
X1027650Y165950D02*
D03*
X1133950D02*
D03*
Y216750D02*
D03*
M02*
