G04*
G04 #@! TF.GenerationSoftware,Altium Limited,Altium Designer,23.4.1 (23)*
G04*
G04 Layer_Physical_Order=2*
G04 Layer_Color=36540*
%FSLAX44Y44*%
%MOMM*%
G71*
G04*
G04 #@! TF.SameCoordinates,69872263-788E-4E38-85BF-5BAD4D7AD8B8*
G04*
G04*
G04 #@! TF.FilePolarity,Positive*
G04*
G01*
G75*
%ADD57C,3.4000*%
%ADD63C,1.6000*%
%ADD64C,1.2690*%
%ADD65C,1.3000*%
%ADD66R,1.3000X1.3000*%
%ADD67R,1.3000X1.3000*%
%ADD68C,1.5000*%
%ADD69R,1.5000X1.5000*%
%ADD70R,1.5000X1.5000*%
%ADD71C,0.4000*%
%ADD72C,0.5000*%
G36*
X1181100Y0D02*
X0D01*
Y495300D01*
X1181100D01*
Y0D01*
D02*
G37*
%LPC*%
G36*
X961690Y458190D02*
X941610D01*
Y438110D01*
X946281D01*
X946622Y436840D01*
X945485Y436184D01*
X943616Y434315D01*
X942294Y432025D01*
X941610Y429472D01*
Y426828D01*
X942294Y424275D01*
X943616Y421985D01*
X945485Y420116D01*
X947775Y418794D01*
X950328Y418110D01*
X952972D01*
X955525Y418794D01*
X957815Y420116D01*
X959684Y421985D01*
X961006Y424275D01*
X961690Y426828D01*
Y429472D01*
X961006Y432025D01*
X959684Y434315D01*
X957815Y436184D01*
X956678Y436840D01*
X957019Y438110D01*
X961690D01*
Y458190D01*
D02*
G37*
G36*
X834690D02*
X814610D01*
Y438110D01*
X819281D01*
X819622Y436840D01*
X818485Y436184D01*
X816616Y434315D01*
X815294Y432025D01*
X814610Y429472D01*
Y426828D01*
X815294Y424275D01*
X816616Y421985D01*
X818485Y420116D01*
X820775Y418794D01*
X823328Y418110D01*
X825972D01*
X828525Y418794D01*
X830815Y420116D01*
X832684Y421985D01*
X834006Y424275D01*
X834690Y426828D01*
Y429472D01*
X834006Y432025D01*
X832684Y434315D01*
X830815Y436184D01*
X829678Y436840D01*
X830019Y438110D01*
X834690D01*
Y458190D01*
D02*
G37*
G36*
X707690D02*
X687610D01*
Y438110D01*
X692281D01*
X692622Y436840D01*
X691485Y436184D01*
X689616Y434315D01*
X688294Y432025D01*
X687610Y429472D01*
Y426828D01*
X688294Y424275D01*
X689616Y421985D01*
X691485Y420116D01*
X693775Y418794D01*
X696328Y418110D01*
X698972D01*
X701525Y418794D01*
X703815Y420116D01*
X705684Y421985D01*
X707006Y424275D01*
X707690Y426828D01*
Y429472D01*
X707006Y432025D01*
X705684Y434315D01*
X703815Y436184D01*
X702678Y436840D01*
X703019Y438110D01*
X707690D01*
Y458190D01*
D02*
G37*
G36*
X580690D02*
X560610D01*
Y438110D01*
X565281D01*
X565622Y436840D01*
X564485Y436184D01*
X562616Y434315D01*
X561294Y432025D01*
X560610Y429472D01*
Y426828D01*
X561294Y424275D01*
X562616Y421985D01*
X564485Y420116D01*
X566775Y418794D01*
X569328Y418110D01*
X571972D01*
X574525Y418794D01*
X576815Y420116D01*
X578684Y421985D01*
X580006Y424275D01*
X580690Y426828D01*
Y429472D01*
X580006Y432025D01*
X578684Y434315D01*
X576815Y436184D01*
X575678Y436840D01*
X576019Y438110D01*
X580690D01*
Y458190D01*
D02*
G37*
G36*
X453690D02*
X433610D01*
Y438110D01*
X438281D01*
X438622Y436840D01*
X437485Y436184D01*
X435616Y434315D01*
X434294Y432025D01*
X433610Y429472D01*
Y426828D01*
X434294Y424275D01*
X435616Y421985D01*
X437485Y420116D01*
X439775Y418794D01*
X442328Y418110D01*
X444972D01*
X447525Y418794D01*
X449815Y420116D01*
X451684Y421985D01*
X453006Y424275D01*
X453690Y426828D01*
Y429472D01*
X453006Y432025D01*
X451684Y434315D01*
X449815Y436184D01*
X448678Y436840D01*
X449019Y438110D01*
X453690D01*
Y458190D01*
D02*
G37*
G36*
X326690D02*
X306610D01*
Y438110D01*
X311281D01*
X311622Y436840D01*
X310485Y436184D01*
X308616Y434315D01*
X307294Y432025D01*
X306610Y429472D01*
Y426828D01*
X307294Y424275D01*
X308616Y421985D01*
X310485Y420116D01*
X312775Y418794D01*
X315328Y418110D01*
X317972D01*
X320525Y418794D01*
X322815Y420116D01*
X324684Y421985D01*
X326006Y424275D01*
X326690Y426828D01*
Y429472D01*
X326006Y432025D01*
X324684Y434315D01*
X322815Y436184D01*
X321678Y436840D01*
X322019Y438110D01*
X326690D01*
Y458190D01*
D02*
G37*
G36*
X199690D02*
X179610D01*
Y438110D01*
X184281D01*
X184622Y436840D01*
X183485Y436184D01*
X181616Y434315D01*
X180294Y432025D01*
X179610Y429472D01*
Y426828D01*
X180294Y424275D01*
X181616Y421985D01*
X183485Y420116D01*
X185775Y418794D01*
X188328Y418110D01*
X190972D01*
X193525Y418794D01*
X195815Y420116D01*
X197684Y421985D01*
X199006Y424275D01*
X199690Y426828D01*
Y429472D01*
X199006Y432025D01*
X197684Y434315D01*
X195815Y436184D01*
X194678Y436840D01*
X195019Y438110D01*
X199690D01*
Y458190D01*
D02*
G37*
G36*
X72690D02*
X52610D01*
Y438110D01*
X57281D01*
X57622Y436840D01*
X56485Y436184D01*
X54616Y434315D01*
X53294Y432025D01*
X52610Y429472D01*
Y426828D01*
X53294Y424275D01*
X54616Y421985D01*
X56485Y420116D01*
X58775Y418794D01*
X61328Y418110D01*
X63972D01*
X66525Y418794D01*
X68815Y420116D01*
X70684Y421985D01*
X72006Y424275D01*
X72690Y426828D01*
Y429472D01*
X72006Y432025D01*
X70684Y434315D01*
X68815Y436184D01*
X67678Y436840D01*
X68019Y438110D01*
X72690D01*
Y458190D01*
D02*
G37*
G36*
X1137236Y429640D02*
X1134461D01*
X1131780Y428922D01*
X1129377Y427534D01*
X1127414Y425572D01*
X1126027Y423168D01*
X1125309Y420488D01*
Y417712D01*
X1126027Y415032D01*
X1127414Y412628D01*
X1129377Y410666D01*
X1131780Y409278D01*
X1134461Y408560D01*
X1137236D01*
X1139917Y409278D01*
X1142320Y410666D01*
X1144283Y412628D01*
X1145670Y415032D01*
X1146389Y417712D01*
Y420488D01*
X1145670Y423168D01*
X1144283Y425572D01*
X1142320Y427534D01*
X1139917Y428922D01*
X1137236Y429640D01*
D02*
G37*
G36*
X497574Y346575D02*
X495768D01*
X494100Y345884D01*
X492822Y344607D01*
X492131Y342938D01*
Y341132D01*
X492822Y339463D01*
X494100Y338186D01*
X495768Y337495D01*
X497574D01*
X499243Y338186D01*
X500520Y339463D01*
X501211Y341132D01*
Y342938D01*
X500520Y344607D01*
X499243Y345884D01*
X497574Y346575D01*
D02*
G37*
G36*
X991503Y346170D02*
X989697D01*
X988028Y345479D01*
X986751Y344202D01*
X986060Y342533D01*
Y340727D01*
X986751Y339058D01*
X988028Y337781D01*
X989697Y337090D01*
X991503D01*
X993172Y337781D01*
X994449Y339058D01*
X995140Y340727D01*
Y342533D01*
X994449Y344202D01*
X993172Y345479D01*
X991503Y346170D01*
D02*
G37*
G36*
X364123Y341090D02*
X362317D01*
X360648Y340399D01*
X359371Y339122D01*
X358680Y337453D01*
Y335647D01*
X359371Y333978D01*
X360648Y332701D01*
X362317Y332010D01*
X364123D01*
X365792Y332701D01*
X367069Y333978D01*
X367760Y335647D01*
Y337453D01*
X367069Y339122D01*
X365792Y340399D01*
X364123Y341090D01*
D02*
G37*
G36*
X618123Y339820D02*
X616317D01*
X614648Y339129D01*
X613371Y337852D01*
X612680Y336183D01*
Y334377D01*
X613371Y332708D01*
X614648Y331431D01*
X616317Y330740D01*
X618123D01*
X619792Y331431D01*
X621069Y332708D01*
X621760Y334377D01*
Y336183D01*
X621069Y337852D01*
X619792Y339129D01*
X618123Y339820D01*
D02*
G37*
G36*
X875933Y338550D02*
X874127D01*
X872458Y337859D01*
X871181Y336582D01*
X870490Y334913D01*
Y333107D01*
X871181Y331438D01*
X872458Y330161D01*
X874127Y329470D01*
X875933D01*
X877602Y330161D01*
X878879Y331438D01*
X879570Y333107D01*
Y334913D01*
X878879Y336582D01*
X877602Y337859D01*
X875933Y338550D01*
D02*
G37*
G36*
X742583D02*
X740777D01*
X739108Y337859D01*
X737831Y336582D01*
X737140Y334913D01*
Y333107D01*
X737831Y331438D01*
X739108Y330161D01*
X740777Y329470D01*
X742583D01*
X744252Y330161D01*
X745529Y331438D01*
X746220Y333107D01*
Y334913D01*
X745529Y336582D01*
X744252Y337859D01*
X742583Y338550D01*
D02*
G37*
G36*
X494933Y336010D02*
X493127D01*
X491458Y335319D01*
X490181Y334042D01*
X489490Y332373D01*
Y330567D01*
X490181Y328898D01*
X491458Y327621D01*
X493127Y326930D01*
X494933D01*
X496602Y327621D01*
X497879Y328898D01*
X498570Y330567D01*
Y332373D01*
X497879Y334042D01*
X496602Y335319D01*
X494933Y336010D01*
D02*
G37*
G36*
X52724Y362440D02*
X48875D01*
X45100Y361689D01*
X41544Y360216D01*
X38344Y358078D01*
X35622Y355356D01*
X33484Y352156D01*
X32011Y348600D01*
X31260Y344824D01*
Y340975D01*
X32011Y337200D01*
X33484Y333644D01*
X35622Y330444D01*
X38344Y327722D01*
X41544Y325584D01*
X45100Y324111D01*
X48875Y323360D01*
X52724D01*
X56500Y324111D01*
X60056Y325584D01*
X63256Y327722D01*
X65978Y330444D01*
X68116Y333644D01*
X69589Y337200D01*
X70340Y340975D01*
Y344824D01*
X69589Y348600D01*
X68116Y352156D01*
X65978Y355356D01*
X63256Y358078D01*
X60056Y360216D01*
X56500Y361689D01*
X52724Y362440D01*
D02*
G37*
G36*
X237123Y330930D02*
X235317D01*
X233648Y330239D01*
X232371Y328962D01*
X231680Y327293D01*
Y325487D01*
X232371Y323818D01*
X233648Y322541D01*
X235317Y321850D01*
X237123D01*
X238792Y322541D01*
X240069Y323818D01*
X240760Y325487D01*
Y327293D01*
X240069Y328962D01*
X238792Y330239D01*
X237123Y330930D01*
D02*
G37*
G36*
X110123Y329660D02*
X108317D01*
X106648Y328969D01*
X105371Y327692D01*
X104680Y326023D01*
Y324217D01*
X105371Y322548D01*
X106648Y321271D01*
X108317Y320580D01*
X110123D01*
X111792Y321271D01*
X113069Y322548D01*
X113760Y324217D01*
Y326023D01*
X113069Y327692D01*
X111792Y328969D01*
X110123Y329660D01*
D02*
G37*
G36*
X959753Y315690D02*
X957947D01*
X956278Y314999D01*
X955001Y313722D01*
X954310Y312053D01*
Y310247D01*
X955001Y308578D01*
X956278Y307301D01*
X957947Y306610D01*
X959753D01*
X961422Y307301D01*
X962699Y308578D01*
X963390Y310247D01*
Y312053D01*
X962699Y313722D01*
X961422Y314999D01*
X959753Y315690D01*
D02*
G37*
G36*
X647969Y322328D02*
X645589D01*
X643290Y321712D01*
X641228Y320522D01*
X639545Y318839D01*
X638355Y316777D01*
X637739Y314478D01*
Y312098D01*
X638355Y309799D01*
X639545Y307737D01*
X641228Y306054D01*
X643290Y304864D01*
X645589Y304248D01*
X647969D01*
X650268Y304864D01*
X652330Y306054D01*
X654013Y307737D01*
X655203Y309799D01*
X655819Y312098D01*
Y314478D01*
X655203Y316777D01*
X654013Y318839D01*
X652330Y320522D01*
X650268Y321712D01*
X647969Y322328D01*
D02*
G37*
G36*
X615819D02*
X597739D01*
Y304248D01*
X615819D01*
Y322328D01*
D02*
G37*
G36*
X154860Y314470D02*
X152480D01*
X150181Y313854D01*
X148119Y312664D01*
X146436Y310981D01*
X145246Y308919D01*
X144630Y306620D01*
Y304240D01*
X145246Y301941D01*
X146436Y299879D01*
X148119Y298196D01*
X150181Y297006D01*
X152480Y296390D01*
X154860D01*
X157159Y297006D01*
X159221Y298196D01*
X160904Y299879D01*
X162094Y301941D01*
X162710Y304240D01*
Y306620D01*
X162094Y308919D01*
X160904Y310981D01*
X159221Y312664D01*
X157159Y313854D01*
X154860Y314470D01*
D02*
G37*
G36*
X104060D02*
X101680D01*
X99381Y313854D01*
X97319Y312664D01*
X95636Y310981D01*
X94446Y308919D01*
X93830Y306620D01*
Y304240D01*
X94446Y301941D01*
X95636Y299879D01*
X97319Y298196D01*
X99381Y297006D01*
X101680Y296390D01*
X104060D01*
X106359Y297006D01*
X108421Y298196D01*
X110104Y299879D01*
X111294Y301941D01*
X111910Y304240D01*
Y306620D01*
X111294Y308919D01*
X110104Y310981D01*
X108421Y312664D01*
X106359Y313854D01*
X104060Y314470D01*
D02*
G37*
G36*
X813970Y313685D02*
X811630D01*
X809370Y313079D01*
X807345Y311910D01*
X805690Y310256D01*
X804520Y308230D01*
X803915Y305970D01*
Y303630D01*
X804520Y301371D01*
X805690Y299345D01*
X807345Y297690D01*
X809370Y296521D01*
X811630Y295915D01*
X813970D01*
X816229Y296521D01*
X818255Y297690D01*
X819910Y299345D01*
X821079Y301371D01*
X821685Y303630D01*
Y305970D01*
X821079Y308230D01*
X819910Y310256D01*
X818255Y311910D01*
X816229Y313079D01*
X813970Y313685D01*
D02*
G37*
G36*
X788570D02*
X786230D01*
X783970Y313079D01*
X781945Y311910D01*
X780290Y310256D01*
X779120Y308230D01*
X778515Y305970D01*
Y303630D01*
X779120Y301371D01*
X780290Y299345D01*
X781945Y297690D01*
X783970Y296521D01*
X786230Y295915D01*
X788570D01*
X790829Y296521D01*
X792856Y297690D01*
X794510Y299345D01*
X795679Y301371D01*
X796285Y303630D01*
Y305970D01*
X795679Y308230D01*
X794510Y310256D01*
X792856Y311910D01*
X790829Y313079D01*
X788570Y313685D01*
D02*
G37*
G36*
X1136766Y315340D02*
X1133991D01*
X1131310Y314622D01*
X1128907Y313234D01*
X1126945Y311272D01*
X1125557Y308868D01*
X1124839Y306188D01*
Y303412D01*
X1125557Y300732D01*
X1126945Y298328D01*
X1128907Y296366D01*
X1131310Y294978D01*
X1133991Y294260D01*
X1136766D01*
X1139447Y294978D01*
X1141850Y296366D01*
X1143813Y298328D01*
X1145200Y300732D01*
X1145919Y303412D01*
Y306188D01*
X1145200Y308868D01*
X1143813Y311272D01*
X1141850Y313234D01*
X1139447Y314622D01*
X1136766Y315340D01*
D02*
G37*
G36*
X296813Y292160D02*
X295007D01*
X293338Y291469D01*
X292735Y290865D01*
X292132Y291469D01*
X290463Y292160D01*
X288657D01*
X286988Y291469D01*
X285711Y290191D01*
X285020Y288523D01*
Y286717D01*
X285711Y285048D01*
X286988Y283771D01*
X288657Y283080D01*
X290463D01*
X292132Y283771D01*
X292735Y284374D01*
X293338Y283771D01*
X295007Y283080D01*
X296813D01*
X298482Y283771D01*
X299759Y285048D01*
X300450Y286717D01*
Y288523D01*
X299759Y290191D01*
X298482Y291469D01*
X296813Y292160D01*
D02*
G37*
G36*
X922674Y324340D02*
X918826D01*
X915050Y323589D01*
X911494Y322116D01*
X908294Y319978D01*
X905572Y317256D01*
X903434Y314056D01*
X901961Y310500D01*
X901210Y306724D01*
Y302875D01*
X901961Y299100D01*
X903434Y295544D01*
X905572Y292344D01*
X908294Y289622D01*
X911494Y287484D01*
X915050Y286011D01*
X918826Y285260D01*
X922674D01*
X926450Y286011D01*
X930006Y287484D01*
X933206Y289622D01*
X935928Y292344D01*
X938066Y295544D01*
X939539Y299100D01*
X940290Y302875D01*
Y306724D01*
X939539Y310500D01*
X938066Y314056D01*
X935928Y317256D01*
X933206Y319978D01*
X930006Y322116D01*
X926450Y323589D01*
X922674Y324340D01*
D02*
G37*
G36*
X521603Y294100D02*
X519797D01*
X518128Y293409D01*
X516851Y292132D01*
X516160Y290463D01*
Y288657D01*
X516851Y286988D01*
X518128Y285711D01*
X519797Y285020D01*
X521603D01*
X523272Y285711D01*
X524549Y286988D01*
X525240Y288657D01*
Y290463D01*
X524549Y292132D01*
X523272Y293409D01*
X521603Y294100D01*
D02*
G37*
G36*
X447092Y311980D02*
X444448D01*
X441895Y311296D01*
X439605Y309974D01*
X437736Y308105D01*
X436414Y305815D01*
X435730Y303262D01*
Y300618D01*
X436414Y298065D01*
X437736Y295775D01*
X439605Y293906D01*
X441864Y292602D01*
X441929Y292326D01*
Y291554D01*
X441864Y291278D01*
X439605Y289974D01*
X437736Y288105D01*
X436414Y285815D01*
X435730Y283262D01*
Y280618D01*
X436414Y278065D01*
X437736Y275775D01*
X439605Y273906D01*
X441895Y272584D01*
X444448Y271900D01*
X447092D01*
X449645Y272584D01*
X451935Y273906D01*
X453804Y275775D01*
X455126Y278065D01*
X455810Y280618D01*
Y283262D01*
X455126Y285815D01*
X453804Y288105D01*
X451935Y289974D01*
X449677Y291278D01*
X449611Y291554D01*
Y292326D01*
X449677Y292602D01*
X451935Y293906D01*
X453804Y295775D01*
X455126Y298065D01*
X455810Y300618D01*
Y303262D01*
X455126Y305815D01*
X453804Y308105D01*
X451935Y309974D01*
X449645Y311296D01*
X447092Y311980D01*
D02*
G37*
G36*
X397143Y276320D02*
X395337D01*
X393668Y275629D01*
X392391Y274352D01*
X391700Y272683D01*
Y270877D01*
X392391Y269208D01*
X393668Y267931D01*
X395337Y267240D01*
X397143D01*
X398812Y267931D01*
X400089Y269208D01*
X400780Y270877D01*
Y272683D01*
X400089Y274352D01*
X398812Y275629D01*
X397143Y276320D01*
D02*
G37*
G36*
X719474Y305290D02*
X715626D01*
X711850Y304539D01*
X708294Y303066D01*
X705094Y300928D01*
X702372Y298206D01*
X700234Y295006D01*
X698761Y291450D01*
X698010Y287675D01*
Y283825D01*
X698761Y280050D01*
X700234Y276494D01*
X702372Y273294D01*
X705094Y270572D01*
X708294Y268434D01*
X711850Y266961D01*
X715626Y266210D01*
X719474D01*
X723250Y266961D01*
X726806Y268434D01*
X730006Y270572D01*
X732728Y273294D01*
X734866Y276494D01*
X736339Y280050D01*
X737090Y283825D01*
Y287675D01*
X736339Y291450D01*
X734866Y295006D01*
X732728Y298206D01*
X730006Y300928D01*
X726806Y303066D01*
X723250Y304539D01*
X719474Y305290D01*
D02*
G37*
G36*
X569709Y272885D02*
X567903D01*
X566235Y272193D01*
X564957Y270916D01*
X564266Y269248D01*
Y267441D01*
X564957Y265773D01*
X566235Y264496D01*
X567903Y263804D01*
X569709D01*
X571378Y264496D01*
X572655Y265773D01*
X573346Y267441D01*
Y269248D01*
X572655Y270916D01*
X571378Y272193D01*
X569709Y272885D01*
D02*
G37*
G36*
X406033Y268700D02*
X404227D01*
X402558Y268009D01*
X401281Y266732D01*
X400590Y265063D01*
Y263257D01*
X401281Y261588D01*
X402558Y260311D01*
X404227Y259620D01*
X406033D01*
X407702Y260311D01*
X408979Y261588D01*
X409670Y263257D01*
Y265063D01*
X408979Y266732D01*
X407702Y268009D01*
X406033Y268700D01*
D02*
G37*
G36*
X162710Y274470D02*
X144630D01*
Y256390D01*
X162710D01*
Y274470D01*
D02*
G37*
G36*
X111910D02*
X93830D01*
Y256390D01*
X111910D01*
Y274470D01*
D02*
G37*
G36*
X592723Y264890D02*
X590917D01*
X589248Y264199D01*
X587971Y262922D01*
X587280Y261253D01*
Y259447D01*
X587971Y257778D01*
X589248Y256501D01*
X590917Y255810D01*
X592723D01*
X594392Y256501D01*
X595669Y257778D01*
X596360Y259447D01*
Y261253D01*
X595669Y262922D01*
X594392Y264199D01*
X592723Y264890D01*
D02*
G37*
G36*
X383173Y261265D02*
X381367D01*
X379698Y260574D01*
X378421Y259297D01*
X377730Y257628D01*
Y255822D01*
X378421Y254153D01*
X379698Y252876D01*
X381367Y252185D01*
X383173D01*
X384842Y252876D01*
X386119Y254153D01*
X386810Y255822D01*
Y257628D01*
X386119Y259297D01*
X384842Y260574D01*
X383173Y261265D01*
D02*
G37*
G36*
X534303Y258540D02*
X532497D01*
X530828Y257849D01*
X529551Y256572D01*
X528860Y254903D01*
Y253097D01*
X529551Y251428D01*
X530828Y250151D01*
X532497Y249460D01*
X534303D01*
X535972Y250151D01*
X537249Y251428D01*
X537940Y253097D01*
Y254903D01*
X537249Y256572D01*
X535972Y257849D01*
X534303Y258540D01*
D02*
G37*
G36*
X560747Y256000D02*
X558941D01*
X557272Y255309D01*
X555995Y254032D01*
X555304Y252363D01*
Y250557D01*
X555995Y248888D01*
X557272Y247611D01*
X558941Y246920D01*
X560747D01*
X562416Y247611D01*
X563693Y248888D01*
X564384Y250557D01*
Y252363D01*
X563693Y254032D01*
X562416Y255309D01*
X560747Y256000D01*
D02*
G37*
G36*
X401171Y247911D02*
X399365D01*
X397696Y247220D01*
X396419Y245943D01*
X395728Y244274D01*
Y242468D01*
X396419Y240800D01*
X397696Y239522D01*
X399365Y238831D01*
X401171D01*
X402840Y239522D01*
X404117Y240800D01*
X404808Y242468D01*
Y244274D01*
X404117Y245943D01*
X402840Y247220D01*
X401171Y247911D01*
D02*
G37*
G36*
X295528Y247170D02*
X293722D01*
X292053Y246479D01*
X290776Y245202D01*
X290085Y243533D01*
Y241727D01*
X290776Y240059D01*
X292053Y238782D01*
X293722Y238090D01*
X295528D01*
X297196Y238782D01*
X298473Y240059D01*
X299165Y241727D01*
Y243533D01*
X298473Y245202D01*
X297196Y246479D01*
X295528Y247170D01*
D02*
G37*
G36*
X455810Y251980D02*
X435730D01*
Y231900D01*
X455810D01*
Y251980D01*
D02*
G37*
G36*
X231440Y306740D02*
X211360D01*
Y286660D01*
X216031D01*
X216372Y285390D01*
X215235Y284734D01*
X213366Y282865D01*
X212044Y280575D01*
X211360Y278022D01*
Y275378D01*
X212044Y272825D01*
X213366Y270535D01*
X215235Y268666D01*
X217493Y267362D01*
X217559Y267086D01*
Y266314D01*
X217493Y266038D01*
X215235Y264734D01*
X213366Y262865D01*
X212044Y260575D01*
X211360Y258022D01*
Y255378D01*
X212044Y252825D01*
X213366Y250535D01*
X215235Y248666D01*
X217493Y247362D01*
X217559Y247086D01*
Y246314D01*
X217493Y246038D01*
X215235Y244734D01*
X213366Y242865D01*
X212044Y240575D01*
X211360Y238022D01*
Y235378D01*
X212044Y232825D01*
X213366Y230535D01*
X215235Y228666D01*
X217525Y227344D01*
X220078Y226660D01*
X222722D01*
X225275Y227344D01*
X227565Y228666D01*
X229434Y230535D01*
X230756Y232825D01*
X231440Y235378D01*
Y238022D01*
X230756Y240575D01*
X229434Y242865D01*
X227565Y244734D01*
X225306Y246038D01*
X225241Y246314D01*
Y247086D01*
X225306Y247362D01*
X227565Y248666D01*
X229434Y250535D01*
X230756Y252825D01*
X231440Y255378D01*
Y258022D01*
X230756Y260575D01*
X229434Y262865D01*
X227565Y264734D01*
X225306Y266038D01*
X225241Y266314D01*
Y267086D01*
X225306Y267362D01*
X227565Y268666D01*
X229434Y270535D01*
X230756Y272825D01*
X231440Y275378D01*
Y278022D01*
X230756Y280575D01*
X229434Y282865D01*
X227565Y284734D01*
X226428Y285390D01*
X226769Y286660D01*
X231440D01*
Y306740D01*
D02*
G37*
G36*
X637713Y233140D02*
X635907D01*
X634238Y232449D01*
X632961Y231172D01*
X632270Y229503D01*
Y227697D01*
X632961Y226028D01*
X634238Y224751D01*
X635907Y224060D01*
X637713D01*
X639382Y224751D01*
X640659Y226028D01*
X641350Y227697D01*
Y229503D01*
X640659Y231172D01*
X639382Y232449D01*
X637713Y233140D01*
D02*
G37*
G36*
X403493Y231870D02*
X401687D01*
X400018Y231179D01*
X398741Y229902D01*
X398050Y228233D01*
Y226427D01*
X398741Y224758D01*
X400018Y223481D01*
X401687Y222790D01*
X403493D01*
X405162Y223481D01*
X406439Y224758D01*
X407130Y226427D01*
Y228233D01*
X406439Y229902D01*
X405162Y231179D01*
X403493Y231870D01*
D02*
G37*
G36*
X507633Y230600D02*
X505827D01*
X504158Y229909D01*
X502881Y228632D01*
X502190Y226963D01*
Y225157D01*
X502881Y223488D01*
X504158Y222211D01*
X505827Y221520D01*
X507633D01*
X509302Y222211D01*
X510579Y223488D01*
X511270Y225157D01*
Y226963D01*
X510579Y228632D01*
X509302Y229909D01*
X507633Y230600D01*
D02*
G37*
G36*
X572242Y229491D02*
X570436D01*
X568768Y228800D01*
X567490Y227523D01*
X566799Y225854D01*
Y224048D01*
X567490Y222379D01*
X568768Y221102D01*
X570436Y220411D01*
X572242D01*
X573911Y221102D01*
X575188Y222379D01*
X575879Y224048D01*
Y225854D01*
X575188Y227523D01*
X573911Y228800D01*
X572242Y229491D01*
D02*
G37*
G36*
X560622Y228060D02*
X558816D01*
X557148Y227369D01*
X555870Y226092D01*
X555179Y224423D01*
Y222617D01*
X555870Y220948D01*
X557148Y219671D01*
X558816Y218980D01*
X560622D01*
X562291Y219671D01*
X563568Y220948D01*
X564259Y222617D01*
Y224423D01*
X563568Y226092D01*
X562291Y227369D01*
X560622Y228060D01*
D02*
G37*
G36*
X756553Y226790D02*
X754747D01*
X753078Y226099D01*
X751801Y224822D01*
X751110Y223153D01*
Y221347D01*
X751801Y219678D01*
X753078Y218401D01*
X754747Y217710D01*
X756553D01*
X758222Y218401D01*
X759499Y219678D01*
X760190Y221347D01*
Y223153D01*
X759499Y224822D01*
X758222Y226099D01*
X756553Y226790D01*
D02*
G37*
G36*
X619355Y220013D02*
X617548D01*
X615880Y219322D01*
X614603Y218045D01*
X613912Y216376D01*
Y214570D01*
X614603Y212901D01*
X615880Y211624D01*
X617548Y210933D01*
X619355D01*
X621023Y211624D01*
X622300Y212901D01*
X622992Y214570D01*
Y216376D01*
X622300Y218045D01*
X621023Y219322D01*
X619355Y220013D01*
D02*
G37*
G36*
X862913Y218850D02*
X861107D01*
X859438Y218159D01*
X858161Y216882D01*
X857470Y215213D01*
Y213407D01*
X858161Y211738D01*
X859438Y210461D01*
X861107Y209770D01*
X862913D01*
X864582Y210461D01*
X865859Y211738D01*
X866550Y213407D01*
Y215213D01*
X865859Y216882D01*
X864582Y218159D01*
X862913Y218850D01*
D02*
G37*
G36*
X774295Y217210D02*
X772489D01*
X770821Y216519D01*
X769543Y215242D01*
X768852Y213573D01*
Y211767D01*
X769543Y210098D01*
X770821Y208821D01*
X772489Y208130D01*
X774295D01*
X775964Y208821D01*
X777241Y210098D01*
X777932Y211767D01*
Y213573D01*
X777241Y215242D01*
X775964Y216519D01*
X774295Y217210D01*
D02*
G37*
G36*
X154440Y225890D02*
X152060D01*
X149761Y225274D01*
X147699Y224084D01*
X146016Y222401D01*
X144826Y220339D01*
X144210Y218040D01*
Y215660D01*
X144826Y213361D01*
X146016Y211299D01*
X147699Y209616D01*
X149761Y208426D01*
X152060Y207810D01*
X154440D01*
X156739Y208426D01*
X158801Y209616D01*
X160484Y211299D01*
X161674Y213361D01*
X162290Y215660D01*
Y218040D01*
X161674Y220339D01*
X160484Y222401D01*
X158801Y224084D01*
X156739Y225274D01*
X154440Y225890D01*
D02*
G37*
G36*
X103640D02*
X101260D01*
X98961Y225274D01*
X96899Y224084D01*
X95216Y222401D01*
X94026Y220339D01*
X93410Y218040D01*
Y215660D01*
X94026Y213361D01*
X95216Y211299D01*
X96899Y209616D01*
X98961Y208426D01*
X101260Y207810D01*
X103640D01*
X105939Y208426D01*
X108001Y209616D01*
X109684Y211299D01*
X110874Y213361D01*
X111490Y215660D01*
Y218040D01*
X110874Y220339D01*
X109684Y222401D01*
X108001Y224084D01*
X105939Y225274D01*
X103640Y225890D01*
D02*
G37*
G36*
X649873Y216654D02*
X648067D01*
X646398Y215963D01*
X645121Y214686D01*
X644430Y213018D01*
Y211211D01*
X645121Y209543D01*
X646398Y208266D01*
X648067Y207574D01*
X649873D01*
X651542Y208266D01*
X652819Y209543D01*
X653510Y211211D01*
Y213018D01*
X652819Y214686D01*
X651542Y215963D01*
X649873Y216654D01*
D02*
G37*
G36*
X663987Y216617D02*
X662181D01*
X660512Y215926D01*
X659235Y214648D01*
X658544Y212980D01*
Y211174D01*
X659235Y209505D01*
X660512Y208228D01*
X662181Y207537D01*
X663987D01*
X665655Y208228D01*
X666933Y209505D01*
X667624Y211174D01*
Y212980D01*
X666933Y214648D01*
X665655Y215926D01*
X663987Y216617D01*
D02*
G37*
G36*
X540653Y222980D02*
X538847D01*
X537178Y222289D01*
X535901Y221012D01*
X535210Y219343D01*
Y217537D01*
X535901Y215868D01*
X536600Y215170D01*
X535901Y214472D01*
X535210Y212803D01*
Y210997D01*
X535901Y209328D01*
X537178Y208051D01*
X538847Y207360D01*
X540653D01*
X542322Y208051D01*
X543599Y209328D01*
X544290Y210997D01*
Y212803D01*
X543599Y214472D01*
X542901Y215170D01*
X543599Y215868D01*
X544290Y217537D01*
Y219343D01*
X543599Y221012D01*
X542322Y222289D01*
X540653Y222980D01*
D02*
G37*
G36*
X1143990Y226790D02*
X1123910D01*
Y206710D01*
X1143990D01*
Y226790D01*
D02*
G37*
G36*
X633119Y206272D02*
X631313D01*
X629644Y205581D01*
X628367Y204304D01*
X627676Y202635D01*
Y202570D01*
X627142Y202213D01*
X625336D01*
X623668Y201522D01*
X622391Y200245D01*
X621699Y198576D01*
Y197815D01*
X621422Y197548D01*
X620429Y197081D01*
X619116Y197625D01*
X617310D01*
X615641Y196934D01*
X614364Y195657D01*
X613673Y193988D01*
Y192182D01*
X614364Y190513D01*
X615641Y189236D01*
X617310Y188545D01*
X619116D01*
X620785Y189236D01*
X622062Y190513D01*
X622753Y192182D01*
Y192943D01*
X623030Y193210D01*
X624023Y193677D01*
X625336Y193133D01*
X627142D01*
X628811Y193825D01*
X630088Y195102D01*
X630779Y196770D01*
Y196836D01*
X631313Y197192D01*
X633119D01*
X634788Y197884D01*
X636065Y199161D01*
X636756Y200829D01*
Y202635D01*
X636065Y204304D01*
X634788Y205581D01*
X633119Y206272D01*
D02*
G37*
G36*
X285524Y205869D02*
X283718D01*
X282049Y205177D01*
X280772Y203900D01*
X280081Y202232D01*
Y200426D01*
X280772Y198757D01*
X282049Y197480D01*
X283718Y196789D01*
X285524D01*
X287193Y197480D01*
X288470Y198757D01*
X289161Y200426D01*
Y202232D01*
X288470Y203900D01*
X287193Y205177D01*
X285524Y205869D01*
D02*
G37*
G36*
X774333Y205200D02*
X772527D01*
X770858Y204509D01*
X769581Y203232D01*
X768890Y201563D01*
Y199757D01*
X769581Y198088D01*
X770858Y196811D01*
X772527Y196120D01*
X774333D01*
X776002Y196811D01*
X777279Y198088D01*
X777970Y199757D01*
Y201563D01*
X777279Y203232D01*
X776002Y204509D01*
X774333Y205200D01*
D02*
G37*
G36*
X464453D02*
X462647D01*
X460978Y204509D01*
X459701Y203232D01*
X459010Y201563D01*
Y199757D01*
X459701Y198088D01*
X460978Y196811D01*
X462647Y196120D01*
X464453D01*
X466122Y196811D01*
X467399Y198088D01*
X468090Y199757D01*
Y201563D01*
X467399Y203232D01*
X466122Y204509D01*
X464453Y205200D01*
D02*
G37*
G36*
X509285Y216174D02*
X507479D01*
X505810Y215483D01*
X504533Y214206D01*
X503842Y212537D01*
Y210731D01*
X502829Y210365D01*
X502808Y210364D01*
X502807D01*
X501138Y209673D01*
X499861Y208396D01*
X499170Y206727D01*
Y204921D01*
X499861Y203252D01*
X501138Y201975D01*
X502391Y201457D01*
X502166Y200914D01*
Y199108D01*
X502857Y197439D01*
X504134Y196162D01*
X505803Y195471D01*
X507609D01*
X509278Y196162D01*
X510555Y197439D01*
X511246Y199108D01*
Y200914D01*
X510555Y202582D01*
X509278Y203860D01*
X508025Y204378D01*
X508250Y204921D01*
Y206727D01*
X509263Y207094D01*
X509284Y207094D01*
X509285D01*
X510953Y207785D01*
X512231Y209062D01*
X512922Y210731D01*
Y212537D01*
X512231Y214206D01*
X510953Y215483D01*
X509285Y216174D01*
D02*
G37*
G36*
X751473Y204470D02*
X749667D01*
X747998Y203779D01*
X746721Y202502D01*
X746030Y200833D01*
Y199027D01*
X746721Y197358D01*
X747998Y196081D01*
X749667Y195390D01*
X751473D01*
X753142Y196081D01*
X754419Y197358D01*
X755110Y199027D01*
Y200833D01*
X754419Y202502D01*
X753142Y203779D01*
X751473Y204470D01*
D02*
G37*
G36*
X561513Y198850D02*
X559707D01*
X558038Y198159D01*
X556761Y196882D01*
X556070Y195213D01*
Y193407D01*
X556761Y191738D01*
X558038Y190461D01*
X559707Y189770D01*
X561513D01*
X563182Y190461D01*
X564459Y191738D01*
X565150Y193407D01*
Y195213D01*
X564459Y196882D01*
X563182Y198159D01*
X561513Y198850D01*
D02*
G37*
G36*
X588913Y193770D02*
X587107D01*
X585438Y193079D01*
X584161Y191802D01*
X583470Y190133D01*
Y188327D01*
X584161Y186658D01*
X585438Y185381D01*
X587107Y184690D01*
X588913D01*
X590582Y185381D01*
X591859Y186658D01*
X592550Y188327D01*
Y190133D01*
X591859Y191802D01*
X590582Y193079D01*
X588913Y193770D01*
D02*
G37*
G36*
X757823Y192500D02*
X756017D01*
X754348Y191809D01*
X753071Y190532D01*
X752380Y188863D01*
Y187057D01*
X753071Y185388D01*
X754348Y184111D01*
X756017Y183420D01*
X757823D01*
X759492Y184111D01*
X760769Y185388D01*
X761460Y187057D01*
Y188863D01*
X760769Y190532D01*
X759492Y191809D01*
X757823Y192500D01*
D02*
G37*
G36*
X774333Y191230D02*
X772527D01*
X770858Y190539D01*
X769581Y189262D01*
X768890Y187593D01*
Y185787D01*
X769581Y184118D01*
X770858Y182841D01*
X772527Y182150D01*
X774333D01*
X776002Y182841D01*
X777279Y184118D01*
X777970Y185787D01*
Y187593D01*
X777279Y189262D01*
X776002Y190539D01*
X774333Y191230D01*
D02*
G37*
G36*
X549543Y184880D02*
X547737D01*
X546068Y184189D01*
X544791Y182912D01*
X544100Y181243D01*
Y179437D01*
X544791Y177768D01*
X546068Y176491D01*
X547737Y175800D01*
X549543D01*
X551212Y176491D01*
X552489Y177768D01*
X553180Y179437D01*
Y181243D01*
X552489Y182912D01*
X551212Y184189D01*
X549543Y184880D01*
D02*
G37*
G36*
X162290Y185890D02*
X144210D01*
Y167810D01*
X162290D01*
Y185890D01*
D02*
G37*
G36*
X111490D02*
X93410D01*
Y167810D01*
X111490D01*
Y185890D01*
D02*
G37*
G36*
X874663Y173450D02*
X872857D01*
X871188Y172759D01*
X869911Y171482D01*
X869220Y169813D01*
Y168007D01*
X869911Y166338D01*
X871188Y165061D01*
X872857Y164370D01*
X874663D01*
X876332Y165061D01*
X877609Y166338D01*
X878300Y168007D01*
Y169813D01*
X877609Y171482D01*
X876332Y172759D01*
X874663Y173450D01*
D02*
G37*
G36*
X500013Y165830D02*
X498207D01*
X496538Y165139D01*
X495261Y163862D01*
X494570Y162193D01*
Y160387D01*
X495261Y158718D01*
X496538Y157441D01*
X498207Y156750D01*
X500013D01*
X501682Y157441D01*
X502959Y158718D01*
X503650Y160387D01*
Y162193D01*
X502959Y163862D01*
X501682Y165139D01*
X500013Y165830D01*
D02*
G37*
G36*
X1143990Y175990D02*
X1123910D01*
Y155910D01*
X1143990D01*
Y175990D01*
D02*
G37*
G36*
X1037690D02*
X1017610D01*
Y155910D01*
X1037690D01*
Y175990D01*
D02*
G37*
G36*
X935622Y230540D02*
X932978D01*
X930425Y229856D01*
X928135Y228534D01*
X926266Y226665D01*
X924944Y224375D01*
X924260Y221822D01*
Y219178D01*
X924944Y216625D01*
X926266Y214335D01*
X928135Y212466D01*
X930394Y211162D01*
X930459Y210886D01*
Y210114D01*
X930394Y209838D01*
X928135Y208534D01*
X926266Y206665D01*
X924944Y204375D01*
X924260Y201822D01*
Y199178D01*
X924944Y196625D01*
X926266Y194335D01*
X928135Y192466D01*
X930394Y191162D01*
X930459Y190886D01*
Y190114D01*
X930394Y189838D01*
X928135Y188534D01*
X926266Y186665D01*
X924944Y184375D01*
X924260Y181822D01*
Y179178D01*
X924944Y176625D01*
X926266Y174335D01*
X928135Y172466D01*
X929272Y171810D01*
X928931Y170540D01*
X924260D01*
Y150460D01*
X944340D01*
Y170540D01*
X939669D01*
X939328Y171810D01*
X940465Y172466D01*
X942334Y174335D01*
X943656Y176625D01*
X944340Y179178D01*
Y181822D01*
X943656Y184375D01*
X942334Y186665D01*
X940465Y188534D01*
X938206Y189838D01*
X938141Y190114D01*
Y190886D01*
X938206Y191162D01*
X940465Y192466D01*
X942334Y194335D01*
X943656Y196625D01*
X944340Y199178D01*
Y201822D01*
X943656Y204375D01*
X942334Y206665D01*
X940465Y208534D01*
X938206Y209838D01*
X938141Y210114D01*
Y210886D01*
X938206Y211162D01*
X940465Y212466D01*
X942334Y214335D01*
X943656Y216625D01*
X944340Y219178D01*
Y221822D01*
X943656Y224375D01*
X942334Y226665D01*
X940465Y228534D01*
X938175Y229856D01*
X935622Y230540D01*
D02*
G37*
G36*
X356770Y161285D02*
X354430D01*
X352170Y160679D01*
X350145Y159510D01*
X348490Y157856D01*
X347321Y155829D01*
X346715Y153570D01*
Y151230D01*
X347321Y148970D01*
X348490Y146945D01*
X350145Y145290D01*
X352170Y144121D01*
X354430Y143515D01*
X356770D01*
X359030Y144121D01*
X361055Y145290D01*
X362710Y146945D01*
X363880Y148970D01*
X364485Y151230D01*
Y153570D01*
X363880Y155829D01*
X362710Y157856D01*
X361055Y159510D01*
X359030Y160679D01*
X356770Y161285D01*
D02*
G37*
G36*
X331370D02*
X329030D01*
X326771Y160679D01*
X324744Y159510D01*
X323090Y157856D01*
X321921Y155829D01*
X321315Y153570D01*
Y151230D01*
X321921Y148970D01*
X323090Y146945D01*
X324744Y145290D01*
X326771Y144121D01*
X329030Y143515D01*
X331370D01*
X333629Y144121D01*
X335656Y145290D01*
X337310Y146945D01*
X338479Y148970D01*
X339085Y151230D01*
Y153570D01*
X338479Y155829D01*
X337310Y157856D01*
X335656Y159510D01*
X333629Y160679D01*
X331370Y161285D01*
D02*
G37*
G36*
X52724Y178290D02*
X48875D01*
X45100Y177539D01*
X41544Y176066D01*
X38344Y173928D01*
X35622Y171206D01*
X33484Y168006D01*
X32011Y164450D01*
X31260Y160674D01*
Y156826D01*
X32011Y153050D01*
X33484Y149494D01*
X35622Y146294D01*
X38344Y143572D01*
X41544Y141434D01*
X45100Y139961D01*
X48875Y139210D01*
X52724D01*
X56500Y139961D01*
X60056Y141434D01*
X63256Y143572D01*
X65978Y146294D01*
X68116Y149494D01*
X69589Y153050D01*
X70340Y156826D01*
Y160674D01*
X69589Y164450D01*
X68116Y168006D01*
X65978Y171206D01*
X63256Y173928D01*
X60056Y176066D01*
X56500Y177539D01*
X52724Y178290D01*
D02*
G37*
G36*
X552655Y143097D02*
X550849D01*
X549180Y142406D01*
X547903Y141129D01*
X547212Y139460D01*
Y137654D01*
X547903Y135985D01*
X549180Y134708D01*
X550849Y134017D01*
X552655D01*
X554324Y134708D01*
X555601Y135985D01*
X556292Y137654D01*
Y139460D01*
X555601Y141129D01*
X554324Y142406D01*
X552655Y143097D01*
D02*
G37*
G36*
X574395Y138759D02*
X572589D01*
X570920Y138068D01*
X569643Y136790D01*
X568952Y135122D01*
Y133316D01*
X569643Y131647D01*
X570920Y130370D01*
X572589Y129679D01*
X574395D01*
X576064Y130370D01*
X577341Y131647D01*
X578032Y133316D01*
Y135122D01*
X577341Y136790D01*
X576064Y138068D01*
X574395Y138759D01*
D02*
G37*
G36*
X930543Y137890D02*
X928737D01*
X927068Y137199D01*
X925791Y135922D01*
X925100Y134253D01*
Y132447D01*
X925791Y130778D01*
X927068Y129501D01*
X928737Y128810D01*
X930543D01*
X932212Y129501D01*
X933489Y130778D01*
X934180Y132447D01*
Y134253D01*
X933489Y135922D01*
X932212Y137199D01*
X930543Y137890D01*
D02*
G37*
G36*
X529223Y132810D02*
X527417D01*
X525748Y132119D01*
X524471Y130842D01*
X523780Y129173D01*
Y127367D01*
X524471Y125698D01*
X525748Y124421D01*
X527417Y123730D01*
X529223D01*
X530892Y124421D01*
X532169Y125698D01*
X532860Y127367D01*
Y129173D01*
X532169Y130842D01*
X530892Y132119D01*
X529223Y132810D01*
D02*
G37*
G36*
X223638Y137140D02*
X220862D01*
X218182Y136422D01*
X215778Y135034D01*
X213816Y133072D01*
X212428Y130668D01*
X211710Y127988D01*
Y125212D01*
X212428Y122532D01*
X213816Y120128D01*
X215778Y118166D01*
X218182Y116778D01*
X220862Y116060D01*
X223638D01*
X226318Y116778D01*
X228722Y118166D01*
X230684Y120128D01*
X232072Y122532D01*
X232790Y125212D01*
Y127988D01*
X232072Y130668D01*
X230684Y133072D01*
X228722Y135034D01*
X226318Y136422D01*
X223638Y137140D01*
D02*
G37*
G36*
X605423Y121380D02*
X603617D01*
X601948Y120689D01*
X600671Y119412D01*
X599980Y117743D01*
Y115937D01*
X600671Y114268D01*
X601948Y112991D01*
X603617Y112300D01*
X605423D01*
X607092Y112991D01*
X608369Y114268D01*
X609060Y115937D01*
Y117743D01*
X608369Y119412D01*
X607092Y120689D01*
X605423Y121380D01*
D02*
G37*
G36*
X629553Y118840D02*
X627747D01*
X626078Y118149D01*
X624801Y116872D01*
X624110Y115203D01*
Y113397D01*
X624801Y111728D01*
X626078Y110451D01*
X627747Y109760D01*
X629553D01*
X631222Y110451D01*
X632499Y111728D01*
X633190Y113397D01*
Y115203D01*
X632499Y116872D01*
X631222Y118149D01*
X629553Y118840D01*
D02*
G37*
G36*
X1112638Y111740D02*
X1109862D01*
X1107182Y111022D01*
X1104778Y109634D01*
X1102816Y107672D01*
X1101428Y105268D01*
X1100710Y102588D01*
Y99812D01*
X1101428Y97132D01*
X1102816Y94728D01*
X1104778Y92766D01*
X1107182Y91378D01*
X1109862Y90660D01*
X1112638D01*
X1115318Y91378D01*
X1117722Y92766D01*
X1119684Y94728D01*
X1121072Y97132D01*
X1121790Y99812D01*
Y102588D01*
X1121072Y105268D01*
X1119684Y107672D01*
X1117722Y109634D01*
X1115318Y111022D01*
X1112638Y111740D01*
D02*
G37*
G36*
X1003973D02*
X1001198D01*
X998517Y111022D01*
X996113Y109634D01*
X994151Y107672D01*
X992763Y105268D01*
X992045Y102588D01*
Y99812D01*
X992763Y97132D01*
X994151Y94728D01*
X996113Y92766D01*
X998517Y91378D01*
X1001198Y90660D01*
X1003973D01*
X1006653Y91378D01*
X1009057Y92766D01*
X1011019Y94728D01*
X1012407Y97132D01*
X1013125Y99812D01*
Y102588D01*
X1012407Y105268D01*
X1011019Y107672D01*
X1009057Y109634D01*
X1006653Y111022D01*
X1003973Y111740D01*
D02*
G37*
G36*
X115688D02*
X112912D01*
X110232Y111022D01*
X107828Y109634D01*
X105866Y107672D01*
X104478Y105268D01*
X103760Y102588D01*
Y99812D01*
X104478Y97132D01*
X105866Y94728D01*
X107828Y92766D01*
X110232Y91378D01*
X112912Y90660D01*
X115688D01*
X118368Y91378D01*
X120772Y92766D01*
X122734Y94728D01*
X124122Y97132D01*
X124840Y99812D01*
Y102588D01*
X124122Y105268D01*
X122734Y107672D01*
X120772Y109634D01*
X118368Y111022D01*
X115688Y111740D01*
D02*
G37*
G36*
X829140Y86090D02*
X811060D01*
Y68010D01*
X829140D01*
Y86090D01*
D02*
G37*
G36*
X781290D02*
X778910D01*
X776611Y85474D01*
X774549Y84284D01*
X772866Y82601D01*
X771676Y80539D01*
X771060Y78240D01*
Y75860D01*
X771676Y73561D01*
X772866Y71499D01*
X774549Y69816D01*
X776611Y68626D01*
X778910Y68010D01*
X781290D01*
X783589Y68626D01*
X785651Y69816D01*
X787334Y71499D01*
X788524Y73561D01*
X789140Y75860D01*
Y78240D01*
X788524Y80539D01*
X787334Y82601D01*
X785651Y84284D01*
X783589Y85474D01*
X781290Y86090D01*
D02*
G37*
G36*
X746590D02*
X728510D01*
Y68010D01*
X746590D01*
Y86090D01*
D02*
G37*
G36*
X698740D02*
X696360D01*
X694061Y85474D01*
X691999Y84284D01*
X690316Y82601D01*
X689126Y80539D01*
X688510Y78240D01*
Y75860D01*
X689126Y73561D01*
X690316Y71499D01*
X691999Y69816D01*
X694061Y68626D01*
X696360Y68010D01*
X698740D01*
X701039Y68626D01*
X703101Y69816D01*
X704784Y71499D01*
X705974Y73561D01*
X706590Y75860D01*
Y78240D01*
X705974Y80539D01*
X704784Y82601D01*
X703101Y84284D01*
X701039Y85474D01*
X698740Y86090D01*
D02*
G37*
G36*
X664040D02*
X645960D01*
Y68010D01*
X664040D01*
Y86090D01*
D02*
G37*
G36*
X616190D02*
X613810D01*
X611511Y85474D01*
X609449Y84284D01*
X607766Y82601D01*
X606576Y80539D01*
X605960Y78240D01*
Y75860D01*
X606576Y73561D01*
X607766Y71499D01*
X609449Y69816D01*
X611511Y68626D01*
X613810Y68010D01*
X616190D01*
X618489Y68626D01*
X620551Y69816D01*
X622234Y71499D01*
X623424Y73561D01*
X624040Y75860D01*
Y78240D01*
X623424Y80539D01*
X622234Y82601D01*
X620551Y84284D01*
X618489Y85474D01*
X616190Y86090D01*
D02*
G37*
G36*
X505290D02*
X487210D01*
Y68010D01*
X505290D01*
Y86090D01*
D02*
G37*
G36*
X457440D02*
X455060D01*
X452761Y85474D01*
X450699Y84284D01*
X449016Y82601D01*
X447826Y80539D01*
X447210Y78240D01*
Y75860D01*
X447826Y73561D01*
X449016Y71499D01*
X450699Y69816D01*
X452761Y68626D01*
X455060Y68010D01*
X457440D01*
X459739Y68626D01*
X461801Y69816D01*
X463484Y71499D01*
X464674Y73561D01*
X465290Y75860D01*
Y78240D01*
X464674Y80539D01*
X463484Y82601D01*
X461801Y84284D01*
X459739Y85474D01*
X457440Y86090D01*
D02*
G37*
G36*
X839103Y48990D02*
X837297D01*
X835628Y48299D01*
X834351Y47022D01*
X833660Y45353D01*
Y43547D01*
X834351Y41878D01*
X835628Y40601D01*
X837297Y39910D01*
X839103D01*
X840772Y40601D01*
X842049Y41878D01*
X842740Y43547D01*
Y45353D01*
X842049Y47022D01*
X840772Y48299D01*
X839103Y48990D01*
D02*
G37*
G36*
X756553D02*
X754747D01*
X753078Y48299D01*
X751801Y47022D01*
X751110Y45353D01*
Y43547D01*
X751801Y41878D01*
X753078Y40601D01*
X754747Y39910D01*
X756553D01*
X758222Y40601D01*
X759499Y41878D01*
X760190Y43547D01*
Y45353D01*
X759499Y47022D01*
X758222Y48299D01*
X756553Y48990D01*
D02*
G37*
G36*
X674003D02*
X672197D01*
X670528Y48299D01*
X669251Y47022D01*
X668560Y45353D01*
Y43547D01*
X669251Y41878D01*
X670528Y40601D01*
X672197Y39910D01*
X674003D01*
X675672Y40601D01*
X676949Y41878D01*
X677640Y43547D01*
Y45353D01*
X676949Y47022D01*
X675672Y48299D01*
X674003Y48990D01*
D02*
G37*
G36*
X508903D02*
X507097D01*
X505428Y48299D01*
X504151Y47022D01*
X503460Y45353D01*
Y43547D01*
X504151Y41878D01*
X505428Y40601D01*
X507097Y39910D01*
X508903D01*
X510572Y40601D01*
X511849Y41878D01*
X512540Y43547D01*
Y45353D01*
X511849Y47022D01*
X510572Y48299D01*
X508903Y48990D01*
D02*
G37*
G36*
X897274Y76690D02*
X893426D01*
X889650Y75939D01*
X886094Y74466D01*
X882894Y72328D01*
X880172Y69606D01*
X878034Y66406D01*
X876561Y62850D01*
X875810Y59075D01*
Y55226D01*
X876561Y51450D01*
X878034Y47894D01*
X880172Y44694D01*
X882894Y41972D01*
X886094Y39834D01*
X889650Y38361D01*
X893426Y37610D01*
X897274D01*
X901050Y38361D01*
X904606Y39834D01*
X907806Y41972D01*
X910528Y44694D01*
X912666Y47894D01*
X914139Y51450D01*
X914890Y55226D01*
Y59075D01*
X914139Y62850D01*
X912666Y66406D01*
X910528Y69606D01*
X907806Y72328D01*
X904606Y74466D01*
X901050Y75939D01*
X897274Y76690D01*
D02*
G37*
G36*
X351175D02*
X347326D01*
X343550Y75939D01*
X339994Y74466D01*
X336794Y72328D01*
X334072Y69606D01*
X331934Y66406D01*
X330461Y62850D01*
X329710Y59075D01*
Y55226D01*
X330461Y51450D01*
X331934Y47894D01*
X334072Y44694D01*
X336794Y41972D01*
X339994Y39834D01*
X343550Y38361D01*
X347326Y37610D01*
X351175D01*
X354950Y38361D01*
X358506Y39834D01*
X361706Y41972D01*
X364428Y44694D01*
X366566Y47894D01*
X368039Y51450D01*
X368790Y55226D01*
Y59075D01*
X368039Y62850D01*
X366566Y66406D01*
X364428Y69606D01*
X361706Y72328D01*
X358506Y74466D01*
X354950Y75939D01*
X351175Y76690D01*
D02*
G37*
%LPD*%
D57*
X717550Y285750D02*
D03*
X895350Y57150D02*
D03*
X920750Y304800D02*
D03*
X50800Y158750D02*
D03*
Y342900D02*
D03*
X349250Y57150D02*
D03*
D63*
X1135379Y304800D02*
D03*
X1085379D02*
D03*
X1111250Y51200D02*
D03*
Y101200D02*
D03*
X222250Y76600D02*
D03*
Y126600D02*
D03*
X114300Y51200D02*
D03*
Y101200D02*
D03*
X1002585Y51200D02*
D03*
Y101200D02*
D03*
X1085849Y419100D02*
D03*
X1135849D02*
D03*
D64*
X787400Y304800D02*
D03*
X812800D02*
D03*
X838200D02*
D03*
X355600Y152400D02*
D03*
X330200D02*
D03*
X304800D02*
D03*
D65*
X153250Y216850D02*
D03*
Y196850D02*
D03*
X102450Y216850D02*
D03*
Y196850D02*
D03*
X153670Y305430D02*
D03*
Y285430D02*
D03*
X102870Y305430D02*
D03*
Y285430D02*
D03*
X780100Y77050D02*
D03*
X800100D02*
D03*
X697550D02*
D03*
X717550D02*
D03*
X635000D02*
D03*
X615000D02*
D03*
X456250D02*
D03*
X476250D02*
D03*
X646779Y313288D02*
D03*
X626779D02*
D03*
D66*
X153250Y176850D02*
D03*
X102450D02*
D03*
X153670Y265430D02*
D03*
X102870D02*
D03*
D67*
X820100Y77050D02*
D03*
X737550D02*
D03*
X655000D02*
D03*
X496250D02*
D03*
X606779Y313288D02*
D03*
D68*
X445770Y301940D02*
D03*
Y261940D02*
D03*
Y281940D02*
D03*
X1007650Y165950D02*
D03*
X221400Y256700D02*
D03*
Y276700D02*
D03*
Y236700D02*
D03*
X934300Y200500D02*
D03*
Y180500D02*
D03*
Y220500D02*
D03*
X1113950Y165950D02*
D03*
X951650Y428150D02*
D03*
X824650D02*
D03*
X1113950Y216750D02*
D03*
X697650Y428150D02*
D03*
X570650D02*
D03*
X62650D02*
D03*
X189650D02*
D03*
X316650D02*
D03*
X443650D02*
D03*
D69*
X445770Y241940D02*
D03*
X221400Y296700D02*
D03*
X934300Y160500D02*
D03*
X951650Y448150D02*
D03*
X824650D02*
D03*
X697650D02*
D03*
X570650D02*
D03*
X62650D02*
D03*
X189650D02*
D03*
X316650D02*
D03*
X443650D02*
D03*
D70*
X1027650Y165950D02*
D03*
X1133950D02*
D03*
Y216750D02*
D03*
D71*
X649683Y167959D02*
D03*
X1164590Y189230D02*
D03*
X1149350D02*
D03*
X1134110D02*
D03*
X1118870D02*
D03*
X1111250Y234950D02*
D03*
Y204470D02*
D03*
X1103630Y189230D02*
D03*
Y158750D02*
D03*
X1088390Y433070D02*
D03*
Y402590D02*
D03*
X1096010Y387350D02*
D03*
X1088390Y372110D02*
D03*
X1096010Y356870D02*
D03*
X1088390Y341630D02*
D03*
X1096010Y326390D02*
D03*
Y295910D02*
D03*
X1088390Y280670D02*
D03*
X1096010Y265430D02*
D03*
X1088390Y250190D02*
D03*
X1096010Y234950D02*
D03*
X1088390Y219710D02*
D03*
X1096010Y204470D02*
D03*
X1088390Y189230D02*
D03*
X1096010Y173990D02*
D03*
X1088390Y158750D02*
D03*
X1096010Y143510D02*
D03*
Y52070D02*
D03*
X1073150Y433070D02*
D03*
Y402590D02*
D03*
X1080770Y387350D02*
D03*
X1073150Y372110D02*
D03*
X1080770Y356870D02*
D03*
X1073150Y341630D02*
D03*
X1080770Y326390D02*
D03*
X1073150Y311150D02*
D03*
Y280670D02*
D03*
X1080770Y265430D02*
D03*
X1073150Y250190D02*
D03*
X1080770Y234950D02*
D03*
X1073150Y219710D02*
D03*
X1080770Y204470D02*
D03*
X1073150Y189230D02*
D03*
X1080770Y173990D02*
D03*
X1073150Y158750D02*
D03*
X1080770Y143510D02*
D03*
Y52070D02*
D03*
X1057910Y433070D02*
D03*
X1065530Y417830D02*
D03*
X1057910Y402590D02*
D03*
X1065530Y387350D02*
D03*
X1057910Y372110D02*
D03*
X1065530Y356870D02*
D03*
X1057910Y341630D02*
D03*
X1065530Y326390D02*
D03*
X1057910Y311150D02*
D03*
X1065530Y295910D02*
D03*
X1057910Y280670D02*
D03*
X1065530Y265430D02*
D03*
X1057910Y250190D02*
D03*
X1065530Y234950D02*
D03*
X1057910Y219710D02*
D03*
X1065530Y204470D02*
D03*
X1057910Y189230D02*
D03*
X1065530Y173990D02*
D03*
X1057910Y158750D02*
D03*
X1065530Y143510D02*
D03*
Y52070D02*
D03*
X1042670Y433070D02*
D03*
X1050290Y417830D02*
D03*
X1042670Y402590D02*
D03*
X1050290Y387350D02*
D03*
X1042670Y372110D02*
D03*
X1050290Y356870D02*
D03*
X1042670Y341630D02*
D03*
X1050290Y326390D02*
D03*
Y295910D02*
D03*
X1042670Y280670D02*
D03*
X1050290Y265430D02*
D03*
Y204470D02*
D03*
X1042670Y189230D02*
D03*
X1050290Y173990D02*
D03*
X1042670Y158750D02*
D03*
X1050290Y143510D02*
D03*
Y52070D02*
D03*
X1035050Y387350D02*
D03*
X1027430Y341630D02*
D03*
X1035050Y326390D02*
D03*
Y295910D02*
D03*
Y265430D02*
D03*
Y143510D02*
D03*
Y52070D02*
D03*
X1019810Y387350D02*
D03*
X1012190Y372110D02*
D03*
X1019810Y326390D02*
D03*
Y234950D02*
D03*
Y143510D02*
D03*
Y52070D02*
D03*
X1004570Y387350D02*
D03*
Y326390D02*
D03*
Y295910D02*
D03*
X996950Y280670D02*
D03*
X1004570Y265430D02*
D03*
Y234950D02*
D03*
X996950Y189230D02*
D03*
Y158750D02*
D03*
X1004570Y143510D02*
D03*
X989330Y387350D02*
D03*
Y326390D02*
D03*
Y295910D02*
D03*
Y265430D02*
D03*
X981710Y250190D02*
D03*
X989330Y204470D02*
D03*
X981710Y189230D02*
D03*
X989330Y173990D02*
D03*
X981710Y158750D02*
D03*
X989330Y143510D02*
D03*
Y52070D02*
D03*
X966470Y402590D02*
D03*
X974090Y387350D02*
D03*
Y326390D02*
D03*
X966470Y219710D02*
D03*
X974090Y204470D02*
D03*
X966470Y189230D02*
D03*
X974090Y173990D02*
D03*
X966470Y158750D02*
D03*
X974090Y143510D02*
D03*
Y52070D02*
D03*
X951230Y402590D02*
D03*
X958850Y387350D02*
D03*
Y326390D02*
D03*
X951230Y280670D02*
D03*
X958850Y265430D02*
D03*
Y234950D02*
D03*
X951230Y219710D02*
D03*
X958850Y204470D02*
D03*
X951230Y189230D02*
D03*
X958850Y173990D02*
D03*
X951230Y158750D02*
D03*
X958850Y143510D02*
D03*
Y52070D02*
D03*
X935990Y372110D02*
D03*
X943610Y356870D02*
D03*
Y326390D02*
D03*
Y265430D02*
D03*
Y234950D02*
D03*
Y143510D02*
D03*
Y52070D02*
D03*
X920750Y433070D02*
D03*
X928370Y417830D02*
D03*
X920750Y402590D02*
D03*
X928370Y387350D02*
D03*
X920750Y372110D02*
D03*
X928370Y356870D02*
D03*
Y326390D02*
D03*
Y265430D02*
D03*
Y234950D02*
D03*
X920750Y67310D02*
D03*
X928370Y52070D02*
D03*
X913130Y387350D02*
D03*
Y356870D02*
D03*
Y326390D02*
D03*
Y234950D02*
D03*
Y173990D02*
D03*
Y82550D02*
D03*
X897890Y387350D02*
D03*
X890270Y341630D02*
D03*
X897890Y326390D02*
D03*
X890270Y311150D02*
D03*
X897890Y295910D02*
D03*
Y234950D02*
D03*
X890270Y97790D02*
D03*
X897890Y82550D02*
D03*
X882650Y387350D02*
D03*
Y356870D02*
D03*
X875030Y311150D02*
D03*
X882650Y234950D02*
D03*
X875030Y97790D02*
D03*
X882650Y82550D02*
D03*
X875030Y67310D02*
D03*
X867410Y387350D02*
D03*
X859790Y341630D02*
D03*
Y311150D02*
D03*
X867410Y295910D02*
D03*
Y265430D02*
D03*
Y234950D02*
D03*
X859790Y128270D02*
D03*
X867410Y113030D02*
D03*
X859790Y97790D02*
D03*
X867410Y82550D02*
D03*
X859790Y67310D02*
D03*
X867410Y52070D02*
D03*
X844550Y402590D02*
D03*
X852170Y387350D02*
D03*
X844550Y341630D02*
D03*
X852170Y295910D02*
D03*
Y265430D02*
D03*
Y113030D02*
D03*
Y82550D02*
D03*
Y52070D02*
D03*
X829310Y402590D02*
D03*
X836930Y387350D02*
D03*
X829310Y341630D02*
D03*
Y311150D02*
D03*
X836930Y265430D02*
D03*
X821690Y387350D02*
D03*
Y356870D02*
D03*
X814070Y341630D02*
D03*
X821690Y295910D02*
D03*
Y265430D02*
D03*
X814070Y219710D02*
D03*
Y158750D02*
D03*
X821690Y143510D02*
D03*
X814070Y128270D02*
D03*
X821690Y113030D02*
D03*
X814070Y97790D02*
D03*
X798830Y433070D02*
D03*
Y402590D02*
D03*
Y372110D02*
D03*
X806450Y356870D02*
D03*
X798830Y341630D02*
D03*
Y311150D02*
D03*
X806450Y265430D02*
D03*
X798830Y250190D02*
D03*
X806450Y234950D02*
D03*
X798830Y219710D02*
D03*
Y158750D02*
D03*
X806450Y143510D02*
D03*
X798830Y128270D02*
D03*
X806450Y113030D02*
D03*
X798830Y67310D02*
D03*
X791210Y417830D02*
D03*
Y387350D02*
D03*
Y356870D02*
D03*
X783590Y341630D02*
D03*
Y128270D02*
D03*
X791210Y82550D02*
D03*
X775970Y387350D02*
D03*
X768350Y341630D02*
D03*
Y311150D02*
D03*
X775970Y295910D02*
D03*
X768350Y280670D02*
D03*
Y158750D02*
D03*
X775970Y143510D02*
D03*
X768350Y97790D02*
D03*
Y67310D02*
D03*
X760730Y387350D02*
D03*
X753110Y372110D02*
D03*
X760730Y265430D02*
D03*
X753110Y250190D02*
D03*
X760730Y173990D02*
D03*
X753110Y158750D02*
D03*
X760730Y143510D02*
D03*
X753110Y128270D02*
D03*
X760730Y113030D02*
D03*
X753110Y97790D02*
D03*
X760730Y82550D02*
D03*
X753110Y67310D02*
D03*
X745490Y387350D02*
D03*
X737870Y311150D02*
D03*
X745490Y295910D02*
D03*
X737870Y250190D02*
D03*
X745490Y173990D02*
D03*
X737870Y128270D02*
D03*
X745490Y113030D02*
D03*
X737870Y97790D02*
D03*
X722630Y402590D02*
D03*
X730250Y387350D02*
D03*
X722630Y372110D02*
D03*
Y341630D02*
D03*
Y311150D02*
D03*
X730250Y265430D02*
D03*
Y173990D02*
D03*
Y143510D02*
D03*
X722630Y128270D02*
D03*
X730250Y113030D02*
D03*
X722630Y97790D02*
D03*
Y67310D02*
D03*
X707390Y402590D02*
D03*
X715010Y387350D02*
D03*
X707390Y341630D02*
D03*
Y250190D02*
D03*
X715010Y173990D02*
D03*
Y143510D02*
D03*
X707390Y128270D02*
D03*
Y97790D02*
D03*
Y67310D02*
D03*
X692150Y402590D02*
D03*
X699770Y387350D02*
D03*
X692150Y341630D02*
D03*
X699770Y326390D02*
D03*
X692150Y280670D02*
D03*
X699770Y265430D02*
D03*
X692150Y250190D02*
D03*
X699770Y173990D02*
D03*
Y143510D02*
D03*
X692150Y128270D02*
D03*
Y67310D02*
D03*
X676910Y372110D02*
D03*
X684530Y356870D02*
D03*
X676910Y341630D02*
D03*
X684530Y326390D02*
D03*
X676910Y311150D02*
D03*
X684530Y265430D02*
D03*
X676910Y250190D02*
D03*
X684530Y173990D02*
D03*
Y143510D02*
D03*
Y113030D02*
D03*
X676910Y97790D02*
D03*
X684530Y82550D02*
D03*
X676910Y67310D02*
D03*
X661670Y433070D02*
D03*
X669290Y417830D02*
D03*
X661670Y402590D02*
D03*
X669290Y387350D02*
D03*
X661670Y372110D02*
D03*
X669290Y356870D02*
D03*
X661670Y341630D02*
D03*
X669290Y326390D02*
D03*
X661670Y311150D02*
D03*
X669290Y295910D02*
D03*
Y265430D02*
D03*
X661670Y250190D02*
D03*
X669290Y173990D02*
D03*
X661670Y128270D02*
D03*
X669290Y113030D02*
D03*
X661670Y97790D02*
D03*
X669290Y82550D02*
D03*
X654050Y387350D02*
D03*
X646430Y341630D02*
D03*
X654050Y326390D02*
D03*
Y295910D02*
D03*
X646430Y280670D02*
D03*
Y250190D02*
D03*
X654050Y173990D02*
D03*
X646430Y128270D02*
D03*
X654050Y113030D02*
D03*
X638810Y387350D02*
D03*
X631190Y372110D02*
D03*
Y341630D02*
D03*
X638810Y295910D02*
D03*
X631190Y280670D02*
D03*
X638810Y265430D02*
D03*
Y113030D02*
D03*
X631190Y97790D02*
D03*
Y67310D02*
D03*
X623570Y387350D02*
D03*
Y295910D02*
D03*
X615950Y280670D02*
D03*
X623570Y265430D02*
D03*
X615950Y250190D02*
D03*
X608330Y387350D02*
D03*
X600710Y341630D02*
D03*
X608330Y295910D02*
D03*
X600710Y280670D02*
D03*
Y97790D02*
D03*
Y67310D02*
D03*
X585470Y402590D02*
D03*
X593090Y387350D02*
D03*
X585470Y341630D02*
D03*
X593090Y326390D02*
D03*
X585470Y280670D02*
D03*
X570230Y402590D02*
D03*
X577850Y387350D02*
D03*
X570230Y341630D02*
D03*
X577850Y326390D02*
D03*
X570230Y280670D02*
D03*
X554990Y372110D02*
D03*
X562610Y356870D02*
D03*
Y295910D02*
D03*
X539750Y433070D02*
D03*
X547370Y417830D02*
D03*
X539750Y402590D02*
D03*
X547370Y387350D02*
D03*
X539750Y372110D02*
D03*
X547370Y356870D02*
D03*
X539750Y311150D02*
D03*
Y97790D02*
D03*
X547370Y82550D02*
D03*
X539750Y67310D02*
D03*
X532130Y387350D02*
D03*
Y356870D02*
D03*
Y295910D02*
D03*
X524510Y158750D02*
D03*
Y97790D02*
D03*
X532130Y82550D02*
D03*
X524510Y67310D02*
D03*
X516890Y387350D02*
D03*
X509270Y341630D02*
D03*
X516890Y113030D02*
D03*
X509270Y97790D02*
D03*
X516890Y82550D02*
D03*
X509270Y67310D02*
D03*
X501650Y387350D02*
D03*
Y356870D02*
D03*
X494030Y311150D02*
D03*
X501650Y113030D02*
D03*
X494030Y97790D02*
D03*
X486410Y387350D02*
D03*
X478790Y250190D02*
D03*
X486410Y234950D02*
D03*
X478790Y158750D02*
D03*
X486410Y113030D02*
D03*
X478790Y97790D02*
D03*
Y67310D02*
D03*
X463550Y402590D02*
D03*
X471170Y387350D02*
D03*
X463550Y341630D02*
D03*
X471170Y173990D02*
D03*
X463550Y158750D02*
D03*
X471170Y113030D02*
D03*
X463550Y97790D02*
D03*
Y67310D02*
D03*
X448310Y402590D02*
D03*
X455930Y387350D02*
D03*
X448310Y341630D02*
D03*
Y97790D02*
D03*
X440690Y387350D02*
D03*
Y356870D02*
D03*
X433070Y341630D02*
D03*
Y280670D02*
D03*
Y250190D02*
D03*
Y189230D02*
D03*
Y97790D02*
D03*
X440690Y52070D02*
D03*
X417830Y433070D02*
D03*
Y402590D02*
D03*
Y372110D02*
D03*
X425450Y356870D02*
D03*
X417830Y341630D02*
D03*
Y311150D02*
D03*
X425450Y295910D02*
D03*
X417830Y280670D02*
D03*
Y128270D02*
D03*
X425450Y113030D02*
D03*
X417830Y67310D02*
D03*
X425450Y52070D02*
D03*
X410210Y417830D02*
D03*
Y387350D02*
D03*
Y356870D02*
D03*
X402590Y341630D02*
D03*
Y311150D02*
D03*
X410210Y295910D02*
D03*
X402590Y280670D02*
D03*
X410210Y143510D02*
D03*
Y82550D02*
D03*
X402590Y67310D02*
D03*
X410210Y52070D02*
D03*
X394970Y387350D02*
D03*
X387350Y311150D02*
D03*
X394970Y295910D02*
D03*
X387350Y158750D02*
D03*
Y97790D02*
D03*
X394970Y82550D02*
D03*
X387350Y67310D02*
D03*
X394970Y52070D02*
D03*
X379730Y387350D02*
D03*
X372110Y372110D02*
D03*
X379730Y173990D02*
D03*
X372110Y128270D02*
D03*
X379730Y113030D02*
D03*
X372110Y97790D02*
D03*
X379730Y82550D02*
D03*
X372110Y67310D02*
D03*
X379730Y52070D02*
D03*
X364490Y387350D02*
D03*
X356870Y311150D02*
D03*
Y219710D02*
D03*
Y189230D02*
D03*
X364490Y143510D02*
D03*
X356870Y128270D02*
D03*
X364490Y113030D02*
D03*
X356870Y97790D02*
D03*
X364490Y82550D02*
D03*
X341630Y402590D02*
D03*
X349250Y387350D02*
D03*
X341630Y372110D02*
D03*
Y341630D02*
D03*
Y311150D02*
D03*
X349250Y234950D02*
D03*
X341630Y219710D02*
D03*
Y158750D02*
D03*
Y128270D02*
D03*
X349250Y113030D02*
D03*
X341630Y97790D02*
D03*
X349250Y82550D02*
D03*
X326390Y402590D02*
D03*
X334010Y387350D02*
D03*
X326390Y341630D02*
D03*
Y128270D02*
D03*
X334010Y113030D02*
D03*
X326390Y97790D02*
D03*
X334010Y82550D02*
D03*
X326390Y67310D02*
D03*
X311150Y402590D02*
D03*
X318770Y387350D02*
D03*
X311150Y189230D02*
D03*
X318770Y173990D02*
D03*
Y143510D02*
D03*
X311150Y128270D02*
D03*
X318770Y113030D02*
D03*
X311150Y97790D02*
D03*
X318770Y82550D02*
D03*
X311150Y67310D02*
D03*
X318770Y52070D02*
D03*
X295910Y372110D02*
D03*
X303530Y356870D02*
D03*
X295910Y128270D02*
D03*
X303530Y113030D02*
D03*
X295910Y97790D02*
D03*
X303530Y82550D02*
D03*
X295910Y67310D02*
D03*
X303530Y52070D02*
D03*
X280670Y433070D02*
D03*
X288290Y417830D02*
D03*
X280670Y402590D02*
D03*
X288290Y387350D02*
D03*
X280670Y372110D02*
D03*
X288290Y356870D02*
D03*
Y143510D02*
D03*
X280670Y128270D02*
D03*
X288290Y113030D02*
D03*
X280670Y97790D02*
D03*
X288290Y82550D02*
D03*
X280670Y67310D02*
D03*
X288290Y52070D02*
D03*
X273050Y387350D02*
D03*
Y113030D02*
D03*
X265430Y97790D02*
D03*
X273050Y82550D02*
D03*
X265430Y67310D02*
D03*
X273050Y52070D02*
D03*
X257810Y387350D02*
D03*
X250190Y372110D02*
D03*
Y219710D02*
D03*
X257810Y113030D02*
D03*
X250190Y97790D02*
D03*
X257810Y82550D02*
D03*
X250190Y67310D02*
D03*
X257810Y52070D02*
D03*
X242570Y387350D02*
D03*
X234950Y280670D02*
D03*
Y250190D02*
D03*
Y219710D02*
D03*
X242570Y204470D02*
D03*
X234950Y189230D02*
D03*
X242570Y82550D02*
D03*
X234950Y67310D02*
D03*
X242570Y52070D02*
D03*
X227330Y387350D02*
D03*
X219710Y219710D02*
D03*
X227330Y204470D02*
D03*
X219710Y189230D02*
D03*
X227330Y52070D02*
D03*
X204470Y402590D02*
D03*
X212090Y387350D02*
D03*
X204470Y280670D02*
D03*
X212090Y265430D02*
D03*
X204470Y250190D02*
D03*
Y219710D02*
D03*
X212090Y204470D02*
D03*
X204470Y189230D02*
D03*
X212090Y173990D02*
D03*
Y82550D02*
D03*
X204470Y67310D02*
D03*
X212090Y52070D02*
D03*
X189230Y402590D02*
D03*
X196850Y387350D02*
D03*
Y295910D02*
D03*
X189230Y280670D02*
D03*
X196850Y265430D02*
D03*
X189230Y250190D02*
D03*
X196850Y234950D02*
D03*
X189230Y189230D02*
D03*
X196850Y173990D02*
D03*
Y82550D02*
D03*
X189230Y67310D02*
D03*
X196850Y52070D02*
D03*
X173990Y372110D02*
D03*
X181610Y356870D02*
D03*
Y295910D02*
D03*
X173990Y280670D02*
D03*
X181610Y265430D02*
D03*
X173990Y250190D02*
D03*
X181610Y204470D02*
D03*
X173990Y189230D02*
D03*
X181610Y173990D02*
D03*
Y82550D02*
D03*
X173990Y67310D02*
D03*
X181610Y52070D02*
D03*
X158750Y433070D02*
D03*
X166370Y417830D02*
D03*
X158750Y402590D02*
D03*
X166370Y387350D02*
D03*
X158750Y372110D02*
D03*
X166370Y356870D02*
D03*
Y295910D02*
D03*
Y265430D02*
D03*
X158750Y250190D02*
D03*
X166370Y204470D02*
D03*
Y173990D02*
D03*
Y82550D02*
D03*
X158750Y67310D02*
D03*
X166370Y52070D02*
D03*
X151130Y387350D02*
D03*
Y356870D02*
D03*
X143510Y280670D02*
D03*
Y250190D02*
D03*
Y189230D02*
D03*
X151130Y82550D02*
D03*
X143510Y67310D02*
D03*
X151130Y52070D02*
D03*
X135890Y387350D02*
D03*
Y295910D02*
D03*
X128270Y280670D02*
D03*
Y250190D02*
D03*
Y219710D02*
D03*
X135890Y204470D02*
D03*
X128270Y189230D02*
D03*
X135890Y82550D02*
D03*
X128270Y67310D02*
D03*
X135890Y52070D02*
D03*
X120650Y387350D02*
D03*
Y356870D02*
D03*
Y295910D02*
D03*
X113030Y280670D02*
D03*
Y250190D02*
D03*
X120650Y204470D02*
D03*
X113030Y189230D02*
D03*
X105410Y387350D02*
D03*
X97790Y250190D02*
D03*
X105410Y234950D02*
D03*
X97790Y158750D02*
D03*
X90170Y387350D02*
D03*
X82550Y341630D02*
D03*
X90170Y295910D02*
D03*
X82550Y280670D02*
D03*
Y250190D02*
D03*
X90170Y234950D02*
D03*
X82550Y219710D02*
D03*
X90170Y204470D02*
D03*
X82550Y158750D02*
D03*
X90170Y143510D02*
D03*
X67310Y372110D02*
D03*
X74930Y356870D02*
D03*
Y173990D02*
D03*
Y143510D02*
D03*
X67310Y128270D02*
D03*
X52070Y402590D02*
D03*
X59690Y387350D02*
D03*
X52070Y372110D02*
D03*
Y311150D02*
D03*
Y280670D02*
D03*
Y250190D02*
D03*
Y219710D02*
D03*
Y189230D02*
D03*
Y128270D02*
D03*
X59690Y113030D02*
D03*
X36830Y433070D02*
D03*
Y402590D02*
D03*
X44450Y387350D02*
D03*
X36830Y372110D02*
D03*
Y311150D02*
D03*
X44450Y295910D02*
D03*
X36830Y280670D02*
D03*
X44450Y265430D02*
D03*
X36830Y250190D02*
D03*
X44450Y234950D02*
D03*
X36830Y219710D02*
D03*
X44450Y204470D02*
D03*
X36830Y189230D02*
D03*
Y128270D02*
D03*
X44450Y113030D02*
D03*
X36830Y97790D02*
D03*
X29210Y478790D02*
D03*
X21590Y463550D02*
D03*
X29210Y448310D02*
D03*
X21590Y433070D02*
D03*
X29210Y417830D02*
D03*
X21590Y402590D02*
D03*
X29210Y387350D02*
D03*
X21590Y372110D02*
D03*
X29210Y356870D02*
D03*
X21590Y341630D02*
D03*
X29210Y326390D02*
D03*
X21590Y311150D02*
D03*
X29210Y295910D02*
D03*
X21590Y280670D02*
D03*
X29210Y265430D02*
D03*
X21590Y250190D02*
D03*
X29210Y234950D02*
D03*
X21590Y219710D02*
D03*
X29210Y204470D02*
D03*
X21590Y189230D02*
D03*
X29210Y173990D02*
D03*
X21590Y158750D02*
D03*
X29210Y143510D02*
D03*
X21590Y128270D02*
D03*
X29210Y113030D02*
D03*
X21590Y97790D02*
D03*
X29210Y82550D02*
D03*
X21590Y67310D02*
D03*
Y36830D02*
D03*
Y6350D02*
D03*
X13970Y478790D02*
D03*
X6350Y463550D02*
D03*
X13970Y448310D02*
D03*
X6350Y433070D02*
D03*
X13970Y417830D02*
D03*
X6350Y402590D02*
D03*
X13970Y387350D02*
D03*
X6350Y372110D02*
D03*
X13970Y356870D02*
D03*
X6350Y341630D02*
D03*
X13970Y326390D02*
D03*
X6350Y311150D02*
D03*
X13970Y295910D02*
D03*
X6350Y280670D02*
D03*
X13970Y265430D02*
D03*
X6350Y250190D02*
D03*
X13970Y234950D02*
D03*
X6350Y219710D02*
D03*
X13970Y204470D02*
D03*
X6350Y189230D02*
D03*
X13970Y173990D02*
D03*
X6350Y158750D02*
D03*
X13970Y143510D02*
D03*
X6350Y128270D02*
D03*
X13970Y113030D02*
D03*
X6350Y97790D02*
D03*
X13970Y82550D02*
D03*
X6350Y67310D02*
D03*
X13970Y52070D02*
D03*
X6350Y36830D02*
D03*
X13970Y21590D02*
D03*
X6350Y6350D02*
D03*
X295910Y287620D02*
D03*
X636359Y240482D02*
D03*
X636810Y228600D02*
D03*
X637547Y217227D02*
D03*
X772160Y233680D02*
D03*
X966470Y377190D02*
D03*
X391700Y226060D02*
D03*
X402590Y227330D02*
D03*
X463550Y200660D02*
D03*
X468630Y205821D02*
D03*
X400268Y243371D02*
D03*
X289560Y287620D02*
D03*
X284621Y201329D02*
D03*
X539750Y218440D02*
D03*
Y211900D02*
D03*
X506730Y226060D02*
D03*
X516970Y139780D02*
D03*
X528320Y128270D02*
D03*
X588010Y189230D02*
D03*
X571339Y224951D02*
D03*
X559719Y223520D02*
D03*
X560610Y194310D02*
D03*
X548224Y259066D02*
D03*
X559844Y251460D02*
D03*
X551752Y138557D02*
D03*
X514350Y161290D02*
D03*
X508382Y211634D02*
D03*
X381000Y289560D02*
D03*
X58420Y398780D02*
D03*
X209550Y375920D02*
D03*
X336550Y374650D02*
D03*
X464820D02*
D03*
X589280Y373380D02*
D03*
X713740Y374650D02*
D03*
X842010D02*
D03*
X765585Y259305D02*
D03*
X858520Y231140D02*
D03*
X850900Y234950D02*
D03*
X772160Y148590D02*
D03*
X773430Y161290D02*
D03*
Y167640D02*
D03*
X628650Y114300D02*
D03*
X711200Y113030D02*
D03*
X535971Y174028D02*
D03*
X591820Y214630D02*
D03*
X576413Y254605D02*
D03*
X397510Y249301D02*
D03*
X392430Y280670D02*
D03*
X381000Y283210D02*
D03*
Y295910D02*
D03*
Y309880D02*
D03*
X501650Y317500D02*
D03*
X508000Y308610D02*
D03*
X520700Y289560D02*
D03*
X566420Y331470D02*
D03*
X571500Y292100D02*
D03*
X929640Y114300D02*
D03*
X896620Y113030D02*
D03*
X885190D02*
D03*
X892810Y290830D02*
D03*
X881380D02*
D03*
X975360Y269240D02*
D03*
X999490Y256540D02*
D03*
X304800Y196850D02*
D03*
X298450Y229870D02*
D03*
X304800Y223520D02*
D03*
X358140Y196850D02*
D03*
X495300Y189230D02*
D03*
X600874Y135497D02*
D03*
X573492Y134219D02*
D03*
X614680Y139700D02*
D03*
X604520Y116840D02*
D03*
X582160Y116674D02*
D03*
X556260Y60960D02*
D03*
X582930Y88900D02*
D03*
X534670Y116840D02*
D03*
X543560Y114300D02*
D03*
X582930Y172720D02*
D03*
X629920Y127000D02*
D03*
X605790Y132080D02*
D03*
X618213Y193085D02*
D03*
X767080Y175260D02*
D03*
X774700Y173990D02*
D03*
X773430Y186690D02*
D03*
X636515Y184353D02*
D03*
X756920Y187960D02*
D03*
X626239Y197673D02*
D03*
X632216Y201732D02*
D03*
X750570Y199930D02*
D03*
X663084Y212077D02*
D03*
X648970Y212114D02*
D03*
X773392Y212670D02*
D03*
X762000Y208280D02*
D03*
X773430Y200660D02*
D03*
X396240Y271780D02*
D03*
X405130Y264160D02*
D03*
X382270Y256725D02*
D03*
X548640Y180340D02*
D03*
X503710Y205824D02*
D03*
X506706Y200011D02*
D03*
X488968Y206318D02*
D03*
X441960Y114300D02*
D03*
X482600Y172720D02*
D03*
X246380Y179070D02*
D03*
X257810D02*
D03*
X121920Y347980D02*
D03*
X143510D02*
D03*
X132080D02*
D03*
X143510Y374650D02*
D03*
X132080D02*
D03*
X215900Y348170D02*
D03*
X270510Y347980D02*
D03*
X259080D02*
D03*
X270510Y374650D02*
D03*
X259080D02*
D03*
X375920Y341630D02*
D03*
X386080Y346710D02*
D03*
Y374650D02*
D03*
X397510Y346710D02*
D03*
Y374650D02*
D03*
X521970Y347980D02*
D03*
X477520Y340360D02*
D03*
X513080Y347980D02*
D03*
Y374650D02*
D03*
X524510D02*
D03*
X755650Y339090D02*
D03*
X767080Y347980D02*
D03*
Y374650D02*
D03*
X778510Y347980D02*
D03*
Y374650D02*
D03*
X882650Y335280D02*
D03*
X894080Y346710D02*
D03*
Y374650D02*
D03*
X905510Y346710D02*
D03*
Y374650D02*
D03*
X1012190Y340360D02*
D03*
X1021080Y346710D02*
D03*
Y374650D02*
D03*
X1032510Y346710D02*
D03*
Y374650D02*
D03*
X741680Y334010D02*
D03*
X990600Y341630D02*
D03*
X875030Y334010D02*
D03*
X618452Y215473D02*
D03*
X651510Y347980D02*
D03*
Y373380D02*
D03*
X640080D02*
D03*
Y347980D02*
D03*
X624840Y335280D02*
D03*
X591820Y260350D02*
D03*
X617220Y335280D02*
D03*
X607060Y267970D02*
D03*
X568806Y268344D02*
D03*
X496671Y342035D02*
D03*
X533400Y254000D02*
D03*
X363220Y336550D02*
D03*
X236220Y326390D02*
D03*
X109220Y325120D02*
D03*
X958850Y311150D02*
D03*
X929640Y133350D02*
D03*
X873760Y168910D02*
D03*
X862010Y214310D02*
D03*
X294625Y242630D02*
D03*
X494030Y331470D02*
D03*
X499110Y161290D02*
D03*
X508000Y44450D02*
D03*
X673100D02*
D03*
X755650D02*
D03*
X838200D02*
D03*
X755650Y222250D02*
D03*
X995125Y235665D02*
D03*
D72*
X801800Y212500D02*
D03*
X812800D02*
D03*
X823800D02*
D03*
X801800Y201500D02*
D03*
X812800D02*
D03*
X823800D02*
D03*
X801800Y190500D02*
D03*
X812800D02*
D03*
X823800D02*
D03*
X801800Y179500D02*
D03*
X812800D02*
D03*
X823800D02*
D03*
X801800Y168500D02*
D03*
X812800D02*
D03*
X823800D02*
D03*
X331900Y288700D02*
D03*
X342900D02*
D03*
X353900D02*
D03*
X331900Y277700D02*
D03*
X342900D02*
D03*
X353900D02*
D03*
X331900Y266700D02*
D03*
X342900D02*
D03*
X353900D02*
D03*
X331900Y255700D02*
D03*
X342900D02*
D03*
X353900D02*
D03*
X331900Y244700D02*
D03*
X342900D02*
D03*
X353900D02*
D03*
M02*
