G04*
G04 #@! TF.GenerationSoftware,Altium Limited,Altium Designer,23.4.1 (23)*
G04*
G04 Layer_Color=16711935*
%FSLAX44Y44*%
%MOMM*%
G71*
G04*
G04 #@! TF.SameCoordinates,69872263-788E-4E38-85BF-5BAD4D7AD8B8*
G04*
G04*
G04 #@! TF.FilePolarity,Positive*
G04*
G01*
G75*
%ADD16C,0.1524*%
%ADD73C,0.1778*%
D16*
X1181862Y495300D02*
G03*
X1181100Y496062I-762J0D01*
G01*
X1181862Y495300D02*
G03*
X1181100Y496062I-762J0D01*
G01*
Y-762D02*
G03*
X1181862Y0I0J762D01*
G01*
X1181100Y-762D02*
G03*
X1181862Y0I0J762D01*
G01*
X0Y496062D02*
G03*
X-762Y495300I0J-762D01*
G01*
X0Y496062D02*
G03*
X-762Y495300I0J-762D01*
G01*
Y0D02*
G03*
X0Y-762I762J0D01*
G01*
X-762Y0D02*
G03*
X0Y-762I762J0D01*
G01*
X1181862Y0D02*
Y495300D01*
X0Y496062D02*
X1181100D01*
X0Y-762D02*
X1181100D01*
X-762Y0D02*
Y495300D01*
D73*
X828040Y195580D02*
Y193887D01*
X826347D01*
Y195580D01*
X828040D01*
X819576Y185423D02*
Y195580D01*
X814498D01*
X812805Y193887D01*
Y187116D01*
X814498Y185423D01*
X819576D01*
X804341Y195580D02*
X807727D01*
X809419Y193887D01*
Y190502D01*
X807727Y188809D01*
X804341D01*
X802648Y190502D01*
Y192194D01*
X809419D01*
X799263Y195580D02*
X794184D01*
X792492Y193887D01*
X794184Y192194D01*
X797570D01*
X799263Y190502D01*
X797570Y188809D01*
X792492D01*
X789106Y195580D02*
X785720D01*
X787413D01*
Y188809D01*
X789106D01*
X777256Y198966D02*
X775564D01*
X773871Y197273D01*
Y188809D01*
X778949D01*
X780642Y190502D01*
Y193887D01*
X778949Y195580D01*
X773871D01*
X770485D02*
Y188809D01*
X765407D01*
X763714Y190502D01*
Y195580D01*
X758636Y188809D02*
X755250D01*
X753557Y190502D01*
Y195580D01*
X758636D01*
X760329Y193887D01*
X758636Y192194D01*
X753557D01*
X748479Y187116D02*
Y188809D01*
X750172D01*
X746786D01*
X748479D01*
Y193887D01*
X746786Y195580D01*
X740015D02*
X736629D01*
X734937Y193887D01*
Y190502D01*
X736629Y188809D01*
X740015D01*
X741708Y190502D01*
Y193887D01*
X740015Y195580D01*
X731551Y188809D02*
Y195580D01*
Y192194D01*
X729858Y190502D01*
X728166Y188809D01*
X726473D01*
X327660Y261620D02*
Y263313D01*
X329353D01*
Y261620D01*
X327660D01*
X336124Y271777D02*
Y261620D01*
X341202D01*
X342895Y263313D01*
Y270084D01*
X341202Y271777D01*
X336124D01*
X351359Y261620D02*
X347973D01*
X346281Y263313D01*
Y266698D01*
X347973Y268391D01*
X351359D01*
X353052Y266698D01*
Y265006D01*
X346281D01*
X356437Y261620D02*
X361516D01*
X363209Y263313D01*
X361516Y265006D01*
X358130D01*
X356437Y266698D01*
X358130Y268391D01*
X363209D01*
X366594Y261620D02*
X369980D01*
X368287D01*
Y268391D01*
X366594D01*
X378444Y258234D02*
X380136D01*
X381829Y259927D01*
Y268391D01*
X376751D01*
X375058Y266698D01*
Y263313D01*
X376751Y261620D01*
X381829D01*
X385215D02*
Y268391D01*
X390293D01*
X391986Y266698D01*
Y261620D01*
X397064Y268391D02*
X400450D01*
X402143Y266698D01*
Y261620D01*
X397064D01*
X395372Y263313D01*
X397064Y265006D01*
X402143D01*
X407221Y270084D02*
Y268391D01*
X405528D01*
X408914D01*
X407221D01*
Y263313D01*
X408914Y261620D01*
X415685D02*
X419071D01*
X420763Y263313D01*
Y266698D01*
X419071Y268391D01*
X415685D01*
X413992Y266698D01*
Y263313D01*
X415685Y261620D01*
X424149Y268391D02*
Y261620D01*
Y265006D01*
X425842Y266698D01*
X427534Y268391D01*
X429227D01*
M02*
